<?xml version="1.0" encoding="iso-8859-1"?>
<!-- Generator: Adobe Illustrator 16.0.0, SVG Export Plug-In . SVG Version: 6.00 Build 0)  -->
<!DOCTYPE svg PUBLIC "-//W3C//DTD SVG 1.0//EN" "http://www.w3.org/TR/2001/REC-SVG-20010904/DTD/svg10.dtd">
<svg version="1.0" id="Layer_1" xmlns="http://www.w3.org/2000/svg" xmlns:xlink="http://www.w3.org/1999/xlink" x="0px" y="0px"
	 width="249px" height="248px" viewBox="0 0 249 248" style="enable-background:new 0 0 249 248;" xml:space="preserve">
<g>
	<g>
		<path style="fill-rule:evenodd;clip-rule:evenodd;fill:none;" d="M17,1c77.667,0,155.334,0,233,0c0,77.667,0,155.333,0,233
			c-7.607,0-15.215,0-23.455,0c0-5.737,0-10.642,0-15.511c-5.402,0-10.154,0-15.535,0c0,5.204,0,10.094,0,15.014
			c-5.391,0-10.137,0-15.532,0c0-5.245,0-10.157,0-15.03c-5.425,0-10.185,0-15.534,0c0,5.194,0,10.09,0,15.091
			c-5.352,0-10.103,0-15.574,0c0-5.159,0-10.051,0-15.083c-5.453,0-10.182,0-15.489,0c0,5.206,0,10.103,0,15.086
			c-5.341,0-10.097,0-15.564,0c0-5.151,0-10.041,0-15.078c-5.443,0-10.167,0-15.484,0c0,5.215,0,10.106,0,15.359
			c-4.4,0-8.215-0.136-12.015,0.043c-2.99,0.141-3.703-1.286-3.614-3.923c0.127-3.772,0.033-7.553,0.033-11.472
			c-5.405,0-10.126,0-15.456,0c0,5.221,0,10.109,0,15.35c-4.418,0-8.235-0.133-12.037,0.043c-2.979,0.138-3.707-1.261-3.608-3.916
			c0.14-3.772,0.035-7.555,0.035-11.48c-5.378,0-10.102,0-15.464,0c0,5.217,0,10.104,0,15.013c-13.225,0-25.803,0-38.467,0
			c0-10.425,0-20.498,0-31.137c5.087,0,9.838,0,14.722,0c0-5.313,0-10.049,0-15.291c-5.083,0-9.838,0-14.743,0
			c0-5.396,0-10.28,0-15.781c5.051,0,9.8,0,14.75,0c0-5.34,0-10.059,0-15.263c-5.079,0-9.834,0-14.771,0c0-5.385,0-10.276,0-15.774
			c5.025,0,9.777,0,14.776,0c0-5.323,0-10.037,0-15.254c-5.072,0-9.829,0-14.791,0c0-5.404,0-10.302,0-15.79
			c5.009,0,9.761,0,14.794,0c0-5.303,0-10.012,0-15.244c-5.065,0-9.821,0-14.805,0c0-5.424,0-10.324,0-15.972
			c5.12,0,9.991,0,14.808,0c0-5.347,0-9.941,0-15.065c-5.06,0-9.813,0-14.659,0c0-5.569,0-10.594,0-16.138c5.169,0,9.917,0,14.69,0
			c0-5.139,0-9.739,0-15.086c-5.137,0-9.998,0-15.01,0C17,20.972,17,10.986,17,1z M69.747,176.05
			c14.017-18.655,27.853-37.071,41.853-55.704c13.023,10.388,25.461,20.309,38.535,30.738c20.371-20.348,40.447-40.4,61.164-61.094
			c0,14.445,0,28.289,0,42.321c5.408,0,10.145,0,15.111,0c0-23.203,0-46.073,0-69.012c-23.236,0-46.127,0-69.029,0
			c0,5.071,0,9.799,0,14.984c14.09,0,27.817,0,41.143,0c-16.947,16.898-33.857,33.758-51.117,50.967
			c-12.158-9.696-25.249-20.137-38.602-30.786c-17.278,23.02-34.209,45.578-51.32,68.375C61.825,170.1,65.642,172.967,69.747,176.05
			z"/>
		<path style="fill-rule:evenodd;clip-rule:evenodd;" d="M17,1c0,9.986,0,19.972,0,30.71c5.012,0,9.874,0,15.01,0
			c0,5.347,0,9.947,0,15.086c-4.773,0-9.521,0-14.69,0c0,5.544,0,10.568,0,16.138c4.845,0,9.599,0,14.659,0
			c0,5.124,0,9.719,0,15.065c-4.817,0-9.688,0-14.808,0c0,5.647,0,10.548,0,15.972c4.984,0,9.739,0,14.805,0
			c0,5.232,0,9.941,0,15.244c-5.033,0-9.785,0-14.794,0c0,5.488,0,10.386,0,15.79c4.962,0,9.719,0,14.791,0
			c0,5.217,0,9.931,0,15.254c-5,0-9.751,0-14.776,0c0,5.498,0,10.39,0,15.774c4.938,0,9.693,0,14.771,0c0,5.204,0,9.923,0,15.263
			c-4.951,0-9.7,0-14.75,0c0,5.501,0,10.385,0,15.781c4.905,0,9.66,0,14.743,0c0,5.242,0,9.979,0,15.291c-4.884,0-9.635,0-14.722,0
			c0,10.639,0,20.712,0,31.137c12.664,0,25.242,0,38.467,0c0-4.909,0-9.796,0-15.013c5.363,0,10.086,0,15.464,0
			c0,3.926,0.104,7.708-0.035,11.48c-0.099,2.655,0.629,4.054,3.608,3.916c3.802-0.176,7.619-0.043,12.037-0.043
			c0-5.24,0-10.129,0-15.35c5.33,0,10.051,0,15.456,0c0,3.919,0.095,7.699-0.033,11.472c-0.089,2.637,0.625,4.063,3.614,3.923
			c3.8-0.179,7.614-0.043,12.015-0.043c0-5.253,0-10.145,0-15.359c5.317,0,10.041,0,15.484,0c0,5.037,0,9.927,0,15.078
			c5.468,0,10.224,0,15.564,0c0-4.983,0-9.88,0-15.086c5.308,0,10.036,0,15.489,0c0,5.032,0,9.924,0,15.083
			c5.472,0,10.223,0,15.574,0c0-5.001,0-9.896,0-15.091c5.35,0,10.109,0,15.534,0c0,4.873,0,9.785,0,15.03
			c5.396,0,10.142,0,15.532,0c0-4.92,0-9.81,0-15.014c5.381,0,10.133,0,15.535,0c0,4.869,0,9.773,0,15.511c8.24,0,15.848,0,23.455,0
			c0,5,0,10,0,15c-83,0-166,0-249,0C1,166.333,1,83.667,1,1C6.333,1,11.667,1,17,1z"/>
		<path style="fill-rule:evenodd;clip-rule:evenodd;" d="M69.747,176.05c-4.104-3.083-7.922-5.95-12.262-9.21
			c17.11-22.797,34.042-45.355,51.32-68.375c13.354,10.649,26.444,21.09,38.602,30.786c17.26-17.209,34.17-34.068,51.117-50.967
			c-13.325,0-27.053,0-41.143,0c0-5.186,0-9.913,0-14.984c22.902,0,45.793,0,69.029,0c0,22.938,0,45.809,0,69.012
			c-4.967,0-9.703,0-15.111,0c0-14.032,0-27.876,0-42.321c-20.717,20.693-40.793,40.746-61.164,61.094
			c-13.074-10.43-25.512-20.351-38.535-30.738C97.6,138.979,83.764,157.395,69.747,176.05z"/>
	</g>
</g>
</svg>
