<?xml version="1.0" encoding="iso-8859-1"?>
<!-- Generator: Adobe Illustrator 16.0.0, SVG Export Plug-In . SVG Version: 6.00 Build 0)  -->
<!DOCTYPE svg PUBLIC "-//W3C//DTD SVG 1.0//EN" "http://www.w3.org/TR/2001/REC-SVG-20010904/DTD/svg10.dtd">
<svg version="1.0" id="Layer_1" xmlns="http://www.w3.org/2000/svg" xmlns:xlink="http://www.w3.org/1999/xlink" x="0px" y="0px"
	 width="334px" height="335px" viewBox="0 0 334 335" style="enable-background:new 0 0 334 335;" xml:space="preserve">
<g>
	<g>
		<path style="fill-rule:evenodd;clip-rule:evenodd;" d="M335,98c0,70.667,0,141.333,0,212c-0.269,0.42-0.682,0.808-0.785,1.265
			c-5.43,24.188-35.855,32.416-54.391,13.302c-20.516-21.156-42.434-40.946-63.377-61.698c-7.771-7.701-16.465-11.025-27.291-10.906
			c-27.818,0.305-55.641,0.146-83.461,0.078c-12.729-0.031-21.829-6.01-27.453-17.377c-0.431-0.871-0.906-1.721-1.536-2.914
			c-1.437,1.304-2.665,2.365-3.833,3.486c-6.493,6.226-12.81,12.646-19.486,18.668c-17.279,15.582-44.582,7.607-50.848-14.729
			C2.052,237.442,1.514,235.725,1,234C1,165.333,1,96.667,1,28c0.302-0.763,0.692-1.503,0.892-2.292
			C5.784,10.296,16.172,1.976,32.07,1.963c65.987-0.054,131.973-0.065,197.959,0.004c18.541,0.02,30.637,12.252,30.711,30.722
			c0.049,12.331,0,24.662,0.021,36.993c0.004,1.745,0.163,3.49,0.262,5.471c15.109,0,29.599-0.181,44.08,0.056
			c12.12,0.197,21.391,5.558,27.083,16.503C333.244,93.744,334.068,95.9,335,98z M21.86,130.869c0,32.16-0.005,64.32,0.013,96.481
			c0.001,1.992-0.114,4.056,0.338,5.965c2.043,8.636,11.952,10.825,18.921,4.118c22.211-21.377,44.444-42.731,66.483-64.285
			c10.341-10.113,22.489-14.933,36.895-14.862c28.16,0.139,56.322,0.07,84.484,0.019c8.411-0.016,11.162-2.823,11.164-11.016
			c0.006-37.993,0.007-75.986-0.002-113.979c-0.002-7.994-3.039-11.146-11.182-11.15c-65.154-0.04-130.309-0.04-195.463-0.004
			c-8.747,0.005-11.646,3.037-11.648,11.73C21.856,66.214,21.86,98.541,21.86,130.869z M260.75,95.831
			c0,17.393,0.009,34.04-0.002,50.688c-0.014,20.349-11.948,32.326-32.257,32.34c-28.16,0.019-56.321,0.113-84.479-0.06
			c-8.699-0.054-15.862,2.791-21.985,8.884c-7.204,7.169-14.592,14.151-21.893,21.223c-3.898,3.774-5.547,12.083-3.238,17.409
			c2.368,5.46,7.331,5.557,12.28,5.555c27.827-0.008,55.655,0.141,83.48-0.061c14.308-0.104,26.152,4.91,36.337,14.874
			c21.558,21.09,43.339,41.951,65.034,62.901c1.077,1.041,2.121,2.145,3.32,3.026c7.047,5.179,16.186,1.145,17.078-7.54
			c0.187-1.816,0.135-3.661,0.136-5.493c0.006-63.651,0.005-127.303,0.003-190.954c0-1.5,0.047-3.005-0.059-4.497
			c-0.336-4.74-3.086-8.137-7.746-8.209C291.641,95.685,276.517,95.831,260.75,95.831z"/>
		<path style="fill-rule:evenodd;clip-rule:evenodd;fill:none;" d="M1,234c0.514,1.725,1.052,3.442,1.539,5.175
			c6.266,22.336,33.568,30.311,50.848,14.729c6.677-6.021,12.994-12.442,19.486-18.668c1.169-1.121,2.396-2.183,3.833-3.486
			c0.63,1.193,1.105,2.043,1.536,2.914c5.624,11.367,14.723,17.346,27.453,17.377c27.821,0.068,55.644,0.227,83.461-0.078
			c10.826-0.119,19.52,3.205,27.291,10.906c20.943,20.752,42.861,40.542,63.377,61.698c18.535,19.114,48.961,10.887,54.391-13.302
			c0.104-0.457,0.517-0.845,0.785-1.265c0,8.657,0,17.314,0,25.945c-111.334,0-222.667,0-334,0C1,301.927,1,267.963,1,234z"/>
		<path style="fill-rule:evenodd;clip-rule:evenodd;fill:none;" d="M335,98c-0.932-2.1-1.756-4.256-2.813-6.289
			c-5.692-10.945-14.963-16.306-27.083-16.503c-14.481-0.236-28.971-0.056-44.08-0.056c-0.099-1.98-0.258-3.726-0.262-5.471
			c-0.021-12.331,0.027-24.662-0.021-36.993c-0.074-18.47-12.17-30.702-30.711-30.722C164.043,1.897,98.057,1.909,32.07,1.963
			C16.172,1.976,5.784,10.296,1.892,25.708C1.692,26.497,1.302,27.237,1,28c0-9,0-18,0-27c111.333,0,222.666,0,334,0
			C335,33.333,335,65.667,335,98z"/>
		<path style="fill-rule:evenodd;clip-rule:evenodd;fill:none;" d="M21.86,130.869c0-32.328-0.004-64.655,0.002-96.982
			c0.002-8.693,2.901-11.726,11.648-11.73C98.666,22.12,163.82,22.12,228.975,22.16c8.143,0.005,11.18,3.156,11.182,11.15
			c0.009,37.992,0.008,75.985,0.002,113.979c-0.002,8.192-2.753,11-11.164,11.016c-28.162,0.052-56.324,0.12-84.484-0.019
			c-14.406-0.07-26.554,4.749-36.895,14.862c-22.039,21.554-44.272,42.908-66.483,64.285c-6.969,6.707-16.877,4.518-18.921-4.118
			c-0.452-1.909-0.336-3.973-0.338-5.965C21.854,195.189,21.86,163.029,21.86,130.869z M146.987,111.279
			c0.032-8.616-6.425-15.236-14.985-15.36c-8.735-0.128-15.749,6.635-15.785,15.219c-0.035,8.461,7.218,15.673,15.643,15.555
			C140.226,126.574,146.956,119.718,146.987,111.279z M194.279,95.912c-8.594,0.015-15.185,6.538-15.255,15.099
			c-0.071,8.654,6.866,15.741,15.359,15.688c8.265-0.052,15.283-7.015,15.413-15.292C209.932,102.86,202.959,95.896,194.279,95.912z
			 M53.749,111.388c0.105,8.433,6.91,15.261,15.249,15.302c8.469,0.041,15.605-7.162,15.511-15.656
			c-0.094-8.577-7.129-15.277-15.871-15.115C60.117,96.076,53.642,102.804,53.749,111.388z"/>
		<path style="fill-rule:evenodd;clip-rule:evenodd;fill:none;" d="M260.75,95.831c15.767,0,30.891-0.146,46.01,0.087
			c4.66,0.072,7.41,3.469,7.746,8.209c0.105,1.492,0.059,2.997,0.059,4.497c0.002,63.651,0.003,127.303-0.003,190.954
			c-0.001,1.832,0.051,3.677-0.136,5.493c-0.893,8.685-10.031,12.719-17.078,7.54c-1.199-0.882-2.243-1.985-3.32-3.026
			c-21.695-20.95-43.477-41.812-65.034-62.901c-10.185-9.964-22.029-14.978-36.337-14.874c-27.826,0.201-55.654,0.053-83.48,0.061
			c-4.949,0.002-9.912-0.095-12.28-5.555c-2.31-5.326-0.66-13.635,3.238-17.409c7.301-7.071,14.689-14.054,21.893-21.223
			c6.123-6.093,13.286-8.938,21.985-8.884c28.158,0.173,56.319,0.078,84.479,0.06c20.309-0.014,32.243-11.991,32.257-32.34
			C260.759,129.871,260.75,113.224,260.75,95.831z"/>
		<path style="fill-rule:evenodd;clip-rule:evenodd;" d="M146.987,111.279c-0.032,8.438-6.762,15.295-15.127,15.413
			c-8.425,0.118-15.678-7.094-15.643-15.555c0.036-8.584,7.05-15.347,15.785-15.219C140.562,96.043,147.02,102.663,146.987,111.279z
			"/>
		<path style="fill-rule:evenodd;clip-rule:evenodd;" d="M194.279,95.912c8.68-0.016,15.652,6.948,15.518,15.495
			c-0.13,8.277-7.148,15.24-15.413,15.292c-8.493,0.053-15.431-7.034-15.359-15.688C179.095,102.45,185.686,95.927,194.279,95.912z"
			/>
		<path style="fill-rule:evenodd;clip-rule:evenodd;" d="M53.749,111.388c-0.107-8.584,6.368-15.312,14.889-15.47
			c8.742-0.162,15.777,6.538,15.871,15.115c0.094,8.494-7.042,15.697-15.511,15.656C60.658,126.648,53.854,119.82,53.749,111.388z"
			/>
	</g>
</g>
</svg>
