<?xml version="1.0" encoding="iso-8859-1"?>
<!-- Generator: Adobe Illustrator 16.0.0, SVG Export Plug-In . SVG Version: 6.00 Build 0)  -->
<!DOCTYPE svg PUBLIC "-//W3C//DTD SVG 1.0//EN" "http://www.w3.org/TR/2001/REC-SVG-20010904/DTD/svg10.dtd">
<svg version="1.0" id="Layer_1" xmlns="http://www.w3.org/2000/svg" xmlns:xlink="http://www.w3.org/1999/xlink" x="0px" y="0px"
	 width="247px" height="247px" viewBox="0 0 247 247" style="enable-background:new 0 0 247 247;" xml:space="preserve">
<g>
	<g>
		<path style="fill-rule:evenodd;clip-rule:evenodd;fill:none;" d="M150,248c-49.667,0-99.333,0-149,0c0-31.333,0-62.667,0-94
			c0.397,1.425,0.856,2.836,1.183,4.277c6.017,26.479,31.041,38.716,52.53,34.855c0-30.389,0-60.782,0-91.127
			c-22.264-4.308-45.079,9.675-51.562,31.414C2.401,135.937,1.716,138.473,1,141C1,94.333,1,47.667,1,1c38.333,0,76.667,0,115,0
			c-0.928,0.311-1.833,0.773-2.786,0.909C77.205,7.059,49.248,32.92,41.563,68.527c-1.196,5.539-1.383,11.296-2.055,17.105
			c5.767,0,10.366,0,14.948,0C56.4,41.98,91.082,16.285,124.499,16.285c33.454,0,68.112,25.736,70.04,69.299
			c4.723,0,9.449,0,14.527,0c0-1.767,0.039-3.236-0.006-4.703c-1.141-36.516-29.834-70.14-66.386-77.81
			C139.447,2.395,136.225,1.691,133,1c38.334,0,76.666,0,115,0c0,46.667,0,93.333,0,140c-0.379-1.242-0.848-2.465-1.124-3.729
			c-5.446-24.857-28.355-38.846-52.517-35.288c0,30.486,0,60.996,0,91.467c25.162,3.062,46.45-10.99,52.211-34.205
			c0.437-1.758,0.951-3.496,1.43-5.244c0,31.333,0,62.667,0,94c-29.666,0-59.334,0-89,0c1.521-0.617,3.016-1.311,4.567-1.838
			c9.236-3.135,18.218-16.836,13.167-29.054c-4.086-9.887-13.29-15.997-24.384-15.099c-9.864,0.799-18.722,9.172-20.218,19.111
			c-1.582,10.501,3.883,20.529,13.506,24.818C147.107,246.594,148.547,247.312,150,248z M178.896,232.412
			c9.514,0,18.457,0.038,27.4-0.023c2.652-0.018,5.342-0.089,7.949-0.522c10.652-1.771,18.523-11.657,17.513-22.177
			c-4.692,0-9.424,0-14.11,0c-2.422,6.48-3.748,7.402-10.722,7.415c-9.255,0.018-18.511,0.005-28.03,0.005
			C178.896,222.347,178.896,226.939,178.896,232.412z"/>
		<path style="fill-rule:evenodd;clip-rule:evenodd;" d="M133,1c3.225,0.691,6.447,1.395,9.675,2.071
			c36.552,7.67,65.245,41.294,66.386,77.81c0.045,1.467,0.006,2.937,0.006,4.703c-5.078,0-9.805,0-14.527,0
			c-1.928-43.563-36.586-69.299-70.04-69.299c-33.417,0-68.099,25.695-70.042,69.348c-4.582,0-9.181,0-14.948,0
			c0.671-5.81,0.859-11.566,2.055-17.105C49.248,32.92,77.205,7.059,113.214,1.909C114.167,1.773,115.072,1.311,116,1
			C121.667,1,127.334,1,133,1z"/>
		<path style="fill-rule:evenodd;clip-rule:evenodd;" d="M1,141c0.716-2.527,1.401-5.063,2.151-7.58
			c6.483-21.739,29.298-35.722,51.562-31.414c0,30.345,0,60.738,0,91.127c-21.489,3.86-46.513-8.377-52.53-34.855
			C1.856,156.836,1.397,155.425,1,154C1,149.667,1,145.333,1,141z M39.414,177.187c0-19.9,0-39.415,0-58.97
			c-12.813,1.471-22.62,13.832-23.088,28.695C15.861,161.674,25.564,174.74,39.414,177.187z"/>
		<path style="fill-rule:evenodd;clip-rule:evenodd;" d="M248,154c-0.479,1.748-0.993,3.486-1.43,5.244
			c-5.761,23.215-27.049,37.267-52.211,34.205c0-30.471,0-60.98,0-91.467c24.161-3.558,47.07,10.431,52.517,35.288
			c0.276,1.265,0.745,2.487,1.124,3.729C248,145.333,248,149.667,248,154z M209.6,176.899c12.662-1.013,22.979-14.225,23.084-29.117
			c0.105-15.027-10.367-28.528-23.084-29.481C209.6,137.837,209.6,157.354,209.6,176.899z"/>
		<path style="fill-rule:evenodd;clip-rule:evenodd;" d="M150,248c-1.453-0.688-2.893-1.406-4.361-2.061
			c-9.623-4.289-15.088-14.317-13.506-24.818c1.496-9.939,10.354-18.313,20.218-19.111c11.094-0.898,20.298,5.212,24.384,15.099
			c5.051,12.218-3.931,25.919-13.167,29.054c-1.552,0.527-3.046,1.221-4.567,1.838C156,248,153,248,150,248z M154.794,217.035
			c-4.229,0.064-7.899,3.945-7.702,8.145c0.191,4.063,3.811,7.462,7.899,7.418c4.122-0.044,7.614-3.498,7.692-7.608
			C162.764,220.75,159.016,216.972,154.794,217.035z"/>
		<path style="fill-rule:evenodd;clip-rule:evenodd;" d="M178.896,232.412c0-5.473,0-10.065,0-15.303
			c9.52,0,18.775,0.013,28.03-0.005c6.974-0.013,8.3-0.935,10.722-7.415c4.687,0,9.418,0,14.11,0
			c1.011,10.52-6.86,20.406-17.513,22.177c-2.607,0.434-5.297,0.505-7.949,0.522C197.354,232.45,188.41,232.412,178.896,232.412z"/>
		<path style="fill-rule:evenodd;clip-rule:evenodd;fill:none;" d="M39.414,177.187c-13.85-2.446-23.553-15.513-23.088-30.274
			c0.468-14.863,10.275-27.225,23.088-28.695C39.414,137.771,39.414,157.286,39.414,177.187z"/>
		<path style="fill-rule:evenodd;clip-rule:evenodd;fill:none;" d="M209.6,176.899c0-19.546,0-39.063,0-58.599
			c12.717,0.953,23.189,14.454,23.084,29.481C232.579,162.675,222.262,175.887,209.6,176.899z"/>
		<path style="fill-rule:evenodd;clip-rule:evenodd;fill:none;" d="M154.794,217.035c4.222-0.063,7.97,3.715,7.89,7.954
			c-0.078,4.11-3.57,7.564-7.692,7.608c-4.089,0.044-7.708-3.354-7.899-7.418C146.895,220.98,150.564,217.1,154.794,217.035z"/>
	</g>
</g>
</svg>
