<?xml version="1.0" encoding="iso-8859-1"?>
<!-- Generator: Adobe Illustrator 16.0.0, SVG Export Plug-In . SVG Version: 6.00 Build 0)  -->
<!DOCTYPE svg PUBLIC "-//W3C//DTD SVG 1.0//EN" "http://www.w3.org/TR/2001/REC-SVG-20010904/DTD/svg10.dtd">
<svg version="1.0" id="Layer_1" xmlns="http://www.w3.org/2000/svg" xmlns:xlink="http://www.w3.org/1999/xlink" x="0px" y="0px"
	 width="272px" height="242px" viewBox="0 0 272 242" style="enable-background:new 0 0 272 242;" xml:space="preserve">
<g>
	<g>
		<path style="fill-rule:evenodd;clip-rule:evenodd;fill:none;" d="M273,92c0,50.333,0,100.667,0,151c-90.666,0-181.333,0-272,0
			c0-52.667,0-105.333,0-158c0.34,1.78,0.761,3.549,1.008,5.342c2.506,18.2,9.361,34.205,23.183,46.835
			c34.065,31.128,68.073,62.319,102.108,93.479c4.148,3.798,8.327,7.563,12.783,11.605c3.843-4.134,7.422-7.985,11.585-12.465
			c-1.556-1.227-2.918-2.166-4.128-3.272c-36.644-33.492-73.349-66.918-109.868-100.545C20.958,110.591,15.235,91.029,19.624,69.2
			c5.074-25.232,20.92-41.821,45.69-48.519c24.713-6.683,46.381-0.071,64.263,18.377c2.648,2.731,5.045,5.705,7.737,8.771
			c2.73-3.119,5.184-6.022,7.743-8.828c30.571-33.517,86.245-24.988,105.509,16.014c12.451,26.5,2.338,57.526-14.332,71.823
			c-28.445,24.395-55.978,49.854-83.938,74.816c-1.197,1.069-2.835,1.645-4.361,2.503c4.875,5.198,8.473,9.035,12.154,12.963
			c29.689-26.581,58.887-52.904,88.313-78.969c9.921-8.787,16.431-19.542,20.598-31.882C270.579,101.596,271.681,96.762,273,92z
			 M81.688,34.707c-4.695,0.877-8.883,1.237-12.8,2.463c-16.886,5.285-28.208,16.409-32.079,33.75
			c-3.735,16.728,0.29,31.512,13.449,43.448c25.662,23.277,51.118,46.781,76.667,70.184c1.172,1.073,2.423,2.061,3.794,3.22
			c3.848-4.101,7.472-7.963,11.224-11.962c-1.511-1.421-2.692-2.562-3.903-3.67c-25.561-23.39-51.139-46.759-76.679-70.169
			c-10.006-9.172-12.073-23.801-5.021-35.533c5.67-9.433,14.365-13.938,25.349-14.818C81.688,46.185,81.688,40.932,81.688,34.707z
			 M166.188,68.382c10.591-14.568,24.102-18.268,40.881-11.662c2.598-4.665,5.2-9.343,7.803-14.018
			c-22.336-12.329-52.599-3.506-62.713,18.065C156.783,63.278,161.426,65.797,166.188,68.382z"/>
		<path style="fill-rule:evenodd;clip-rule:evenodd;" d="M273,92c-1.319,4.762-2.421,9.596-4,14.27
			c-4.167,12.34-10.677,23.095-20.598,31.882c-29.426,26.064-58.623,52.388-88.313,78.969c-3.682-3.928-7.279-7.765-12.154-12.963
			c1.526-0.858,3.164-1.434,4.361-2.503c27.96-24.963,55.492-50.422,83.938-74.816c16.67-14.297,26.783-45.323,14.332-71.823
			c-19.264-41.002-74.938-49.53-105.509-16.014c-2.56,2.806-5.013,5.709-7.743,8.828c-2.692-3.065-5.089-6.039-7.737-8.771
			c-17.882-18.448-39.55-25.06-64.263-18.377c-24.77,6.697-40.616,23.286-45.69,48.519c-4.389,21.829,1.334,41.391,18.046,56.779
			c36.52,33.627,73.225,67.053,109.868,100.545c1.21,1.106,2.572,2.046,4.128,3.272c-4.163,4.479-7.742,8.331-11.585,12.465
			c-4.456-4.043-8.634-7.808-12.783-11.605c-34.035-31.16-68.043-62.352-102.108-93.479c-13.822-12.63-20.676-28.635-23.183-46.835
			C1.761,88.549,1.34,86.78,1,85c0-2.333,0-4.667,0-7c1.231-6.341,1.943-12.835,3.776-18.997
			C20.995,4.479,88.221-16.362,132.746,19.214c1.531,1.224,3.066,2.442,4.569,3.64c2.373-1.882,4.418-3.592,6.551-5.181
			C188.264-15.405,252.652,5.034,269.477,57.58c1.408,4.398,2.359,8.943,3.523,13.42C273,78,273,85,273,92z"/>
		<path style="fill-rule:evenodd;clip-rule:evenodd;fill:none;" d="M273,71c-1.164-4.477-2.115-9.021-3.523-13.42
			c-16.824-52.546-81.213-72.985-125.611-39.907c-2.133,1.589-4.178,3.299-6.551,5.181c-1.503-1.197-3.038-2.416-4.569-3.64
			C88.221-16.362,20.995,4.479,4.776,59.003C2.943,65.165,2.231,71.659,1,78C1,52.333,1,26.667,1,1c90.667,0,181.334,0,272,0
			C273,24.333,273,47.667,273,71z"/>
		<path style="fill-rule:evenodd;clip-rule:evenodd;" d="M81.688,34.707c0,6.225,0,11.478,0,16.912
			C70.704,52.5,62.009,57.005,56.339,66.438c-7.053,11.732-4.986,26.361,5.021,35.533c25.541,23.41,51.119,46.779,76.679,70.169
			c1.211,1.108,2.393,2.249,3.903,3.67c-3.752,3.999-7.375,7.861-11.224,11.962c-1.371-1.159-2.622-2.146-3.794-3.22
			c-25.549-23.402-51.004-46.906-76.667-70.184C37.099,102.432,33.074,87.647,36.809,70.92c3.872-17.341,15.193-28.465,32.079-33.75
			C72.805,35.944,76.993,35.584,81.688,34.707z"/>
		<path style="fill-rule:evenodd;clip-rule:evenodd;" d="M166.188,68.382c-4.762-2.585-9.404-5.104-14.029-7.614
			c10.114-21.571,40.377-30.395,62.713-18.065c-2.603,4.675-5.205,9.353-7.803,14.018C190.289,50.114,176.778,53.813,166.188,68.382
			z"/>
	</g>
</g>
</svg>
