<?xml version="1.0" encoding="iso-8859-1"?>
<!-- Generator: Adobe Illustrator 16.0.0, SVG Export Plug-In . SVG Version: 6.00 Build 0)  -->
<!DOCTYPE svg PUBLIC "-//W3C//DTD SVG 1.0//EN" "http://www.w3.org/TR/2001/REC-SVG-20010904/DTD/svg10.dtd">
<svg version="1.0" id="Layer_1" xmlns="http://www.w3.org/2000/svg" xmlns:xlink="http://www.w3.org/1999/xlink" x="0px" y="0px"
	 width="249px" height="249px" viewBox="0 0 249 249" style="enable-background:new 0 0 249 249;" xml:space="preserve">
<g>
	<g>
		<path style="fill-rule:evenodd;clip-rule:evenodd;fill:none;" d="M131,250c-43.333,0-86.667,0-130,0c0-5.333,0-10.667,0-16
			c15.548,0,31.097,0,46.633,0c0-46.635,0-92.688,0-139C31.892,95,16.446,95,1,95C1,63.735,1,32.472,1,1c44,0,88,0,132,0
			c-0.957,0.256-1.9,0.608-2.875,0.752c-16.021,2.373-26.435,13.181-27.515,29.39c-0.575,8.625-0.028,17.319-0.339,25.97
			c-0.082,2.286-0.97,4.9-2.343,6.719c-5.719,7.571-12.039,14.697-17.602,22.375c-4.249,5.863-8.68,10.414-16.675,8.671
			c-0.406-0.088-0.908,0.259-1.622,0.484c0,4.732,0,9.442,0,14.637c5.285,0,10.267,0.264,15.197-0.129
			c2.007-0.16,4.506-1.25,5.749-2.764c10.46-12.74,20.738-25.633,30.897-38.615c1.198-1.531,1.858-3.872,1.897-5.854
			c0.193-9.657,0.036-19.32,0.106-28.981c0.071-9.837,6.369-16.64,15.355-16.741c9.174-0.104,15.785,6.835,15.82,16.817
			c0.063,16.99,0.018,33.98,0.019,50.971c0,7.981,0,15.963,0,24.316c27.144,5.067,54.046,10.09,80.81,15.085
			c0.049,0.936,0.143,1.285,0.072,1.597c-7.951,35.201-15.962,70.39-23.8,105.615c-0.724,3.252-2.579,3.295-5.04,3.288
			c-12.326-0.035-24.678-0.526-36.972,0.102c-19.528,0.998-38.431-1.32-56.899-7.815c-7.518-2.645-15.208-5.03-23.012-6.555
			c-6.556-1.281-13.39-1.143-20.106-1.633c0,5.768,0,10.493,0,14.101c9.37,1.833,18.224,3.074,26.801,5.355
			C104.38,241.735,117.65,246.017,131,250z"/>
		<path style="fill-rule:evenodd;clip-rule:evenodd;fill:none;" d="M134,1c38.666,0,77.334,0,116,0c0,83,0,166,0,249
			c-11,0-22,0-33,0c0.297-0.769,0.691-1.515,0.875-2.309c6.342-27.386,12.672-54.774,18.984-82.167
			c4.065-17.637,8.103-35.279,12.23-53.258c-1.705-0.449-3.092-0.91-4.516-1.177c-24.695-4.615-49.359-9.416-74.121-13.636
			c-5.273-0.898-6.176-3.011-6.137-7.72c0.164-19.821,0.324-39.655-0.229-59.466c-0.377-13.53-10.214-24.631-23.278-27.881
			C138.563,1.829,136.271,1.458,134,1z"/>
		<path style="fill-rule:evenodd;clip-rule:evenodd;" d="M134,1c2.271,0.458,4.563,0.829,6.81,1.388
			c13.064,3.25,22.901,14.351,23.278,27.881c0.553,19.811,0.393,39.645,0.229,59.466c-0.039,4.709,0.863,6.821,6.137,7.72
			c24.762,4.22,49.426,9.021,74.121,13.636c1.424,0.267,2.811,0.728,4.516,1.177c-4.128,17.979-8.165,35.621-12.23,53.258
			c-6.313,27.393-12.643,54.781-18.984,82.167c-0.184,0.794-0.578,1.54-0.875,2.309c-28.666,0-57.334,0-86,0
			c-13.35-3.983-26.62-8.265-40.077-11.844c-8.577-2.281-17.431-3.522-26.801-5.355c0-3.607,0-8.333,0-14.101
			c6.717,0.49,13.55,0.352,20.106,1.633c7.803,1.524,15.494,3.91,23.012,6.555c18.469,6.495,37.371,8.813,56.899,7.815
			c12.294-0.628,24.646-0.137,36.972-0.102c2.461,0.007,4.316-0.036,5.04-3.288c7.838-35.226,15.849-70.414,23.8-105.615
			c0.07-0.312-0.023-0.661-0.072-1.597c-26.764-4.995-53.666-10.018-80.81-15.085c0-8.354,0-16.335,0-24.316
			c-0.001-16.99,0.044-33.98-0.019-50.971c-0.035-9.982-6.646-16.922-15.82-16.817c-8.986,0.102-15.284,6.904-15.355,16.741
			c-0.07,9.661,0.087,19.324-0.106,28.981c-0.039,1.982-0.699,4.323-1.897,5.854c-10.159,12.982-20.437,25.875-30.897,38.615
			c-1.243,1.514-3.742,2.604-5.749,2.764c-4.93,0.393-9.913,0.129-15.197,0.129c0-5.194,0-9.904,0-14.637
			c0.714-0.226,1.216-0.572,1.622-0.484c7.995,1.743,12.427-2.808,16.675-8.671c5.563-7.678,11.883-14.804,17.602-22.375
			c1.373-1.818,2.261-4.433,2.343-6.719c0.311-8.65-0.235-17.345,0.339-25.97c1.081-16.209,11.495-27.017,27.515-29.39
			C131.1,1.608,132.043,1.256,133,1C133.334,1,133.666,1,134,1z"/>
		<path style="fill-rule:evenodd;clip-rule:evenodd;" d="M1,95c15.446,0,30.892,0,46.633,0c0,46.313,0,92.365,0,139
			c-15.536,0-31.084,0-46.633,0C1,187.667,1,141.333,1,95z M17.09,218.81c5.327,0,10.097,0,15.172,0c0-36.261,0-72.293,0-108.468
			c-5.214,0-10.098,0-15.172,0C17.09,146.582,17.09,182.479,17.09,218.81z"/>
		<path style="fill-rule:evenodd;clip-rule:evenodd;fill:none;" d="M17.09,218.81c0-36.331,0-72.228,0-108.468
			c5.074,0,9.958,0,15.172,0c0,36.175,0,72.207,0,108.468C27.187,218.81,22.417,218.81,17.09,218.81z"/>
	</g>
</g>
</svg>
