<?xml version="1.0" encoding="iso-8859-1"?>
<!-- Generator: Adobe Illustrator 16.0.0, SVG Export Plug-In . SVG Version: 6.00 Build 0)  -->
<!DOCTYPE svg PUBLIC "-//W3C//DTD SVG 1.0//EN" "http://www.w3.org/TR/2001/REC-SVG-20010904/DTD/svg10.dtd">
<svg version="1.0" id="Layer_1" xmlns="http://www.w3.org/2000/svg" xmlns:xlink="http://www.w3.org/1999/xlink" x="0px" y="0px"
	 width="532px" height="487px" viewBox="0 0 532 487" style="enable-background:new 0 0 532 487;" xml:space="preserve">
<g>
	<g>
		<path style="fill-rule:evenodd;clip-rule:evenodd;fill:none;" d="M78,488c-25.614,0-51.229,0-77,0c0-56,0-112,0-168
			c9.94,0,19.881,0,30.232,0c0.174-2.156,0.463-4.953,0.617-7.757c2.122-38.913,4.161-77.831,6.479-116.732
			c0.154-2.589,1.796-5.726,3.757-7.468c12.452-11.06,25.19-21.796,37.828-32.646c2.224-1.909,4.421-3.851,6.811-5.935
			c-6.699-7.81-13.052-15.215-19.394-22.606c-0.862,0.505-1.328,0.691-1.69,1.002c-18.097,15.485-36.23,30.929-54.186,46.577
			c-1.467,1.278-2.31,3.927-2.432,5.998c-2.161,36.743-4.131,73.496-6.231,110.242C2.385,297.794,1.607,304.893,1,312
			C1,208.455,1,104.91,1,1c37.999,0,76,0,114,0c-1.068,0.356-2.111,0.849-3.207,1.051C78.974,8.106,57.209,39.274,62.857,72.166
			c5.056,29.445,31.039,51.122,60.588,50.547c30.062-0.586,55.627-23.271,59.365-52.678c3.834-30.17-14.773-58.558-43.738-66.691
			C136.066,2.5,133.025,1.778,130,1c91.333,0,182.666,0,274,0c-1.242,0.367-2.463,0.852-3.729,1.086
			c-31.779,5.879-53.707,36.488-49.012,68.451c4.418,30.076,30.686,52.615,60.807,52.177c30.574-0.444,56.158-23.58,59.707-53.994
			c3.528-30.242-16.287-58.505-46.167-65.874C423.388,2.298,421.201,1.618,419,1c38,0,76,0,114,0c0,103.667,0,207.333,0,311
			c-0.31-1.784-0.801-3.559-0.901-5.355c-2.382-42.399-4.69-84.803-7.174-127.196c-0.108-1.854-1.31-4.115-2.729-5.349
			c-17.479-15.181-35.09-30.209-52.683-45.258c-0.837-0.715-1.821-1.256-2.888-1.979c-6.525,7.636-12.861,15.05-19.354,22.647
			c14.688,12.619,28.825,25.028,43.303,37.027c3.869,3.207,5.222,6.616,5.463,11.452c1.952,39.086,4.137,78.161,6.279,117.237
			c0.105,1.909,0.488,3.803,0.618,4.773c10.478,0,20.272,0,30.065,0c0,56,0,112,0,168c-25.666,0-51.334,0-77,0
			c-0.012-1.651-0.17-3.317-0.014-4.953c1.467-15.398,2.998-30.791,4.49-46.188c0.78-8.038,1.521-16.08,2.31-24.449
			c-10.242-0.943-19.925-1.835-29.952-2.759c-1.641,16.364-3.209,32.019-4.813,48.021c-10.522,0-20.489,0.106-30.445-0.148
			c-1.107-0.028-2.904-1.994-3.109-3.266c-0.792-4.916-1.048-9.916-1.54-14.882c-0.926-9.365-1.877-18.728-2.854-28.439
			c-10.338,1.039-20.012,2.012-29.965,3.012c0.862,8.879,1.694,17.124,2.457,25.376c1.499,16.224,2.959,32.45,4.436,48.676
			c-66.666,0-133.333,0-200,0c2.145-22.708,4.229-45.421,6.447-68.121c3.11-31.826,7.489-63.581,9.155-95.479
			c1.615-30.914,0.491-61.972,0.542-92.966c0.001-0.602-0.339-1.205-0.545-1.888c-9.808,0-19.398,0-29.53,0
			c0,2.046-0.001,3.828,0,5.611c0.012,26.832,0.048,53.663,0.005,80.495c-0.006,3.487-0.321,6.983-0.662,10.459
			c-2.779,28.345-5.599,56.685-8.404,85.026c-1.395,14.088-2.707,28.185-4.287,42.252c-0.17,1.513-1.845,4.056-2.884,4.088
			c-10.134,0.31-20.281,0.187-30.814,0.187c-7.699-76.027-18.384-151.446-13.12-228.02c-11.155,0-20.872,0-30.625,0
			c-0.127,1.012-0.293,1.668-0.279,2.32c0.823,39.779-1.911,79.608,2.821,119.341c3.879,32.573,6.705,65.274,9.884,97.93
			C75.961,462.142,76.911,475.077,78,488z M468.454,350.73c-38.278,0-75.978,0-114.106,0c8.748-39.493,17.405-78.576,26.152-118.064
			c-10.115-2.244-19.596-4.348-29.483-6.542c-11.5,51.835-22.892,103.183-34.351,154.826c63.605,0,126.322,0,189.482,0
			c-11.514-51.854-22.932-103.272-34.387-154.862c-10.05,2.255-19.552,4.388-29.461,6.61
			C451.084,272.334,459.741,311.409,468.454,350.73z M178.106,126.558c-6.735,7.863-13.08,15.272-19.569,22.849
			c1.733,1.558,3.061,2.799,4.439,3.981c13.525,11.61,27.127,23.132,40.505,34.91c1.748,1.538,3.216,4.325,3.354,6.621
			c1.955,32.588,3.639,65.192,5.433,97.79c0.518,9.403,1.175,18.799,1.792,28.575c10.285-0.565,19.867-1.092,29.563-1.625
			c0-3.384,0.135-6.347-0.022-9.294c-0.851-15.967-1.77-31.931-2.673-47.896c-1.552-27.439-3.069-54.881-4.75-82.313
			c-0.118-1.932-0.942-4.389-2.32-5.59C215.524,158.596,197.035,142.805,178.106,126.558z M375.525,149.481
			c-6.669-7.788-13.021-15.205-19.516-22.787c-1.639,1.31-2.949,2.292-4.189,3.354c-14.924,12.795-29.48,26.054-44.908,38.208
			c-7.34,5.781-9.605,12.222-9.985,21.119c-1.472,34.444-3.665,68.858-5.564,103.285c-0.491,8.902-0.892,17.809-1.35,27.037
			c10.392,0.522,20.089,1.011,29.798,1.5c0.193-1.825,0.341-2.813,0.396-3.808c2.268-40.412,4.575-80.821,6.704-121.241
			c0.19-3.625,1.161-6.19,4.06-8.492c5.867-4.658,11.443-9.683,17.128-14.569C357.162,165.298,366.215,157.496,375.525,149.481z"/>
		<path style="fill-rule:evenodd;clip-rule:evenodd;" d="M78,488c-1.089-12.923-2.039-25.858-3.295-38.765
			c-3.179-32.655-6.004-65.356-9.884-97.93C60.09,311.573,62.824,271.744,62,231.965c-0.014-0.652,0.152-1.309,0.279-2.32
			c9.753,0,19.469,0,30.625,0c-5.264,76.573,5.42,151.992,13.12,228.02c10.533,0,20.68,0.123,30.814-0.187
			c1.039-0.032,2.714-2.575,2.884-4.088c1.58-14.067,2.893-28.164,4.287-42.252c2.805-28.342,5.625-56.682,8.404-85.026
			c0.341-3.476,0.656-6.972,0.662-10.459c0.043-26.832,0.007-53.663-0.005-80.495c-0.001-1.783,0-3.565,0-5.611
			c10.132,0,19.722,0,29.53,0c0.206,0.683,0.546,1.286,0.545,1.888c-0.051,30.994,1.073,62.052-0.542,92.966
			c-1.667,31.898-6.045,63.653-9.155,95.479c-2.219,22.7-4.303,45.413-6.447,68.121C137.333,488,107.667,488,78,488z"/>
		<path style="fill-rule:evenodd;clip-rule:evenodd;" d="M130,1c3.025,0.778,6.066,1.5,9.072,2.344
			c28.964,8.134,47.572,36.521,43.738,66.691c-3.738,29.407-29.303,52.092-59.365,52.678c-29.549,0.575-55.532-21.102-60.588-50.547
			c-5.648-32.892,16.117-64.06,48.936-70.115C112.889,1.849,113.932,1.356,115,1C120,1,125,1,130,1z M122.656,92.295
			c16.912-0.032,30.391-13.539,30.406-30.47c0.016-16.737-13.795-30.537-30.511-30.485c-16.716,0.051-30.576,13.959-30.483,30.588
			C92.162,78.786,105.802,92.328,122.656,92.295z"/>
		<path style="fill-rule:evenodd;clip-rule:evenodd;" d="M419,1c2.201,0.618,4.388,1.298,6.606,1.846
			c29.88,7.369,49.695,35.632,46.167,65.874c-3.549,30.414-29.133,53.55-59.707,53.994c-30.121,0.438-56.389-22.101-60.807-52.177
			c-4.695-31.963,17.232-62.572,49.012-68.451C401.537,1.852,402.758,1.367,404,1C409,1,414,1,419,1z M410.871,92.282
			c16.902,0.251,30.699-13.018,31.061-29.872c0.357-16.646-13.121-30.602-29.997-31.059c-16.562-0.448-30.781,13.314-30.995,29.996
			C380.723,78.302,394.007,92.031,410.871,92.282z"/>
		<path style="fill-rule:evenodd;clip-rule:evenodd;" d="M1,312c0.607-7.107,1.385-14.206,1.792-21.325
			c2.1-36.746,4.07-73.499,6.231-110.242c0.122-2.071,0.965-4.72,2.432-5.998c17.956-15.648,36.089-31.092,54.186-46.577
			c0.362-0.311,0.828-0.497,1.69-1.002c6.341,7.392,12.694,14.797,19.394,22.606c-2.39,2.084-4.586,4.025-6.811,5.935
			c-12.638,10.851-25.376,21.587-37.828,32.646c-1.961,1.742-3.603,4.879-3.757,7.468c-2.318,38.901-4.357,77.819-6.479,116.732
			c-0.153,2.804-0.443,5.601-0.617,7.757C20.881,320,10.94,320,1,320C1,317.333,1,314.667,1,312z"/>
		<path style="fill-rule:evenodd;clip-rule:evenodd;" d="M533,320c-9.793,0-19.588,0-30.065,0c-0.13-0.971-0.513-2.864-0.618-4.773
			c-2.143-39.076-4.327-78.151-6.279-117.237c-0.241-4.836-1.594-8.245-5.463-11.452c-14.478-11.999-28.615-24.408-43.303-37.027
			c6.492-7.598,12.828-15.012,19.354-22.647c1.066,0.724,2.051,1.265,2.888,1.979c17.593,15.049,35.204,30.077,52.683,45.258
			c1.42,1.233,2.621,3.495,2.729,5.349c2.483,42.394,4.792,84.797,7.174,127.196c0.101,1.797,0.592,3.571,0.901,5.355
			C533,314.667,533,317.333,533,320z"/>
		<path style="fill-rule:evenodd;clip-rule:evenodd;" d="M367,488c-1.477-16.226-2.937-32.452-4.436-48.676
			c-0.763-8.252-1.595-16.497-2.457-25.376c9.953-1,19.627-1.973,29.965-3.012c0.977,9.712,1.928,19.074,2.854,28.439
			c0.492,4.966,0.748,9.966,1.54,14.882c0.205,1.271,2.002,3.237,3.109,3.266c9.956,0.255,19.923,0.148,30.445,0.148
			c1.604-16.002,3.173-31.656,4.813-48.021c10.027,0.924,19.71,1.815,29.952,2.759c-0.789,8.369-1.529,16.411-2.31,24.449
			c-1.492,15.396-3.023,30.789-4.49,46.188c-0.156,1.636,0.002,3.302,0.014,4.953C426.334,488,396.666,488,367,488z"/>
		<path style="fill-rule:evenodd;clip-rule:evenodd;" d="M468.454,350.73c-8.713-39.321-17.37-78.396-26.153-118.032
			c9.909-2.223,19.411-4.355,29.461-6.61c11.455,51.59,22.873,103.008,34.387,154.862c-63.16,0-125.877,0-189.482,0
			c11.459-51.644,22.851-102.991,34.351-154.826c9.888,2.194,19.368,4.298,29.483,6.542c-8.747,39.488-17.404,78.571-26.152,118.064
			C392.477,350.73,430.176,350.73,468.454,350.73z"/>
		<path style="fill-rule:evenodd;clip-rule:evenodd;" d="M178.106,126.558c18.929,16.247,37.418,32.038,55.75,48.01
			c1.378,1.201,2.202,3.658,2.32,5.59c1.681,27.432,3.198,54.873,4.75,82.313c0.903,15.965,1.822,31.929,2.673,47.896
			c0.157,2.947,0.022,5.91,0.022,9.294c-9.697,0.533-19.278,1.06-29.563,1.625c-0.617-9.776-1.274-19.172-1.792-28.575
			c-1.794-32.598-3.478-65.202-5.433-97.79c-0.138-2.296-1.606-5.083-3.354-6.621c-13.377-11.778-26.98-23.3-40.505-34.91
			c-1.378-1.183-2.706-2.424-4.439-3.981C165.026,141.83,171.371,134.421,178.106,126.558z"/>
		<path style="fill-rule:evenodd;clip-rule:evenodd;" d="M375.525,149.481c-9.311,8.015-18.363,15.816-27.427,23.606
			c-5.685,4.887-11.261,9.911-17.128,14.569c-2.898,2.302-3.869,4.867-4.06,8.492c-2.129,40.42-4.437,80.829-6.704,121.241
			c-0.056,0.994-0.203,1.982-0.396,3.808c-9.709-0.489-19.406-0.978-29.798-1.5c0.458-9.229,0.858-18.135,1.35-27.037
			c1.899-34.427,4.093-68.841,5.564-103.285c0.38-8.897,2.646-15.338,9.985-21.119c15.428-12.154,29.984-25.413,44.908-38.208
			c1.24-1.063,2.551-2.045,4.189-3.354C362.504,134.276,368.856,141.693,375.525,149.481z"/>
		<path style="fill-rule:evenodd;clip-rule:evenodd;fill:none;" d="M122.656,92.295c-16.854,0.033-30.494-13.509-30.588-30.367
			c-0.093-16.629,13.767-30.537,30.483-30.588c16.716-0.052,30.527,13.748,30.511,30.485
			C153.046,78.756,139.568,92.263,122.656,92.295z"/>
		<path style="fill-rule:evenodd;clip-rule:evenodd;fill:none;" d="M410.871,92.282c-16.864-0.251-30.148-13.98-29.932-30.935
			c0.214-16.682,14.434-30.444,30.995-29.996c16.876,0.457,30.354,14.412,29.997,31.059
			C441.57,79.265,427.773,92.533,410.871,92.282z"/>
	</g>
</g>
</svg>
