<?xml version="1.0" encoding="iso-8859-1"?>
<!-- Generator: Adobe Illustrator 16.0.0, SVG Export Plug-In . SVG Version: 6.00 Build 0)  -->
<!DOCTYPE svg PUBLIC "-//W3C//DTD SVG 1.0//EN" "http://www.w3.org/TR/2001/REC-SVG-20010904/DTD/svg10.dtd">
<svg version="1.0" id="Layer_1" xmlns="http://www.w3.org/2000/svg" xmlns:xlink="http://www.w3.org/1999/xlink" x="0px" y="0px"
	 width="302px" height="261px" viewBox="0 0 302 261" style="enable-background:new 0 0 302 261;" xml:space="preserve">
<g>
	<g>
		<path style="fill-rule:evenodd;clip-rule:evenodd;fill:none;" d="M303,156c0,35.29,0,70.58,0,106c-19.932,0-39.865,0-59.797,0
			c-79.236,0-158.474,0.006-237.71-0.042C3.995,261.957,2.498,261.333,1,261c14.89-20.183,29.78-40.365,44.881-60.834
			c-5.245-4.009-10.062-7.689-14.982-11.45c-3.734,4.964-7.088,9.423-11.221,14.916c0-45.701,0-90.047,0-134.737
			c50.419,0,100.612,0,150.961,0c0,38.683,0,77.042,0,115.918c-34.609,0-68.85,0-103.369,0c0,6.569,0,12.621,0,18.865
			c40.857,0,81.42,0,122.257,0c0-51.464,0-102.675,0-154.466c-2.209,0-4.164,0-6.118,0c-58.643,0-117.285,0.003-175.927-0.009
			C5.321,49.203,3.161,49.07,1,49C1,33.05,1,17.099,1,1c37.667,0,75.333,0,113,0c0,9.425,0,18.849,0,28.405
			c6.74,0,12.647,0,18.711,0c0.186-3.209,0.354-6.112,0.529-9.117c50.535,0,100.604,0,151.009,0c0,38.638,0,77.028,0,116.045
			c-25.126,0-50.012,0-74.929,0c0,6.683,0,12.73,0,19.217c2.347,0,4.322,0,6.298,0c27.149,0,54.3-0.009,81.45,0.02
			C299.046,155.571,301.023,155.85,303,156z M151.755,98.038c-37.85,0-75.244,0-112.959,0c0,6.307,0,12.375,0,18.448
			c37.843,0,75.353,0,112.959,0C151.755,110.282,151.755,104.482,151.755,98.038z M38.82,155.375c25.17,0,50.001,0,74.781,0
			c0-6.351,0-12.284,0-18.498c-25.004,0-49.715,0-74.781,0C38.82,143.207,38.82,149.254,38.82,155.375z M265.531,49.385
			c-18.943,0-37.465,0-56.146,0c0,6.32,0,12.362,0,18.518c18.836,0,37.354,0,56.146,0C265.531,61.68,265.531,55.771,265.531,49.385z
			 M265.551,88.383c-18.926,0-37.594,0-56.19,0c0,6.393,0,12.434,0,18.328c18.968,0,37.507,0,56.19,0
			C265.551,100.422,265.551,94.512,265.551,88.383z"/>
		<path style="fill-rule:evenodd;clip-rule:evenodd;" d="M1,49c2.161,0.07,4.321,0.203,6.482,0.203
			c58.642,0.012,117.285,0.009,175.927,0.009c1.954,0,3.909,0,6.118,0c0,51.791,0,103.002,0,154.466c-40.837,0-81.4,0-122.257,0
			c0-6.244,0-12.296,0-18.865c34.519,0,68.759,0,103.369,0c0-38.876,0-77.235,0-115.918c-50.349,0-100.542,0-150.961,0
			c0,44.69,0,89.036,0,134.737c4.133-5.493,7.487-9.952,11.221-14.916c4.921,3.761,9.737,7.441,14.982,11.45
			C30.78,220.635,15.89,240.817,1,261C1,190.333,1,119.667,1,49z"/>
		<path style="fill-rule:evenodd;clip-rule:evenodd;" d="M303,156c-1.977-0.15-3.954-0.429-5.932-0.431
			c-27.15-0.028-54.301-0.02-81.45-0.02c-1.976,0-3.951,0-6.298,0c0-6.486,0-12.534,0-19.217c24.917,0,49.803,0,74.929,0
			c0-39.017,0-77.407,0-116.045c-50.405,0-100.474,0-151.009,0c-0.174,3.005-0.343,5.908-0.529,9.117c-6.064,0-11.971,0-18.711,0
			c0-9.557,0-18.98,0-28.405c63,0,126,0,189,0C303,52.667,303,104.333,303,156z"/>
		<path style="fill-rule:evenodd;clip-rule:evenodd;" d="M151.755,98.038c0,6.444,0,12.244,0,18.448c-37.606,0-75.116,0-112.959,0
			c0-6.073,0-12.142,0-18.448C76.511,98.038,113.905,98.038,151.755,98.038z"/>
		<path style="fill-rule:evenodd;clip-rule:evenodd;" d="M38.82,155.375c0-6.121,0-12.168,0-18.498c25.066,0,49.777,0,74.781,0
			c0,6.214,0,12.147,0,18.498C88.821,155.375,63.991,155.375,38.82,155.375z"/>
		<path style="fill-rule:evenodd;clip-rule:evenodd;" d="M265.531,49.385c0,6.387,0,12.295,0,18.518c-18.793,0-37.311,0-56.146,0
			c0-6.155,0-12.197,0-18.518C228.066,49.385,246.588,49.385,265.531,49.385z"/>
		<path style="fill-rule:evenodd;clip-rule:evenodd;" d="M265.551,88.383c0,6.129,0,12.039,0,18.328c-18.684,0-37.223,0-56.19,0
			c0-5.895,0-11.936,0-18.328C227.957,88.383,246.625,88.383,265.551,88.383z"/>
	</g>
</g>
</svg>
