<?xml version="1.0" encoding="iso-8859-1"?>
<!-- Generator: Adobe Illustrator 16.0.0, SVG Export Plug-In . SVG Version: 6.00 Build 0)  -->
<!DOCTYPE svg PUBLIC "-//W3C//DTD SVG 1.0//EN" "http://www.w3.org/TR/2001/REC-SVG-20010904/DTD/svg10.dtd">
<svg version="1.0" id="Layer_1" xmlns="http://www.w3.org/2000/svg" xmlns:xlink="http://www.w3.org/1999/xlink" x="0px" y="0px"
	 width="187px" height="272px" viewBox="0 0 187 272" style="enable-background:new 0 0 187 272;" xml:space="preserve">
<g>
	<g>
		<path style="fill-rule:evenodd;clip-rule:evenodd;fill:none;" d="M103,1c28.299,0,56.597,0,84.947,0c0,90.667,0,181.333-0.002,272
			c-15.316,0-30.631,0-45.945,0c0.752-0.302,1.479-0.746,2.261-0.885c25.874-4.591,42.976-24.659,43.119-50.979
			c0.138-25.158,0.161-50.318,0.001-75.476c-0.25-38.958-22.685-72.079-58.632-86.968c-1.293-0.535-2.511-1.253-3.969-1.988
			c9.219-14.361,18.187-28.332,27.382-42.656c-4.818-3.107-9.334-6.021-14.078-9.08c-6.961,10.834-13.613,21.188-20.268,31.539
			c-6.621,10.3-13.242,20.598-20.166,31.365c3.951,0.821,7.189,1.513,10.434,2.165c36.704,7.382,62.318,38.093,62.641,75.509
			c0.217,24.99,0.154,49.985,0.006,74.977c-0.123,20.965-14.736,35.405-35.708,35.461c-27.157,0.072-54.316,0.076-81.474-0.001
			c-20.971-0.06-35.523-14.622-35.576-35.548c-0.062-24.992-0.096-49.985,0.006-74.977c0.147-36.078,24.616-66.584,59.776-74.714
			c4.247-0.982,8.503-1.923,13.183-2.979C80.155,50.972,69.775,34.804,58.853,17.792c15.249,0,29.338,0,44.147,0
			C103,11.898,103,6.449,103,1z M69.421,179.443c-0.156,0.922-0.338,1.415-0.306,1.894c0.884,12.981,12.376,23.523,25.438,23.357
			c13.545-0.173,24.628-11.097,25.159-24.801c0.502-12.932-9.987-24.779-22.885-25.872c-1.648-0.14-3.369-0.14-4.915-0.642
			c-4.134-1.34-6.232-4.33-6.003-8.696c0.207-3.943,2.441-6.627,6.151-7.59c4.129-1.072,7.567,0.349,9.746,4.173
			c0.646,1.133,1.063,2.396,1.551,3.519c5.455,0,10.727,0,15.998,0c-0.311-13.315-10.324-24.003-22.922-24.758
			c-13.756-0.825-25.349,8.453-27.224,21.791c-1.801,12.805,6.8,25.352,19.364,28.109c2.428,0.533,4.972,0.529,7.409,1.035
			c4.307,0.894,6.683,3.823,6.846,8.069c0.156,4.053-2.002,6.942-5.926,8.296c-4.051,1.398-7.201-0.138-9.588-3.343
			c-0.952-1.278-1.396-2.937-2.127-4.542C80.04,179.443,74.911,179.443,69.421,179.443z M102.439,111.247c0-5.855,0-11.083,0-16.452
			c-5.611,0-10.851,0-16.19,0c0,5.615,0,10.884,0,16.452C91.723,111.247,96.961,111.247,102.439,111.247z M86.199,229.912
			c5.724,0,10.939,0,16.229,0c0-5.596,0-10.791,0-16.107c-5.619,0-10.854,0-16.229,0C86.199,219.273,86.199,224.386,86.199,229.912z
			"/>
		<path style="fill-rule:evenodd;clip-rule:evenodd;" d="M103,1c0,5.449,0,10.898,0,16.792c-14.809,0-28.898,0-44.147,0
			c10.922,17.012,21.302,33.18,32.084,49.974c-4.68,1.056-8.936,1.996-13.183,2.979c-35.16,8.13-59.628,38.636-59.776,74.714
			c-0.102,24.991-0.068,49.984-0.006,74.977c0.052,20.926,14.605,35.488,35.576,35.548c27.158,0.077,54.317,0.073,81.474,0.001
			c20.972-0.056,35.585-14.496,35.708-35.461c0.148-24.991,0.211-49.986-0.006-74.977c-0.322-37.416-25.937-68.127-62.641-75.509
			c-3.244-0.652-6.482-1.344-10.434-2.165c6.924-10.768,13.545-21.065,20.166-31.365c6.654-10.352,13.307-20.705,20.268-31.539
			c4.744,3.06,9.26,5.973,14.078,9.08c-9.195,14.324-18.163,28.295-27.382,42.656c1.458,0.735,2.676,1.453,3.969,1.988
			c35.947,14.889,58.382,48.01,58.632,86.968c0.16,25.157,0.137,50.317-0.001,75.476c-0.144,26.32-17.245,46.389-43.119,50.979
			c-0.781,0.139-1.509,0.583-2.261,0.885c-31.666,0-63.333,0-95,0c-0.928-0.311-1.833-0.753-2.786-0.913
			c-20.906-3.522-36.969-18.491-41.78-38.944C2.027,231.411,1.481,229.713,1,228c0-30,0-60,0-90
			c0.319-1.271,0.749-2.527,0.942-3.818c5.334-35.641,24.529-60.688,57.454-75.263c1.449-0.642,2.889-1.305,4.614-2.085
			C51.798,37.899,39.899,19.45,28,1C53,1,78,1,103,1z"/>
		<path style="fill-rule:evenodd;clip-rule:evenodd;fill:none;" d="M28,1c11.899,18.45,23.798,36.899,36.01,55.834
			c-1.725,0.78-3.165,1.443-4.614,2.085C26.471,73.493,7.277,98.541,1.942,134.182C1.749,135.473,1.319,136.729,1,138
			C1,92.333,1,46.667,1,1C10,1,19,1,28,1z"/>
		<path style="fill-rule:evenodd;clip-rule:evenodd;fill:none;" d="M1,228c0.481,1.713,1.027,3.411,1.434,5.143
			c4.811,20.453,20.874,35.422,41.78,38.944c0.953,0.16,1.858,0.603,2.786,0.913c-15.333,0-30.667,0-46,0C1,258,1,243,1,228z"/>
		<path style="fill-rule:evenodd;clip-rule:evenodd;" d="M69.421,179.443c5.49,0,10.619,0,15.767,0
			c0.73,1.605,1.175,3.264,2.127,4.542c2.387,3.205,5.537,4.741,9.588,3.343c3.924-1.354,6.082-4.243,5.926-8.296
			c-0.163-4.246-2.539-7.176-6.846-8.069c-2.437-0.506-4.98-0.502-7.409-1.035c-12.564-2.758-21.165-15.305-19.364-28.109
			c1.875-13.338,13.468-22.616,27.224-21.791c12.598,0.755,22.611,11.442,22.922,24.758c-5.271,0-10.543,0-15.998,0
			c-0.487-1.123-0.904-2.386-1.551-3.519c-2.179-3.824-5.617-5.245-9.746-4.173c-3.71,0.963-5.944,3.646-6.151,7.59
			c-0.229,4.366,1.869,7.356,6.003,8.696c1.545,0.502,3.266,0.502,4.915,0.642c12.897,1.093,23.387,12.94,22.885,25.872
			c-0.531,13.704-11.614,24.628-25.159,24.801c-13.062,0.166-24.554-10.376-25.438-23.357
			C69.083,180.858,69.265,180.365,69.421,179.443z"/>
		<path style="fill-rule:evenodd;clip-rule:evenodd;" d="M102.439,111.247c-5.479,0-10.716,0-16.19,0c0-5.568,0-10.837,0-16.452
			c5.339,0,10.579,0,16.19,0C102.439,100.164,102.439,105.392,102.439,111.247z"/>
		<path style="fill-rule:evenodd;clip-rule:evenodd;" d="M86.199,229.912c0-5.526,0-10.639,0-16.107c5.376,0,10.61,0,16.229,0
			c0,5.316,0,10.512,0,16.107C97.139,229.912,91.923,229.912,86.199,229.912z"/>
	</g>
</g>
</svg>
