<?xml version="1.0" encoding="iso-8859-1"?>
<!-- Generator: Adobe Illustrator 16.0.0, SVG Export Plug-In . SVG Version: 6.00 Build 0)  -->
<!DOCTYPE svg PUBLIC "-//W3C//DTD SVG 1.0//EN" "http://www.w3.org/TR/2001/REC-SVG-20010904/DTD/svg10.dtd">
<svg version="1.0" id="Layer_1" xmlns="http://www.w3.org/2000/svg" xmlns:xlink="http://www.w3.org/1999/xlink" x="0px" y="0px"
	 width="217px" height="249px" viewBox="0 0 217 249" style="enable-background:new 0 0 217 249;" xml:space="preserve">
<g>
	<g>
		<path style="fill-rule:evenodd;clip-rule:evenodd;fill:none;" d="M1,194C1,129.738,1,65.477,1,1.107c72.333,0,144.666,0,217,0
			c0,12.922,0,25.907,0,38.893c-4.921,0-9.842,0-15.375,0c0,37.49,0,74.474,0,112.204c-1.977-1.357-3.188-2.171-4.379-3.01
			c-10.158-7.153-21.51-9.577-33.664-7.97c-20.285,2.684-36.459,19.405-39.306,40.268c-2.765,20.26,8.935,40.352,28.304,48.608
			c18.822,8.023,41.818,2.632,53.868-13.844c4.761-6.51,7.106-14.785,10.552-22.257c0,18.637,0,37.273,0,55.955
			c-72.334,0-144.667,0-217,0C1,237.293,1,224.646,1,212c0.604,1.5,1.309,2.968,1.796,4.504
			c7.569,23.87,31.923,37.456,56.109,31.273c20.675-5.285,34.816-23.828,34.87-46.22c0.103-42.973,0.082-85.946-0.056-128.918
			c-0.012-3.76,1.207-5.466,4.629-6.943c36.641-15.826,73.201-31.841,109.779-47.811c1.641-0.716,3.25-1.503,5.148-2.386
			c-2.141-4.836-4.113-9.292-6.114-13.813c-1.81,0.712-2.898,1.103-3.956,1.564c-40.084,17.502-80.135,35.076-120.291,52.41
			c-3.757,1.622-4.709,3.591-4.692,7.426c0.147,32.646,0.084,65.291,0.084,97.938c0,1.909,0,3.817,0,6.7
			c-1.964-1.343-3.009-2.052-4.048-2.768c-27.307-18.834-63.327-5.683-72.177,26.343C1.824,192.229,1.365,193.102,1,194z"/>
		<path style="fill-rule:evenodd;clip-rule:evenodd;" d="M1,194c0.365-0.898,0.824-1.771,1.081-2.7
			c8.851-32.025,44.87-45.177,72.177-26.343c1.04,0.716,2.084,1.425,4.048,2.768c0-2.883,0-4.791,0-6.7
			c0-32.646,0.063-65.292-0.084-97.938c-0.017-3.835,0.935-5.804,4.692-7.426c40.156-17.334,80.207-34.908,120.291-52.41
			c1.058-0.462,2.146-0.853,3.956-1.564c2.001,4.521,3.974,8.978,6.114,13.813c-1.898,0.883-3.508,1.67-5.148,2.386
			c-36.578,15.97-73.138,31.984-109.779,47.811c-3.423,1.478-4.641,3.184-4.629,6.943c0.138,42.972,0.159,85.945,0.056,128.918
			c-0.054,22.392-14.195,40.935-34.87,46.22c-24.186,6.183-48.54-7.403-56.109-31.273C2.309,214.968,1.604,213.5,1,212
			C1,206,1,200,1,194z M78.239,202.695c-0.034-17.329-13.79-31.022-31.118-30.976c-17.226,0.046-31.15,13.977-31.109,31.124
			c0.041,17.087,14.162,31.145,31.251,31.111C64.404,233.922,78.272,219.926,78.239,202.695z"/>
		<path style="fill-rule:evenodd;clip-rule:evenodd;" d="M218,194c-3.445,7.472-5.791,15.747-10.552,22.257
			c-12.05,16.476-35.046,21.867-53.868,13.844c-19.369-8.257-31.068-28.349-28.304-48.608c2.847-20.862,19.021-37.584,39.306-40.268
			c12.154-1.607,23.506,0.816,33.664,7.97c1.191,0.839,2.402,1.652,4.379,3.01c0-37.73,0-74.714,0-112.204
			c5.533,0,10.454,0,15.375,0C218,91.333,218,142.667,218,194z M171.562,218.266c17.247-0.033,31.169-13.963,31.104-31.117
			c-0.065-17.093-14.198-31.17-31.247-31.126c-17.043,0.045-31.186,14.251-31.129,31.269
			C140.346,204.46,154.318,218.299,171.562,218.266z"/>
		<path style="fill-rule:evenodd;clip-rule:evenodd;fill:none;" d="M78.239,202.695c0.034,17.23-13.835,31.227-30.976,31.26
			c-17.09,0.033-31.211-14.024-31.251-31.111c-0.041-17.147,13.883-31.078,31.109-31.124
			C64.449,171.673,78.205,185.366,78.239,202.695z"/>
		<path style="fill-rule:evenodd;clip-rule:evenodd;fill:none;" d="M171.562,218.266c-17.243,0.033-31.216-13.806-31.272-30.975
			c-0.057-17.018,14.086-31.224,31.129-31.269c17.049-0.044,31.182,14.033,31.247,31.126
			C202.73,204.303,188.809,218.232,171.562,218.266z"/>
	</g>
</g>
</svg>
