<?xml version="1.0" encoding="iso-8859-1"?>
<!-- Generator: Adobe Illustrator 16.0.0, SVG Export Plug-In . SVG Version: 6.00 Build 0)  -->
<!DOCTYPE svg PUBLIC "-//W3C//DTD SVG 1.0//EN" "http://www.w3.org/TR/2001/REC-SVG-20010904/DTD/svg10.dtd">
<svg version="1.0" id="Layer_1" xmlns="http://www.w3.org/2000/svg" xmlns:xlink="http://www.w3.org/1999/xlink" x="0px" y="0px"
	 width="268px" height="267px" viewBox="0 0 268 267" style="enable-background:new 0 0 268 267;" xml:space="preserve">
<g>
	<g>
		<path style="fill-rule:evenodd;clip-rule:evenodd;fill:none;" d="M269,60c0,69.261,0,138.521,0,208c-88.666,0-177.333,0-266,0
			c1.834-0.671,3.627-1.495,5.508-1.991c27.813-7.337,55.639-14.628,83.457-21.946c1.388-0.365,2.735-0.887,4.39-1.43
			c-1.47-5.477-2.826-10.526-4.271-15.911c-22.529,5.884-44.454,11.609-67.095,17.523c6.06-22.705,11.874-44.488,17.797-66.683
			c-5.638-1.465-10.842-2.816-16.167-4.199c-0.613,1.995-1.094,3.4-1.477,4.832c-7.357,27.463-14.692,54.932-22.078,82.387
			C2.563,262.439,1.696,264.196,1,266C1,177.667,1,89.333,1,1c70,0,140,0,210,0c-1.068,0.364-2.113,0.844-3.21,1.075
			c-13.056,2.749-23.31,9.8-30.491,18.622c24.106,24.452,47.793,48.478,71.482,72.507C259.597,83.325,260.643,81.613,269,60z
			 M68.13,152.438c30.13-29.678,59.405-58.514,87.715-86.398c-4.205-4.613-7.848-8.611-10.074-11.055
			c-35.171,34.639-70.469,69.402-106.067,104.462c12.978,5.064,25.61,10.651,38.683,14.871c9.07,2.928,14.07,8.038,16.996,17.09
			c4.218,13.054,9.854,25.65,15.233,39.328c29.617-30.465,58.705-60.384,87.357-89.856c-2.619-2.744-6.27-6.568-10.203-10.689
			c-23.438,23.225-46.902,46.475-70.897,70.25c-4.198-10.694-7.911-20.63-12.071-30.374c-0.902-2.113-3.104-4.26-5.23-5.164
			C89.797,160.746,79.837,157.025,68.13,152.438z M159.666,39.567c17.26,28.588,34.159,56.578,51.153,84.726
			c5.148-3.087,9.681-5.804,14.45-8.663c-17.143-28.405-34.055-56.428-51.118-84.702C169.185,33.89,164.649,36.595,159.666,39.567z"
			/>
		<path style="fill-rule:evenodd;clip-rule:evenodd;" d="M269,60c-8.357,21.613-9.403,23.325-20.219,33.204
			c-23.689-24.029-47.376-48.055-71.482-72.507c7.182-8.822,17.436-15.873,30.491-18.622C208.887,1.844,209.932,1.364,211,1
			c4.666,0,9.334,0,14,0c1.221,0.396,2.424,0.861,3.665,1.18c20.788,5.336,34.021,18.234,39.281,39.15
			c0.231,0.92,0.697,1.781,1.054,2.67C269,49.333,269,54.667,269,60z M201.996,22.066c15.309,15.541,30.526,30.988,45.691,46.383
			c7.549-12.477,5.493-29.191-5.121-40.131C231.98,17.407,214.515,14.928,201.996,22.066z"/>
		<path style="fill-rule:evenodd;clip-rule:evenodd;" d="M1,266c0.696-1.804,1.563-3.561,2.063-5.418
			c7.386-27.455,14.721-54.924,22.078-82.387c0.383-1.432,0.864-2.837,1.477-4.832c5.325,1.383,10.529,2.734,16.167,4.199
			c-5.923,22.194-11.737,43.978-17.797,66.683c22.642-5.914,44.566-11.64,67.095-17.523c1.445,5.385,2.801,10.435,4.271,15.911
			c-1.655,0.543-3.002,1.064-4.39,1.43c-27.818,7.318-55.644,14.609-83.457,21.946C6.627,266.505,4.834,267.329,3,268
			C2.333,267.333,1.667,266.667,1,266z"/>
		<path style="fill-rule:evenodd;clip-rule:evenodd;fill:none;" d="M269,44c-0.356-0.889-0.822-1.75-1.054-2.67
			c-5.261-20.916-18.493-33.814-39.281-39.15C227.424,1.861,226.221,1.396,225,1c14.666,0,29.334,0,44,0
			C269,15.333,269,29.667,269,44z"/>
		<path style="fill-rule:evenodd;clip-rule:evenodd;" d="M68.13,152.438c11.707,4.588,21.667,8.309,31.44,12.464
			c2.125,0.904,4.328,3.051,5.23,5.164c4.16,9.744,7.873,19.68,12.071,30.374c23.995-23.775,47.46-47.025,70.897-70.25
			c3.934,4.121,7.584,7.945,10.203,10.689c-28.652,29.473-57.74,59.392-87.357,89.856c-5.379-13.678-11.015-26.274-15.233-39.328
			c-2.925-9.052-7.925-14.162-16.996-17.09c-13.073-4.22-25.705-9.807-38.683-14.871c35.598-35.06,70.896-69.823,106.067-104.462
			c2.227,2.443,5.869,6.441,10.074,11.055C127.536,93.924,98.26,122.76,68.13,152.438z"/>
		<path style="fill-rule:evenodd;clip-rule:evenodd;" d="M159.666,39.567c4.983-2.973,9.519-5.678,14.485-8.64
			c17.063,28.274,33.976,56.297,51.118,84.702c-4.77,2.859-9.302,5.576-14.45,8.663C193.825,96.146,176.926,68.155,159.666,39.567z"
			/>
		<path style="fill-rule:evenodd;clip-rule:evenodd;fill:none;" d="M201.996,22.066c12.519-7.139,29.984-4.659,40.57,6.252
			c10.614,10.939,12.67,27.654,5.121,40.131C232.522,53.055,217.305,37.607,201.996,22.066z"/>
	</g>
</g>
</svg>
