<?xml version="1.0" encoding="iso-8859-1"?>
<!-- Generator: Adobe Illustrator 16.0.0, SVG Export Plug-In . SVG Version: 6.00 Build 0)  -->
<!DOCTYPE svg PUBLIC "-//W3C//DTD SVG 1.0//EN" "http://www.w3.org/TR/2001/REC-SVG-20010904/DTD/svg10.dtd">
<svg version="1.0" id="Layer_1" xmlns="http://www.w3.org/2000/svg" xmlns:xlink="http://www.w3.org/1999/xlink" x="0px" y="0px"
	 width="342px" height="342px" viewBox="0 0 342 342" style="enable-background:new 0 0 342 342;" xml:space="preserve">
<g>
	<g>
		<path style="fill-rule:evenodd;clip-rule:evenodd;fill:none;" d="M1,306C1,204.389,1,102.778,1,1.084c113.882,0,227.764,0,342,0
			c0,88.249,0,176.582,0,264.916c-0.33-1.265-0.842-2.514-0.961-3.798c-1.475-15.77-6.738-30.175-15.98-42.992
			c-16.224-22.499-38.357-34.357-66.035-35.822c-7.762-0.411-12.717,3.474-12.982,9.91c-0.266,6.411,3.649,10.617,10.894,10.902
			c18.586,0.729,34.563,7.354,46.61,21.598c12.49,14.768,19.558,31.563,15.697,51.522c-1.023,5.294,1.869,10.028,6.938,11.82
			c4.926,1.742,10.281-0.305,12.562-5.26c1.44-3.131,2.196-6.576,3.259-9.881c0,23,0,46,0,69c-18.666,0-37.334,0-56,0
			c1.064-0.438,2.114-0.92,3.197-1.308c13.002-4.654,21.059-16.219,20.283-30.032c-0.372-6.612-1.162-13.308-2.732-19.729
			c-9.291-37.99-45.395-66.292-83.513-65.792c-7.918,0.104-12.671,5.649-11.126,12.98c1.052,4.99,4.986,7.63,11.739,7.875
			c35.225,1.277,62.892,28.545,64.63,63.696c0.401,8.129-2.644,11.501-10.65,11.503c-81.964,0.02-163.928,0.021-245.892,0
			c-7.825-0.002-11.216-3.685-10.828-11.483c1.74-34.975,29.644-62.428,64.768-63.72c7.955-0.293,12.262-4.162,12.046-10.825
			c-0.204-6.298-4.849-10.062-12.372-10.022c-37.89,0.193-73.1,28.039-82.442,65.276C2.899,296.236,2.028,301.138,1,306z
			 M76.07,132.287c-0.03,34.32,9.122,59.908,26.051,78.639c12.603,13.944,27.897,23.202,46.932,24.954
			c26.742,2.463,47.787-8.6,63.943-29.056c19.893-25.188,25.939-54.271,21.308-85.665c-3.405-23.076-12.962-43.27-30.128-59.433
			c-27.376-25.777-66.513-26.668-94.656-1.782C85.91,80.821,76.753,108.116,76.07,132.287z M268.428,100.011
			c-0.914-7.935-1.426-14.921-2.6-21.794c-0.95-5.554-2.262-11.128-4.167-16.421c-9.325-25.904-24.909-46.386-51.657-56.077
			c-19.421-7.036-38.361-4.679-56.296,5.459c-5.243,2.963-7.102,8.103-5.167,13.17c1.829,4.79,7.158,7.673,12.188,6.328
			c1.894-0.506,3.642-1.604,5.415-2.512c9.34-4.779,19.192-6.605,29.542-4.705c17.854,3.279,30.229,14.229,39.027,29.367
			c12.172,20.944,14.83,43.506,9.932,67.087c-1.446,6.964,1.818,12.591,7.965,13.818c5.886,1.175,11.109-2.495,12.351-9.411
			C266.455,115.989,267.376,107.555,268.428,100.011z"/>
		<path style="fill-rule:evenodd;clip-rule:evenodd;" d="M1,306c1.028-4.862,1.899-9.764,3.108-14.58
			c9.342-37.237,44.552-65.083,82.442-65.276c7.523-0.039,12.168,3.725,12.372,10.022c0.215,6.663-4.091,10.532-12.046,10.825
			c-35.124,1.292-63.028,28.745-64.768,63.72c-0.388,7.799,3.003,11.481,10.828,11.483c81.964,0.021,163.928,0.02,245.892,0
			c8.007-0.002,11.052-3.374,10.65-11.503c-1.738-35.151-29.405-62.419-64.63-63.696c-6.753-0.245-10.688-2.885-11.739-7.875
			c-1.545-7.331,3.208-12.876,11.126-12.98c38.118-0.5,74.222,27.802,83.513,65.792c1.57,6.421,2.36,13.116,2.732,19.729
			c0.775,13.813-7.281,25.378-20.283,30.032c-1.083,0.388-2.133,0.87-3.197,1.308c-87.666,0-175.333,0-263,0
			c-4.494-2.654-9.974-4.446-13.234-8.178C6.578,330.029,4.173,323.679,1,318C1,314,1,310,1,306z"/>
		<path style="fill-rule:evenodd;clip-rule:evenodd;" d="M343,274c-1.063,3.305-1.818,6.75-3.259,9.881
			c-2.28,4.955-7.636,7.002-12.562,5.26c-5.068-1.792-7.961-6.526-6.938-11.82c3.86-19.96-3.207-36.755-15.697-51.522
			c-12.048-14.243-28.024-20.868-46.61-21.598c-7.244-0.285-11.159-4.491-10.894-10.902c0.266-6.437,5.221-10.321,12.982-9.91
			c27.678,1.465,49.812,13.323,66.035,35.822c9.242,12.817,14.506,27.223,15.98,42.992c0.119,1.284,0.631,2.533,0.961,3.798
			C343,268.667,343,271.333,343,274z"/>
		<path style="fill-rule:evenodd;clip-rule:evenodd;fill:none;" d="M1,318c3.173,5.679,5.578,12.029,9.766,16.822
			c3.26,3.731,8.741,5.523,13.234,8.178c-7.667,0-15.333,0-23,0C1,334.667,1,326.333,1,318z"/>
		<path style="fill-rule:evenodd;clip-rule:evenodd;" d="M76.07,132.287c0.684-24.171,9.84-51.466,33.45-72.343
			c28.143-24.886,67.28-23.995,94.656,1.782c17.166,16.163,26.723,36.356,30.128,59.433c4.632,31.394-1.415,60.478-21.308,85.665
			c-16.156,20.456-37.201,31.519-63.943,29.056c-19.035-1.752-34.329-11.01-46.932-24.954
			C85.191,192.195,76.04,166.607,76.07,132.287z M96.794,138.72c0.404,21.041,5.735,40.283,19.294,56.626
			c22.135,26.68,57.125,26.731,79.425,0.177c12.23-14.563,18.084-31.71,19.111-50.441c1.307-23.8-4.326-45.697-20.498-63.853
			c-22.418-25.17-56.028-24.518-77.724,1.27C102.72,98.76,97.3,117.964,96.794,138.72z"/>
		<path style="fill-rule:evenodd;clip-rule:evenodd;" d="M268.428,100.011c-1.052,7.544-1.973,15.979-3.468,24.31
			c-1.241,6.916-6.465,10.586-12.351,9.411c-6.146-1.228-9.411-6.854-7.965-13.818c4.898-23.581,2.24-46.143-9.932-67.087
			c-8.799-15.139-21.173-26.088-39.027-29.367c-10.35-1.9-20.201-0.074-29.542,4.705c-1.773,0.907-3.521,2.006-5.415,2.512
			c-5.03,1.345-10.359-1.538-12.188-6.328c-1.935-5.067-0.076-10.207,5.167-13.17c17.935-10.138,36.875-12.495,56.296-5.459
			c26.748,9.691,42.332,30.173,51.657,56.077c1.905,5.293,3.217,10.867,4.167,16.421C267.002,85.09,267.514,92.076,268.428,100.011z
			"/>
		<path style="fill-rule:evenodd;clip-rule:evenodd;fill:none;" d="M96.794,138.72c0.505-20.756,5.926-39.96,19.608-56.222
			c21.696-25.787,55.306-26.439,77.724-1.27c16.172,18.155,21.805,40.053,20.498,63.853c-1.027,18.731-6.881,35.878-19.111,50.441
			c-22.301,26.555-57.291,26.503-79.425-0.177C102.529,179.003,97.198,159.761,96.794,138.72z"/>
	</g>
</g>
</svg>
