<?xml version="1.0" encoding="iso-8859-1"?>
<!-- Generator: Adobe Illustrator 16.0.0, SVG Export Plug-In . SVG Version: 6.00 Build 0)  -->
<!DOCTYPE svg PUBLIC "-//W3C//DTD SVG 1.0//EN" "http://www.w3.org/TR/2001/REC-SVG-20010904/DTD/svg10.dtd">
<svg version="1.0" id="Layer_1" xmlns="http://www.w3.org/2000/svg" xmlns:xlink="http://www.w3.org/1999/xlink" x="0px" y="0px"
	 width="226px" height="226px" viewBox="0 0 226 226" style="enable-background:new 0 0 226 226;" xml:space="preserve">
<g>
	<g>
		<path style="fill-rule:evenodd;clip-rule:evenodd;fill:none;" d="M227,61c0,55.333,0,110.667,0,166c-75.334,0-150.667,0-226,0
			C1,151.667,1,76.333,1,1c55.333,0,110.667,0,166,0c-20.025,19.717-40.05,39.434-59.077,58.168
			c3.589,4.54,6.315,7.989,9.237,11.685c14.293-14.343,28.74-27.54,41.576-42.153c9.366-10.663,19.4-15.973,33.643-13.869
			c6.62,0.979,13.504,0.167,20.633,0.167c0,12.54,0.157,24.349-0.133,36.146c-0.058,2.333-1.268,5.18-2.905,6.846
			c-16.118,16.401-32.44,32.6-48.696,48.865c-1.263,1.264-2.451,2.602-3.384,3.596c3.23,3.521,6.196,6.751,9.767,10.642
			C187.674,100.824,207.337,80.912,227,61z M129.251,203.854c8.47-23.828,16.899-47.549,25.452-71.609
			c-4.605-1.618-8.636-3.034-13.098-4.603c-6.136,17.138-12.139,33.907-18.118,50.609c-10.713-10.662-20.957-20.857-31.507-31.357
			c11.06-11.446,22.362-23.145,33.916-35.102c-3.564-3.398-6.754-6.439-8.953-8.537c-12.408,11.266-24.334,22.094-35.505,32.236
			c-9.885-9.883-20.43-20.426-31.174-31.167c16.339-5.849,33.102-11.849,50.147-17.949c-1.679-4.682-3.119-8.697-4.689-13.076
			c-24.189,8.606-47.918,17.049-71.571,25.464C59.261,133.869,93.995,168.6,129.251,203.854z M1.882,225.259
			c0.297,0.287,0.594,0.574,0.891,0.86c26.164-11.646,52.328-23.292,78.707-35.034c-2.112-4.633-3.882-8.517-5.76-12.635
			c-15.401,6.81-30.348,13.419-45.295,20.028c-0.303-0.308-0.605-0.614-0.907-0.921c6.656-15.043,13.313-30.086,20.074-45.366
			c-4.563-1.988-8.46-3.688-12.741-5.553C25.06,173.146,13.471,199.203,1.882,225.259z"/>
		<path style="fill-rule:evenodd;clip-rule:evenodd;" d="M227,61c-19.663,19.912-39.326,39.824-59.34,60.092
			c-3.57-3.891-6.536-7.121-9.767-10.642c0.933-0.994,2.121-2.332,3.384-3.596c16.256-16.266,32.578-32.464,48.696-48.865
			c1.638-1.666,2.848-4.513,2.905-6.846c0.29-11.798,0.133-23.606,0.133-36.146c-7.129,0-14.013,0.812-20.633-0.167
			c-14.242-2.104-24.276,3.206-33.643,13.869C145.9,43.313,131.453,56.51,117.16,70.853c-2.922-3.695-5.648-7.145-9.237-11.685
			C126.95,40.434,146.975,20.717,167,1c20,0,40,0,60,0C227,21,227,41,227,61z"/>
		<path style="fill-rule:evenodd;clip-rule:evenodd;" d="M129.251,203.854c-35.256-35.254-69.99-69.984-105.1-105.091
			c23.653-8.415,47.382-16.857,71.571-25.464c1.57,4.379,3.01,8.395,4.689,13.076c-17.045,6.101-33.808,12.101-50.147,17.949
			c10.744,10.741,21.289,21.284,31.174,31.167c11.171-10.143,23.097-20.971,35.505-32.236c2.199,2.098,5.389,5.139,8.953,8.537
			c-11.554,11.957-22.856,23.655-33.916,35.102c10.55,10.5,20.794,20.695,31.507,31.357c5.979-16.702,11.982-33.472,18.118-50.609
			c4.462,1.568,8.492,2.984,13.098,4.603C146.15,156.305,137.721,180.025,129.251,203.854z"/>
		<path style="fill-rule:evenodd;clip-rule:evenodd;" d="M1.882,225.259c11.589-26.056,23.178-52.112,34.969-78.62
			c4.281,1.865,8.178,3.564,12.741,5.553c-6.761,15.28-13.417,30.323-20.074,45.366c0.302,0.307,0.604,0.613,0.907,0.921
			c14.947-6.609,29.894-13.219,45.295-20.028c1.877,4.118,3.647,8.002,5.76,12.635c-26.379,11.742-52.543,23.389-78.707,35.034
			C2.476,225.833,2.179,225.546,1.882,225.259z"/>
	</g>
</g>
</svg>
