<?xml version="1.0" encoding="iso-8859-1"?>
<!-- Generator: Adobe Illustrator 16.0.0, SVG Export Plug-In . SVG Version: 6.00 Build 0)  -->
<!DOCTYPE svg PUBLIC "-//W3C//DTD SVG 1.0//EN" "http://www.w3.org/TR/2001/REC-SVG-20010904/DTD/svg10.dtd">
<svg version="1.0" id="Layer_1" xmlns="http://www.w3.org/2000/svg" xmlns:xlink="http://www.w3.org/1999/xlink" x="0px" y="0px"
	 width="255px" height="261px" viewBox="0 0 255 261" style="enable-background:new 0 0 255 261;" xml:space="preserve">
<g>
	<g>
		<path style="fill-rule:evenodd;clip-rule:evenodd;fill:none;" d="M1,86C1,57.742,1,29.484,1,1c34,0,68,0,102,0
			c0,4.972,0,9.944,0,15.34c2.29,0.112,4.252,0.281,6.217,0.292c9.999,0.053,20.002,0.25,29.994-0.004
			c3.754-0.096,5.143,1.206,5.978,4.744c2.294,9.712,4.875,19.363,7.675,28.942c0.557,1.902,2.291,3.824,3.998,4.966
			c7.853,5.247,16.012,10.039,23.779,15.402c2.309,1.594,4.032,2.117,6.711,1.364c10.25-2.881,20.635-5.292,30.83-8.342
			c3.555-1.063,5.06-0.093,6.588,2.882c2.584,5.031,5.29,10.034,8.398,14.75c2.227,3.381,2.128,5.503-0.993,8.399
			c-8.059,7.478-15.788,15.317-23.45,23.205c-1.293,1.332-2.191,3.603-2.259,5.477c-0.339,9.438-0.048,18.905-0.628,28.322
			c-0.193,3.153,0.18,5.224,2.484,7.366c7.918,7.359,15.67,14.899,23.421,22.31c-4.571,7.892-8.587,14.588-12.341,21.429
			c-1.4,2.554-3.047,2.394-5.369,1.726c-9.433-2.714-18.869-5.437-28.396-7.781c-1.862-0.459-4.426,0.254-6.168,1.275
			c-7.58,4.442-14.823,9.479-22.521,13.692c-2.799,1.531-4.231,3.124-4.977,6.087c-2.476,9.841-5.299,19.596-7.719,29.449
			c-0.701,2.86-1.986,3.749-4.795,3.668c-6.328-0.183-12.669-0.241-18.995-0.046c-3.083,0.096-4.375-1.009-5.098-3.984
			c-2.239-9.213-4.651-18.391-7.321-27.487c-0.499-1.7-2.244-3.788-3.852-4.289c-11.616-3.619-22.057-9.222-31.457-16.951
			c-1.332-1.096-3.939-1.492-5.69-1.081c-8.417,1.979-16.78,4.222-25.084,6.636c-3.128,0.91-4.779,0.219-6.284-2.711
			c-2.888-5.622-6.07-11.106-9.404-16.479c-1.545-2.49-1.182-3.992,0.88-5.935c5.821-5.484,11.311-11.322,17.182-16.749
			c2.515-2.324,3.248-4.589,2.442-7.868c-2.622-10.667-2.88-21.495-0.67-32.213c0.86-4.174-0.199-6.69-3.128-9.494
			c-7.544-7.223-14.755-14.791-22.102-22.224c4.715-8.09,9.13-15.668,13.584-23.31c10.859,3.043,21.237,6.063,31.696,8.774
			c1.81,0.469,4.575,0.354,5.854-0.728c9.96-8.426,21.098-14.455,33.655-17.994c1.26-0.355,2.856-1.905,3.081-3.126
			c0.865-4.682,1.234-9.455,1.831-14.561c-5.46-0.703-10.48-1.349-16.211-2.087c1.346,6.505-3.051,7.515-7.106,9.313
			c-4.849,2.15-9.856,4.404-13.954,7.67c-5.132,4.09-9.801,4.565-15.935,2.487c-10.012-3.393-20.366-5.778-30.645-8.607
			C19.711,55.007,12.982,66.681,6.162,78.301C4.601,80.961,2.729,83.438,1,86z M167.158,131.396
			c-0.029-22.192-17.621-40.892-38.624-41.059c-22.872-0.183-42.486,18.799-42.427,41.056c0.059,22.42,18.327,40.566,40.834,40.563
			C149.039,171.951,167.189,153.646,167.158,131.396z"/>
		<path style="fill-rule:evenodd;clip-rule:evenodd;" d="M1,86c1.729-2.562,3.601-5.039,5.162-7.699
			c6.82-11.62,13.549-23.294,20.563-35.382c10.279,2.829,20.632,5.215,30.645,8.607c6.133,2.078,10.802,1.603,15.935-2.487
			c4.097-3.266,9.105-5.52,13.954-7.67c4.055-1.799,8.452-2.809,7.106-9.313c5.731,0.738,10.75,1.384,16.211,2.087
			c-0.597,5.105-0.966,9.879-1.831,14.561c-0.225,1.221-1.821,2.771-3.081,3.126c-12.557,3.539-23.694,9.568-33.655,17.994
			c-1.279,1.081-4.044,1.196-5.854,0.728c-10.459-2.711-20.837-5.731-31.696-8.774c-4.454,7.642-8.869,15.22-13.584,23.31
			c7.347,7.433,14.558,15.001,22.102,22.224c2.929,2.804,3.989,5.32,3.128,9.494c-2.209,10.718-1.952,21.546,0.67,32.213
			c0.806,3.279,0.073,5.544-2.442,7.868c-5.871,5.427-11.361,11.265-17.182,16.749c-2.062,1.942-2.425,3.444-0.88,5.935
			c3.334,5.372,6.517,10.856,9.404,16.479c1.505,2.93,3.156,3.621,6.284,2.711c8.305-2.414,16.667-4.657,25.084-6.636
			c1.751-0.411,4.358-0.015,5.69,1.081c9.4,7.729,19.84,13.332,31.457,16.951c1.608,0.501,3.353,2.589,3.852,4.289
			c2.67,9.097,5.082,18.274,7.321,27.487c0.723,2.976,2.015,4.08,5.098,3.984c6.326-0.195,12.667-0.137,18.995,0.046
			c2.809,0.081,4.094-0.808,4.795-3.668c2.42-9.854,5.243-19.608,7.719-29.449c0.745-2.963,2.178-4.556,4.977-6.087
			c7.698-4.213,14.941-9.25,22.521-13.692c1.742-1.021,4.306-1.734,6.168-1.275c9.527,2.345,18.964,5.067,28.396,7.781
			c2.322,0.668,3.969,0.828,5.369-1.726c3.754-6.841,7.77-13.537,12.341-21.429c-7.751-7.41-15.503-14.95-23.421-22.31
			c-2.305-2.143-2.678-4.213-2.484-7.366c0.58-9.417,0.289-18.885,0.628-28.322c0.067-1.874,0.966-4.145,2.259-5.477
			c7.662-7.888,15.392-15.728,23.45-23.205c3.121-2.896,3.22-5.019,0.993-8.399c-3.108-4.716-5.814-9.719-8.398-14.75
			c-1.528-2.975-3.033-3.944-6.588-2.882c-10.195,3.05-20.58,5.461-30.83,8.342c-2.679,0.753-4.402,0.229-6.711-1.364
			c-7.768-5.363-15.927-10.155-23.779-15.402c-1.707-1.142-3.441-3.063-3.998-4.966c-2.8-9.579-5.381-19.23-7.675-28.942
			c-0.835-3.538-2.224-4.84-5.978-4.744c-9.992,0.254-19.996,0.057-29.994,0.004c-1.964-0.011-3.927-0.18-6.217-0.292
			c0-5.396,0-10.368,0-15.34c17.667,0,35.334,0,53,0c3.091,11.383,6.342,22.726,9.195,34.167c1.193,4.782,3.063,8.285,7.962,10.352
			c3.917,1.651,7.479,4.356,10.839,7.045c2.634,2.108,4.986,2.416,8.178,1.512c11.352-3.216,22.826-5.996,34.169-9.237
			c2.961-0.846,4.462-0.46,5.876,2.346c2.391,4.746,5.16,9.306,7.854,13.895C245.352,70.07,250.688,79.028,256,88
			c0,0.333,0,0.667,0,1c-10.338,10.14-20.724,20.232-30.947,30.486c-1.102,1.105-1.705,3.126-1.783,4.759
			c-0.255,5.305,0.132,10.65-0.297,15.934c-0.307,3.774,0.436,6.548,3.325,9.217c8.665,8.005,17.067,16.293,25.544,24.443
			c-7.898,13.657-15.084,26.207-22.396,38.682c-4.977,8.487-2.626,7.198-11.679,4.79c-9.159-2.437-18.261-5.094-27.431-7.493
			c-1.793-0.469-4.266-0.971-5.598-0.137c-6.373,3.991-12.461,8.438-18.65,12.722C162.726,235.602,159.363,248.801,156,262
			c-17.334,0-34.667,0-52,0c-3.005-11.572-5.885-23.179-9.143-34.68c-0.525-1.854-2.453-3.713-4.216-4.741
			c-7.012-4.092-14.151-7.98-21.393-11.65c-1.821-0.923-4.355-1.434-6.286-0.975c-9.691,2.307-19.311,4.928-28.912,7.596
			c-2.783,0.773-4.463,0.486-6.028-2.344c-7.077-12.799-14.35-25.491-21.715-38.127c-1.518-2.604-1.43-4.243,0.836-6.382
			c6.894-6.509,13.625-13.195,20.243-19.985c1.222-1.254,2.271-3.312,2.281-5.004c0.045-8.621-0.182-17.249-0.55-25.864
			c-0.076-1.773-0.679-3.962-1.849-5.181C18.627,105.665,9.782,96.863,1,88C1,87.333,1,86.667,1,86z"/>
		<path style="fill-rule:evenodd;clip-rule:evenodd;fill:none;" d="M156,262c3.363-13.199,6.726-26.398,10.088-39.598
			c6.189-4.284,12.277-8.73,18.65-12.722c1.332-0.834,3.805-0.332,5.598,0.137c9.17,2.399,18.271,5.057,27.431,7.493
			c9.053,2.408,6.702,3.697,11.679-4.79c7.313-12.475,14.498-25.024,22.396-38.682c-8.477-8.15-16.879-16.438-25.544-24.443
			c-2.89-2.669-3.632-5.442-3.325-9.217c0.429-5.283,0.042-10.629,0.297-15.934c0.078-1.633,0.682-3.653,1.783-4.759
			C235.276,109.232,245.662,99.14,256,89c0,57.562,0,115.122,0,173C222.668,262,189.334,262,156,262z"/>
		<path style="fill-rule:evenodd;clip-rule:evenodd;fill:none;" d="M1,88c8.782,8.863,17.627,17.665,26.269,26.663
			c1.17,1.219,1.773,3.407,1.849,5.181c0.368,8.615,0.595,17.243,0.55,25.864c-0.009,1.692-1.059,3.75-2.281,5.004
			c-6.617,6.79-13.349,13.477-20.243,19.985c-2.266,2.139-2.354,3.777-0.836,6.382c7.365,12.636,14.638,25.328,21.715,38.127
			c1.565,2.83,3.246,3.117,6.028,2.344c9.601-2.668,19.22-5.289,28.912-7.596c1.931-0.459,4.465,0.052,6.286,0.975
			c7.241,3.67,14.381,7.559,21.393,11.65c1.763,1.028,3.691,2.888,4.216,4.741c3.258,11.501,6.138,23.107,9.143,34.68
			c-34.271,0-68.543,0-103,0C1,204,1,146,1,88z"/>
		<path style="fill-rule:evenodd;clip-rule:evenodd;fill:none;" d="M256,88c-5.313-8.972-10.648-17.93-15.928-26.922
			c-2.693-4.589-5.463-9.148-7.854-13.895c-1.414-2.806-2.915-3.191-5.876-2.346c-11.343,3.241-22.817,6.021-34.169,9.237
			c-3.191,0.904-5.544,0.597-8.178-1.512c-3.359-2.688-6.922-5.394-10.839-7.045c-4.899-2.066-6.769-5.569-7.962-10.352
			C162.342,23.726,159.091,12.383,156,1c33.334,0,66.666,0,100,0C256,30,256,59,256,88z"/>
		<path style="fill-rule:evenodd;clip-rule:evenodd;" d="M167.158,131.396c0.031,22.251-18.119,40.556-40.217,40.56
			c-22.507,0.004-40.775-18.143-40.834-40.563c-0.059-22.257,19.556-41.238,42.427-41.056
			C149.537,90.504,167.129,109.203,167.158,131.396z M126.869,106.668c-13.657-0.04-24.854,11.171-24.73,24.761
			c0.121,13.297,11.485,24.574,24.663,24.473c13.377-0.103,24.308-11.193,24.33-24.688
			C151.152,117.581,140.406,106.708,126.869,106.668z"/>
		<path style="fill-rule:evenodd;clip-rule:evenodd;fill:none;" d="M126.869,106.668c13.537,0.04,24.283,10.913,24.262,24.546
			c-0.021,13.494-10.952,24.585-24.33,24.688c-13.178,0.102-24.542-11.176-24.663-24.473
			C102.016,117.839,113.212,106.628,126.869,106.668z"/>
	</g>
</g>
</svg>
