<?xml version="1.0" encoding="iso-8859-1"?>
<!-- Generator: Adobe Illustrator 16.0.0, SVG Export Plug-In . SVG Version: 6.00 Build 0)  -->
<!DOCTYPE svg PUBLIC "-//W3C//DTD SVG 1.0//EN" "http://www.w3.org/TR/2001/REC-SVG-20010904/DTD/svg10.dtd">
<svg version="1.0" id="Layer_1" xmlns="http://www.w3.org/2000/svg" xmlns:xlink="http://www.w3.org/1999/xlink" x="0px" y="0px"
	 width="420px" height="429px" viewBox="0 0 420 429" style="enable-background:new 0 0 420 429;" xml:space="preserve">
<g>
	<g>
		<path style="fill-rule:evenodd;clip-rule:evenodd;fill:none;" d="M421,188c0,80.667,0,161.333,0,242c-140,0-280,0-420,0
			c0-80.667,0-161.333,0-242c2.157-0.093,4.313-0.265,6.47-0.266c50.299-0.015,100.598-0.063,150.896,0.086
			c3.991,0.013,5.695-1.081,6.983-4.952c14.744-44.33,29.708-88.586,44.607-132.863c4.389-13.042,8.76-26.091,13.162-39.201
			C215.154,7.427,207.577,4.214,200,1c73.666,0,147.334,0,221,0c0,53,0,106,0,159c-51.818-0.029-103.636-0.117-155.453,0.021
			c-4.165,0.011-5.701-1.257-6.678-5.183c-4.58-18.4-9.465-36.726-14.269-55.07c-2.6-9.927-5.258-19.839-7.975-30.078
			c-8.567,2.577-16.619,4.999-24.8,7.459c0.354,1.683,0.543,2.814,0.832,3.921c8.811,33.802,17.713,67.58,26.35,101.427
			c1.074,4.207,2.865,5.332,7.067,5.321c56.15-0.143,112.302-0.099,168.452-0.084C416.686,187.735,418.843,187.907,421,188z
			 M375.832,203.255c-32.959,17.084-65.391,33.895-97.858,50.724c12.994,37.109,25.772,73.604,38.985,111.339
			c-2.769-1.646-4.328-2.523-5.838-3.478c-31.803-20.111-63.643-40.166-95.344-60.437c-3.645-2.33-6.104-2.209-9.71,0.099
			c-31.697,20.276-63.54,40.326-95.343,60.437c-1.461,0.924-2.962,1.785-5.701,3.429c13.31-38.021,26.13-74.645,38.999-111.409
			c-32.795-16.989-65.107-33.727-97.851-50.688c-3.878,8.513-7.569,16.616-11.379,24.981c25.727,13.349,51.062,26.494,76.523,39.706
			C92.431,321.832,73.75,375.125,54.62,429.705c3.069-1.921,4.991-3.112,6.902-4.321c48.408-30.612,96.842-61.182,145.161-91.934
			c3.386-2.154,5.562-1.921,8.777,0.123c48.479,30.813,97.043,61.487,145.59,92.189c1.723,1.089,3.479,2.126,6.297,3.845
			C348.205,375,329.524,321.699,310.688,267.954c25.572-13.271,50.901-26.413,76.521-39.708
			C383.396,219.868,379.764,211.89,375.832,203.255z"/>
		<path style="fill-rule:evenodd;clip-rule:evenodd;fill:none;" d="M1,160C1,107.074,1,54.148,1,1c66,0,132,0,198,0
			c-0.612,1.541-1.298,3.058-1.826,4.627c-16.709,49.647-33.461,99.281-49.996,148.986c-1.415,4.253-3.367,5.422-7.738,5.407
			C93.293,159.874,47.146,159.971,1,160z"/>
		<path style="fill-rule:evenodd;clip-rule:evenodd;" d="M1,160c46.146-0.029,92.293-0.126,138.439,0.021
			c4.371,0.015,6.324-1.154,7.738-5.407c16.535-49.705,33.287-99.339,49.996-148.986C197.702,4.058,198.388,2.541,199,1
			c0.333,0,0.667,0,1,0c7.577,3.214,15.154,6.427,23.117,9.804c-4.401,13.11-8.772,26.159-13.162,39.201
			c-14.9,44.277-29.864,88.533-44.607,132.863c-1.288,3.871-2.992,4.965-6.983,4.952c-50.298-0.148-100.597-0.101-150.896-0.086
			C5.313,187.735,3.157,187.907,1,188C1,178.667,1,169.333,1,160z"/>
		<path style="fill-rule:evenodd;clip-rule:evenodd;" d="M421,188c-2.157-0.093-4.314-0.265-6.473-0.266
			c-56.15-0.015-112.302-0.059-168.452,0.084c-4.202,0.011-5.993-1.114-7.067-5.321c-8.637-33.847-17.539-67.625-26.35-101.427
			c-0.289-1.106-0.479-2.238-0.832-3.921c8.181-2.46,16.232-4.882,24.8-7.459c2.717,10.239,5.375,20.151,7.975,30.078
			c4.804,18.345,9.688,36.67,14.269,55.07c0.977,3.926,2.513,5.193,6.678,5.183C317.364,159.883,369.182,159.971,421,160
			C421,169.333,421,178.667,421,188z"/>
		<path style="fill-rule:evenodd;clip-rule:evenodd;" d="M375.832,203.255c3.932,8.635,7.563,16.613,11.377,24.991
			c-25.62,13.295-50.949,26.438-76.521,39.708c18.837,53.745,37.518,107.046,56.658,161.653c-2.818-1.719-4.574-2.756-6.297-3.845
			c-48.547-30.702-97.111-61.377-145.59-92.189c-3.215-2.044-5.391-2.277-8.777-0.123c-48.318,30.752-96.753,61.321-145.161,91.934
			c-1.911,1.209-3.833,2.4-6.902,4.321c19.131-54.58,37.811-107.873,56.695-161.748c-25.461-13.212-50.797-26.357-76.523-39.706
			c3.811-8.365,7.501-16.469,11.379-24.981c32.744,16.962,65.056,33.699,97.851,50.688c-12.869,36.765-25.689,73.388-38.999,111.409
			c2.738-1.644,4.239-2.505,5.701-3.429c31.804-20.11,63.646-40.16,95.343-60.437c3.606-2.308,6.066-2.429,9.71-0.099
			c31.701,20.271,63.541,40.325,95.344,60.437c1.51,0.954,3.069,1.831,5.838,3.478c-13.213-37.734-25.991-74.229-38.985-111.339
			C310.441,237.149,342.873,220.339,375.832,203.255z"/>
	</g>
</g>
</svg>
