<?xml version="1.0" encoding="iso-8859-1"?>
<!-- Generator: Adobe Illustrator 16.0.0, SVG Export Plug-In . SVG Version: 6.00 Build 0)  -->
<!DOCTYPE svg PUBLIC "-//W3C//DTD SVG 1.0//EN" "http://www.w3.org/TR/2001/REC-SVG-20010904/DTD/svg10.dtd">
<svg version="1.0" id="Layer_1" xmlns="http://www.w3.org/2000/svg" xmlns:xlink="http://www.w3.org/1999/xlink" x="0px" y="0px"
	 width="240px" height="279px" viewBox="0 0 240 279" style="enable-background:new 0 0 240 279;" xml:space="preserve">
<g>
	<g>
		<path style="fill-rule:evenodd;clip-rule:evenodd;fill:none;" d="M89,280c-29.333,0-58.667,0-88,0c0-55,0-110,0-165
			c4.894,1.33,9.787,2.661,15.034,4.087c8.133-33.054,16.141-65.601,24.269-98.636c32.758,9.493,65.044,18.85,97.707,28.315
			c1.263-5.434,2.363-10.172,3.494-15.042C105.786,23.35,70.845,13.209,35.917,3.027C34.225,2.534,32.637,1.684,31,1
			c70,0,140,0,210,0c0,63.667,0,127.333,0,191c-1.057-1.457-2.215-2.851-3.154-4.38c-25.695-41.852-51.368-83.718-77.051-125.577
			c-0.942-1.535-1.95-3.03-3.104-4.816c-4.396,2.561-8.504,4.954-12.961,7.55c25.167,40.78,50.12,81.215,75.26,121.95
			c-41.982,24.107-83.508,47.951-125.438,72.027c-22.804-42.098-45.366-83.751-68.084-125.691
			c-4.429,2.556-8.563,4.942-12.955,7.476c1.015,1.999,1.792,3.632,2.656,5.218c15.444,28.354,30.929,56.685,46.34,85.055
			C71.399,247.175,80.174,263.602,89,280z M124.052,100.257c-0.043-22.378-18.181-41.004-39.884-40.958
			C63.625,59.344,47.019,76.23,46.985,97.112c-0.036,22.483,17.835,40.961,39.679,41.023
			C107.722,138.196,124.092,121.61,124.052,100.257z"/>
		<path style="fill-rule:evenodd;clip-rule:evenodd;" d="M89,280c-8.826-16.398-17.601-32.825-26.491-49.189
			c-15.411-28.37-30.896-56.701-46.34-85.055c-0.864-1.586-1.641-3.219-2.656-5.218c4.391-2.533,8.526-4.92,12.955-7.476
			c22.718,41.94,45.281,83.594,68.084,125.691c41.93-24.076,83.456-47.92,125.438-72.027c-25.14-40.735-50.093-81.17-75.26-121.95
			c4.457-2.596,8.564-4.989,12.961-7.55c1.153,1.786,2.161,3.281,3.104,4.816c25.683,41.859,51.355,83.726,77.051,125.577
			c0.939,1.529,2.098,2.923,3.154,4.38c0,0.333,0,0.667,0,1c-34.709,19.901-69.436,39.771-104.117,59.719
			C121.209,261.733,105.625,270.901,90,280C89.667,280,89.333,280,89,280z"/>
		<path style="fill-rule:evenodd;clip-rule:evenodd;fill:none;" d="M90,280c15.625-9.099,31.209-18.267,46.883-27.281
			C171.564,232.771,206.291,212.901,241,193c0,28.939,0,57.879,0,87C190.667,280,140.334,280,90,280z"/>
		<path style="fill-rule:evenodd;clip-rule:evenodd;" d="M31,1c1.637,0.684,3.225,1.534,4.917,2.027
			c34.929,10.182,69.869,20.322,105.587,30.697c-1.131,4.87-2.231,9.608-3.494,15.042c-32.663-9.466-64.949-18.822-97.707-28.315
			c-8.128,33.035-16.136,65.582-24.269,98.636C10.787,117.661,5.894,116.33,1,115c0-0.667,0-1.333,0-2
			c0.34-0.528,0.855-1.015,0.997-1.592C11.017,74.61,20.007,37.805,29,1C29.667,1,30.333,1,31,1z"/>
		<path style="fill-rule:evenodd;clip-rule:evenodd;fill:none;" d="M29,1C20.007,37.805,11.017,74.61,1.997,111.408
			C1.855,111.985,1.34,112.472,1,113C1,75.667,1,38.333,1,1C10.4,1,19.7,1,29,1z"/>
		<path style="fill-rule:evenodd;clip-rule:evenodd;" d="M124.052,100.257c0.04,21.354-16.33,37.939-37.388,37.879
			c-21.843-0.063-39.715-18.54-39.679-41.023c0.034-20.882,16.64-37.769,37.183-37.813
			C105.871,59.253,124.009,77.879,124.052,100.257z M85.271,74.999c-12.518-0.325-22.733,9.64-23.085,22.52
			c-0.362,13.23,10.567,24.713,23.878,25.088c12.113,0.34,22.412-9.702,22.848-22.279C109.37,87.108,98.385,75.34,85.271,74.999z"/>
		<path style="fill-rule:evenodd;clip-rule:evenodd;fill:none;" d="M85.271,74.999c13.114,0.341,24.098,12.109,23.64,25.328
			c-0.436,12.577-10.735,22.619-22.848,22.279c-13.311-0.375-24.24-11.857-23.878-25.088C62.539,84.639,72.754,74.674,85.271,74.999
			z"/>
	</g>
</g>
</svg>
