<?xml version="1.0" standalone="no"?>
<!DOCTYPE svg PUBLIC "-//W3C//DTD SVG 1.1//EN" "http://www.w3.org/Graphics/SVG/1.1/DTD/svg11.dtd" >
<svg xmlns="http://www.w3.org/2000/svg" xmlns:xlink="http://www.w3.org/1999/xlink" version="1.1">
<metadata></metadata>
<defs>
<font id="north_faceregular" horiz-adv-x="1687" >
<font-face units-per-em="2048" ascent="1638" descent="-410" />
<missing-glyph horiz-adv-x="1384" />
<glyph horiz-adv-x="0" />
<glyph horiz-adv-x="682" />
<glyph unicode=" "  horiz-adv-x="1384" />
<glyph unicode="&#x09;" horiz-adv-x="1384" />
<glyph unicode="&#xa0;" horiz-adv-x="1384" />
<glyph unicode="!" horiz-adv-x="835" d="M76 1839q2 -20 8 -148t18 -368q20 -410 31 -457q6 -29 110.5 -108.5t143.5 -79.5h260q2 0 37 8q0 555 76 1008q-2 4 -8.5 12t-10.5 10q-78 49 -141 86t-111 60q-16 10 -27 17t-18 9l-6 -20q-68 -18 -164 -19q-31 0 -75.5 2t-104.5 7zM109 543q0 -16 3 -40t7 -57 q12 -66 12 -96q0 -14 -3 -32.5t-7 -43t-6 -43t-2 -28.5q0 -27 16 -37q125 -80 223 -166q76 4 132.5 7t93.5 3q-2 0 12 -1t43 -3q47 -4 72 0q34 5 34 21q0 23 -3 57.5t-7 81.5t-7 81t-3 56q0 68 8 115q-2 2 -119 88q-115 84 -119 84q-35 0 -110 -19q-78 -18 -119 -18 q-10 0 -27.5 2t-36 4t-36 4t-29.5 2q-23 0 -22 -22zM236 166q33 20 102 20h82q4 0 13 -1t24 -3q25 -2 39 0q20 2 32 19q-31 150 -30 211q0 94 30 94q14 0 31 -14q10 -6 16.5 -10.5t10.5 -6.5t19.5 -9t43.5 -22q41 -23 41 -47q0 -20 -4 -60t-4 -61q0 -37 6 -110q4 -37 6 -65 t2 -46l-18 -12q-264 0 -316 -6q-53 47 -84.5 80t-41.5 49zM244 831l10 13q20 2 34.5 3t24.5 1h37q23 0 51.5 -2t51.5 -2h36l13 16q0 29 -1 103.5t-3 197.5q-2 186 0 303q2 84 7 159t13 142l17 11q178 -62 178 -140q0 4 -3 -14t-8 -59q-20 -156 -33.5 -364t-23.5 -470 q-14 -14 -33 -14h-254q-25 0 -65 47q-35 41 -49 69z" />
<glyph unicode="&#x22;" horiz-adv-x="1396" d="M74 1473q0 -45 65 -105q68 -59 68 -72q0 -45 -33 -102q-31 -59 -31 -72q0 -35 93 -110q92 -74 131 -74q147 0 188 23q100 354 195 376q14 -8 25 -17t22 -20q0 -41 -31 -98q-39 -63 -45 -96l8 -14q66 -47 111 -87t73 -69q29 2 60 2h61q76 2 111 29q12 63 96 245 q80 169 80 179q0 29 -12 82q-10 57 -11 79q0 18 6.5 53t6.5 54q0 29 -94 96q-90 70 -132 70q-35 0 -108.5 -12.5t-110.5 -12.5q-96 0 -194 19q-6 -4 -10.5 -13.5t-7.5 -18.5t-6 -17.5t-7 -8.5q-20 0 -59 29t-62 29q-16 0 -43.5 -3.5t-64.5 -7.5q-35 -4 -62.5 -7t-46.5 -3 q-102 0 -203 19l-24 -17q4 -27 7 -52.5t3 -53.5q0 -37 -6 -111q-6 -72 -6 -110zM182 1407q0 12 31 23q2 0 4 2h2q55 -1 55 -19q0 -35 -24 -55q-41 0 -62 39zM225 1092q23 12 94 18q66 10 84 31q14 16 86 155q74 141 74 148q0 33 -12 98q-12 63 -12 98q0 43 18 84 q121 -41 121 -145q0 -10 -3 -26.5t-6 -35t-5 -35t-2 -28.5q-1 -37 28 -72l-98 -184q-57 -111 -74 -194q-20 -23 -84 -27q-25 -2 -49 -2h-49q-78 51 -111 117zM772 1421q16 8 49 9q49 -1 49 -21q0 -6 -4 -10q-16 -35 -47 -35q0 2 -28 27q-18 18 -19 30zM815 1085q20 18 90 25 q70 10 84 27q20 25 84 159q31 66 50.5 110t27.5 69q-25 82 -25 155q0 57 15 101q27 -2 67 -29q43 -25 43 -45q1 -193 19 -287q-139 -227 -172 -371q-78 -25 -123 -24q-20 0 -44 9t-46.5 24.5t-41 36t-28.5 40.5z" />
<glyph unicode="$" horiz-adv-x="1525" d="M29 1247q0 -119 102 -225q82 -88 211 -141l6 -15q-63 -25 -164 -22l-112 2l-17 -15q25 -172 25 -344q0 -66 -4 -122t-13 -107q125 -66 142 -80q8 -10 16 -20.5t17 -20.5q20 -27 43 -26q31 0 86 6q57 6 82 6q106 0 167 -88q33 -45 103 -45q-4 0 18.5 1t69.5 3q49 2 88 -6 q10 20 16 69q6 45 21 66q231 12 389 143q176 146 176 365q0 125 -47 207q-27 43 -100 110q-76 70 -107 135q25 4 34 6.5t5 2.5q2 0 94 -13l21 33q-47 131 -47 260q0 68 14 146q-51 76 -88 123t-64 67q-29 0 -110 -6q-35 -2 -61.5 -3t-47.5 1q-102 6 -211 82q-102 70 -135 67 l-74 -6l-28 -31l6 -51l-16 -32q-221 -27 -355 -140q-152 -129 -151 -342zM178 250q51 27 64 26q8 0 24.5 -2t40.5 -6q37 -6 66 -2q14 20 14 31q0 45 12 61q43 -6 90.5 -14t69.5 -41q0 -129 23 -151l139 2q14 20 22.5 63t22.5 64q213 -12 356 88q160 111 160 319 q0 168 -106 283q-18 20 -78 66t-162 122l14 15l64 6q16 0 41.5 -3t60.5 -7.5t59.5 -7.5t41.5 -3l10 23q-31 172 -31 276q0 92 18 158q10 -4 25.5 -14.5t36 -26.5t34 -28.5t17.5 -22.5q-23 -61 -22 -224q0 -78 20 -161q4 0 -13.5 1t-51.5 3q-27 2 -46.5 1t-35.5 -3 q-45 -6 -54 -25v-12q326 -215 326 -457q0 -225 -170 -360q-158 -127 -387 -127l-23 -35l7 -59l-29 -33q-35 2 -92 0q-35 -2 -58.5 -3t-33.5 -1q-35 37 -58.5 65.5t-40.5 48.5l-184 7q-35 0 -59.5 -1.5t-40.5 -3.5q-74 68 -103 105zM434 821q16 4 21 4q16 0 42.5 -10 t39.5 -12q14 -8 14 -17q6 -36 6 -73t-6 -51q-41 0 -86 51q-31 33 -31 108zM449 1389q0 10 11 24t21 14q61 0 62 -24q0 -8 2 -25.5t2 -25.5q0 -25 -17 -35q-27 6 -54 26.5t-27 45.5zM729 1729q0 12 4 24q10 -2 49 -29q37 -20 41 -28l-6 -4q-61 2 -82 26q-2 2 -6 11zM731 1315 q0 33 6 63q92 0 92 -166l-16 -4q-16 0 -33 9l-21 9t-11 5q-16 37 -17 84zM737 698q10 23 31 23q12 0 27.5 -8t28 -20.5t21.5 -28t9 -27.5q0 -45 -63 -45q-4 0 -12.5 1t-18.5 3q-16 12 -19 49q-2 14 -2 27q0 12 -2 26z" />
<glyph unicode="%" horiz-adv-x="1857" d="M31 1337q0 -516 422 -516q68 0 145 23l12 -27q-43 -72 -86 -144.5t-84 -144.5q-104 -182 -141 -297q20 -39 40.5 -75.5t43.5 -73.5q31 -43 162 -86q45 18 239 385q195 360 207 360l13 -12q27 -516 405 -516q168 0 293 109q125 106 125 280q0 270 -86 410 q-111 174 -369 174q-63 0 -127 -12l-14 14q4 8 34.5 65.5t90.5 167.5q100 182 100 207q-23 43 -45 86t-45 86q-53 66 -176 66q-106 -193 -186 -335t-136 -237l-12 -6l-12 6q-25 246 -103 359q-100 143 -335 143q-375 0 -375 -459zM291 901q221 0 325.5 97.5t104.5 314.5 q0 203 -100 366l12 11l45 -17q123 -109 123 -356h-2q0 -461 -353 -461q-88 0 -151 37zM309 1485q0 49 10 74q16 29 66 28q51 0 51 -289h-2q0 -125 -12 -168q-6 -20 -86 -20q-4 0 -11.5 10t-7.5 15q-8 33 -8 350zM379 203l70 -15q33 2 450 777q418 776 447 786q6 -8 16 -25.5 t24 -46.5q29 -57 29 -67q0 -8 -29 -56q-94 -143 -199.5 -328.5t-225.5 -414.5q-100 -193 -201 -383t-201 -383l-29 -6q-29 0 -104 39q-39 61 -47 123zM1276 283q221 0 322.5 98t101.5 315q0 211 -98 383q84 -12 143 -145q49 -111 49 -209h-2q0 -195 -84 -326 q-98 -154 -285 -153q-139 0 -147 37zM1284 786v25q0 23 2 61v78q10 16 47 17q43 0 60 -37q8 -12 14 -76q12 -102 12 -149h-2q0 -113 -14 -185q-2 -27 -82 -26q-23 0 -23 26q-8 43 -11 108.5t-3 157.5z" />
<glyph unicode="&#x26;" horiz-adv-x="1824" d="M37 575q0 -233 176 -403q180 -170 412 -170q119 0 295 68q172 70 161 69q27 0 64 -45q39 -45 69 -45q23 0 70 12q45 14 74 15l18 -1q19 -1 58 -5q35 -2 73 8q70 131 277 295l4 14q-4 4 -26.5 22.5t-63.5 53.5q-57 47 -72 92q8 25 66 82q49 47 53 70q-41 43 -73 82.5 t-52 78.5q-35 68 -59 93q-51 45 -195 114q2 27 35 117q25 70 24 127q0 238 -204 397q-188 147 -435 148q-199 0 -344 -101q-166 -115 -166 -301q0 -68 43 -180q43 -115 43 -162q-150 -96 -233 -231q-92 -147 -92 -314zM291 172q0 6 4 10q154 -41 237 -41q102 0 271 66 q172 66 155 65q29 0 52.5 -23t23.5 -52t-32.5 -43.5t-61.5 -24.5q-162 -84 -317 -84q-78 0 -152 21q-90 20 -137 63zM489 608q0 49 39 103q39 55 84 55q33 0 82 -70q43 -66 43 -86q0 -27 -59 -51q-61 -23 -90 -22q-31 0 -43 4q-6 4 -33 30q-23 29 -23 37zM700 1473 q0 84 74 83q37 0 67.5 -24.5t30.5 -61.5q0 -59 -81 -114q-51 8 -82 94q-6 6 -9 23zM1026 1016q0 4 4 20q205 168 205 408q0 25 -4 54.5t-12 64.5l-31 116q198 -81 198 -333q0 -47 -13 -98.5t-35.5 -100.5t-54.5 -93t-69 -75q-23 -23 -49 -48.5t-55 -27.5q-27 25 -51 51 q-33 33 -33 62zM1286 119q27 57 103 131q59 55 88.5 83.5t31.5 31.5l-4 22q-115 98 -151 176q23 37 84 90.5t86 83.5q-6 37 -70 121q-59 78 -59 141q23 -4 44 -7t44 -7q43 -16 63 -59q37 -76 72 -131.5t68 -94.5q-6 -37 -60 -71q-61 -39 -70 -66q23 -43 74 -90 q35 -33 54.5 -53.5t27.5 -28.5v-22q-168 -137 -227 -250q-12 0 -29.5 -1t-38 -2t-38 -2t-29.5 -1q-33 0 -64 6z" />
<glyph unicode="'" horiz-adv-x="747" d="M82 1489q41 -41 72.5 -70.5t52.5 -50.5q0 -35 -35 -88t-37 -82q76 -74 111 -98q68 -49 131 -49q20 0 61 3t62 3q14 35 26.5 68.5t26.5 68.5q60 145 113 213q0 14 -3.5 33.5t-7.5 48.5t-6 49.5t-2 34.5q0 18 8.5 53t8.5 53q0 4 -5 25q-23 14 -84 68q-47 41 -90 57 q-109 -23 -176 -23q-49 0 -101 6.5t-110 16.5l-12 -10q12 -72 12 -144q0 -45 -4 -91t-12 -95zM178 1458q0 23 33 23q8 0 22.5 4t20.5 4q14 0 14 -12q0 -43 -26 -62q-31 0 -60 35zM215 1190q23 12 96 14q57 2 80 49q4 6 20.5 39t45.5 92q55 113 55 115q0 14 -2 34.5t-6 47.5 q-6 55 -6 82q0 55 20 88q57 -16 74.5 -39.5t17.5 -81.5q0 -53 3.5 -105.5t11.5 -103.5q-23 -39 -44.5 -76.5t-43.5 -76.5q-47 -90 -58 -166q-20 -16 -78 -21q-41 -2 -62.5 -3t-23.5 -1q-96 78 -100 113z" />
<glyph unicode="(" horiz-adv-x="1064" d="M66 989q0 -449 61 -647q111 -358 448 -358q10 0 56.5 2t132.5 6q57 4 103 2t83 -6l47 18q-31 98 -30 205q0 88 18 172q-10 16 -112.5 81.5t-114.5 65.5l-43 -4l-31 21q-8 135 -11 332.5t-3 466.5l12 20q63 0 143 -20q35 -10 70 -18.5t70 -18.5l18 16q-29 96 -29 203 q0 111 25 215l-18 24q-16 4 -46 19.5t-73 38.5q-53 29 -152 28q-297 0 -440 -110q-125 -94 -162 -301q-23 -131 -22 -453zM268 170l4 10q20 0 64 -16q45 -16 57 -19q98 -18 209 -18q43 0 81 2t73 6l16 17q-12 178 -12 180q0 55 12 108l12 11q148 -44 148 -132 q0 -10 -2 -26.5t-3 -34.5t-3 -35.5t-2 -29.5q0 2 6 -146l-23 -22q-33 4 -72.5 5t-89.5 -1q-152 -6 -161 -6q-92 0 -185 32q-125 43 -129 115zM455 1327q0 131 96 131q2 0 15.5 -1t40 -3t46 -3t35.5 -1q80 0 80 23v28q0 27 -2 72v57q0 25 2 45q2 53 12 101l25 16 q119 -2 119 -147v-252l-13 -11q-10 2 -35.5 6.5t-66.5 14.5q-59 14 -102 14q-31 0 -58 -6l-18 -18l1 -109q1 -108 5 -326q2 -260 -6 -434q-29 -18 -76 -18q-35 0 -49 12q-47 41 -47 699q0 16 -2 53t-2 57z" />
<glyph unicode=")" horiz-adv-x="1116" d="M82 1829q25 -92 24 -187q0 -96 -20 -157q35 -41 62.5 -72t50.5 -47q33 -6 102 -6q63 2 102 -4l25 -21q25 -262 25 -583v-115q0 -27 2 0q-4 -68 -25 -111q-68 -29 -162 -28q-23 0 -53.5 2t-71.5 6l-30 -25q20 -80 20 -162q0 -84 -24 -159q35 -61 118 -111q90 -47 158 -47 q313 0 465 135q131 115 164 352q10 66 15 189t5 305q0 455 -166 655q-184 223 -645 224q-127 0 -141 -33zM188 1456q0 20 111 21q57 0 94 -19q2 -4 14.5 -6t12.5 -10q0 -37 -43 -37q-10 0 -30.5 3t-31.5 3q-10 0 -30.5 -3t-30.5 -3q-25 0 -39 14q-27 27 -27 37zM238 125 q348 20 467 137q125 119 124 473q0 358 -12 498q-29 315 -121 471q205 -88 267 -369q30 -141 30 -483q0 -383 -86 -557q-123 -252 -458 -252q-100 0 -127 6q-82 16 -84 76z" />
<glyph unicode="*" horiz-adv-x="913" d="M41 1380q0 -16 6 -37.5t15.5 -43t20.5 -40t23 -30.5q37 -35 148 -103q96 -57 137 -116q47 -66 133 -66q16 0 52 2t55 2q23 16 20 49l-4 72q35 10 27 10q8 0 19.5 -7t23.5 -16t23.5 -16.5t21.5 -7.5q12 0 55 68q43 70 43 88q0 33 -37 92q-37 57 -37 78q0 23 43 45 q43 20 43 49q-172 268 -239 279l-17 -13q-31 0 -106 51q-78 53 -164 54q-47 0 -51 -72q-6 -90 -21 -104q-16 2 -36.5 10t-47.5 22q-61 29 -86 35q-12 -10 -38 -59q-23 -49 -23 -66q0 -31 37 -82q39 -51 39 -63q0 -14 -33 -33q-39 -20 -45 -31zM184 1266q70 39 101 39 q2 2 4 -6.5t4 -21.5t3 -30.5t3 -29.5h-2q0 -27 -12 -35l-62 30q-35 18 -39 54zM383 1100q4 23 43 22q45 0 47 33v19q0 18 2 53q0 43 12 71q31 0 86.5 -26.5t94.5 -26.5q4 4 11 14.5t17 30.5q16 29 37 29q10 -14 21.5 -28.5t21.5 -28.5q29 -39 29 -64h-2q0 -51 -60 -86 q-27 0 -61 27q-33 25 -59 28q-16 -20 -17 -61v-19q2 -10 2 -20q0 -74 -71 -74q-66 0 -154 107zM465 1661l2 25q4 43 6 45q41 0 64 -37q0 -2 2 -5t2 -6h-2q0 -14 -14.5 -24t-28.5 -19q-33 0 -31 21zM598 1483q78 66 135 65q10 -10 21.5 -19t21.5 -20q31 -29 31 -45 q0 -6 -8 -16t-19.5 -19.5t-25 -15.5t-21.5 -6q-12 0 -33 10q-14 6 -28.5 12.5t-28.5 12.5q-35 18 -45 41z" />
<glyph unicode="," horiz-adv-x="880" d="M76 92q14 -16 33.5 -40.5t48 -57.5t49 -57.5t35.5 -40.5q270 -78 286 -78q20 0 33 20q6 10 66.5 155.5t177.5 428.5q-90 88 -135 166q-35 49 -70 67q-23 10 -83 33t-165 55q-20 -2 -26 -18q-39 -115 -56 -182q-72 -195 -184 -400q-4 -10 -7 -14l-3 -4v-33zM180 43 q33 0 105 -23q63 -20 102 -20q45 66 109 266q68 205 131 293q20 -4 73 -72q56 -68 56 -86q0 -25 -13 -49q-41 -80 -70.5 -139t-49.5 -100q-29 -78 -49.5 -137.5t-32.5 -100.5q-10 -18 -23 -18l-35 12q-20 8 -112 27q-35 8 -61.5 16t-43.5 16q-10 6 -23.5 19.5t-25.5 30 t-22.5 35t-14.5 30.5z" />
<glyph unicode="-" horiz-adv-x="1421" d="M78 797l22 -41q10 -4 55.5 -36t123.5 -89q131 -94 159 -94q78 0 238 18q162 18 242 18q33 0 81 -3t113.5 -11t112.5 -11t78 -3q24 -1 40 28q-23 119 -22 215q0 16 2 40t6 55q4 33 6 55.5t2 38.5q0 23 -82 80q-27 20 -53 38.5t-53 39.5q-16 14 -30.5 28.5t-31.5 30.5 q-47 45 -63 45q-39 0 -98.5 -4t-141.5 -12.5t-142 -12.5t-101 -4q-117 0 -225.5 7.5t-209.5 21.5l-24 -33q10 -70 15 -131t5 -115q0 -68 -24 -159zM242 750q-2 18 13 23t30 9q113 6 229 6q29 0 161 -4t367 -12l29 29q-8 88 -12 137t-4 61q0 61 14 111q35 -20 68.5 -39.5 t68.5 -40.5q74 -55 74 -123q0 -14 -2 -36.5t-6 -53.5q-4 -29 -6 -51.5t-2 -38.5q0 -72 8 -119l-15 -8q-168 8 -415 6l-416 -6q-29 0 -94 64q-23 23 -45.5 43t-44.5 43z" />
<glyph unicode="." horiz-adv-x="997" d="M82 743q0 -39 18 -120q18 -84 19 -129q0 -43 -15 -113q-12 -74 -12 -109q0 -4 139 -125q63 -53 103.5 -86.5t60.5 -50.5q70 8 129.5 11.5t108.5 3.5q59 0 126.5 -5.5t141.5 -15.5l14 19q-2 10 -5 45.5t-11 99.5q-12 88 -12 143q0 16 3 39t7 51q4 31 7 53.5t3 39.5 q0 59 -30 84q-8 6 -84 32q-29 8 -99 86q-68 70 -102 70q-39 0 -109 -21q-72 -18 -112 -18q-23 0 -55.5 6t-77.5 17q-90 23 -127 22q-8 0 -18.5 -10t-10.5 -19zM240 236q57 18 139 18q2 0 229 -18q12 4 24.5 7t12.5 13q0 16 -3 44t-7 65q-4 39 -7 66.5t-3 45.5q0 84 6 168 l16 17q35 -18 69 -37t68 -37q70 -49 70 -125q0 -121 4 -215t12 -166l-26 -23q-172 12 -174 13q-43 0 -125 -6q-84 -6 -127 -7q-16 14 -99 80q-63 49 -79 97z" />
<glyph unicode="/" horiz-adv-x="1222" d="M35 268q0 -96 90 -182q90 -84 188 -96q27 94 103 205q53 82 84.5 129t40.5 61q90 160 178 315.5t178 315.5q291 518 291 573q0 88 -60 170q-63 88 -151 88q-37 0 -100 -116q-20 -39 -41 -78t-41 -78q-84 -133 -418 -701q-342 -588 -342 -606zM86 168q109 0 231 188 q41 72 80 142.5t80 142.5q139 223 287.5 492.5t308.5 592.5q29 -4 49 -51q17 -42 17 -73q0 -37 -387 -719q-211 -369 -327 -579t-138 -265z" />
<glyph unicode="0" d="M72 956q0 -422 170 -669q199 -285 606 -285q397 0 598 289q172 247 172 665q0 403 -211 635q-219 244 -612 244q-395 0 -572 -250q-152 -217 -151 -629zM371 213l10 12q10 -2 52 -10t120 -25q106 -23 178 -22q332 0 498 225q147 199 147 543q0 500 -256 774l4 10 q264 -119 365 -309q86 -164 86 -483q0 -385 -162 -621q-186 -272 -557 -272q-289 0 -485 178zM592 889v301q10 242 61 250q39 8 92 8q82 0 103 -94q6 -35 6 -162q0 -514 -25 -614q-10 -43 -133 -43q-86 0 -98 43q-6 20 -6 311z" />
<glyph unicode="1" d="M276 1554l5 -129q29 -20 45 -20q57 0 90 -1t43 -3q66 -18 65 -101q0 -424 -6 -634q-29 -35 -74 -35q-68 0 -98 -10q-16 -78 -16 -345q0 -10 18 -47q147 -70 197 -106q16 -16 34.5 -33.5t36.5 -34.5q51 -49 78 -49q35 0 89.5 5t128 15.5t129 15.5t92.5 5q133 0 251 -22 l29 38q-31 137 -24 285l6 172q-12 27 -70 53q-55 27 -63 52q-12 39 -13 465q0 236 13 473q-8 16 -99 88q-90 70 -123 141q-31 63 -57 76l-31 -6q-25 -8 -66.5 -27.5t-101.5 -50.5q-102 -53 -174 -72q-49 -12 -151 -18q-51 -2 -87 -6.5t-59 -8.5l-22 -12q-16 -45 -15 -113z M498 221q0 16 16 23.5t31 13.5q80 8 155.5 12t147.5 4q29 0 69.5 -3l94.5 -7q55 -4 96 -6t68 -2q14 0 32 23q0 23 -3 54.5t-7 74.5t-7 75.5t-3 55.5l20 20q23 -10 46.5 -19.5t45.5 -19.5q45 -18 46 -94l2 -317l-17 -15q-123 6 -225 6q-219 0 -406 -34q-35 27 -85 65.5 t-117 89.5zM1008 1153q0 211 2 333t6 156q0 39 24 39q14 0 33 -26q8 -10 25.5 -23.5t44.5 -34.5q47 -34 63 -63q-4 -90 -7 -303t-3 -557q-29 -16 -113 -17q-29 0 -53 11q-10 113 -16 233.5t-6 251.5z" />
<glyph unicode="2" d="M96 246q0 -12 60 -56q20 -14 38.5 -27t38.5 -28q23 -18 43.5 -36.5t42.5 -39.5q66 -57 87 -57q51 0 129.5 7t187.5 22q217 31 328 30q74 0 221 -12q150 -12 223 -12q35 0 76 22q-4 33 -7 67t-3 69t4 87t12 119q8 70 12 122t4 87q-135 162 -166 215q-35 8 -52 11.5 t-13 3.5q-121 0 -152 14q12 43 90 207q57 115 58 229q0 240 -182 410q-176 162 -422 162q-125 0 -334 -56q-229 -59 -305 -123l-6 -325q0 -14 51 -21q63 -6 73 -14q23 0 54 -31q35 -29 53 -30l27 20q8 -2 26 -2t56 7t59 7q82 0 82 -69q0 -86 -127 -226 q-92 -98 -151.5 -168.5t-88.5 -115.5q-127 -211 -127 -469zM246 1382q23 29 88 58q70 29 106 28q150 0 150 -98q-41 -10 -73 -15t-54 -7q-37 -10 -64.5 -18.5t-44.5 -12.5q-90 43 -108 65zM252 199q6 76 532 75q90 0 273 -12q92 -4 159.5 -7t112.5 -3q35 0 60 194 q16 129 24 191.5t8 64.5q16 -4 35 -15t35 -27.5t28.5 -35t16.5 -36.5q-31 -104 -31 -281q0 -55 2 -105t6 -96l-12 -18q-141 10 -254.5 16.5t-204.5 6.5q-233 0 -413 -25q-16 -4 -99 -18q-59 -14 -96 -15q-43 0 -182 146zM686 655q10 57 135 170q170 152 230 230 q121 162 120 331q0 123 -43 256q177 -96 177 -372q0 -139 -68 -252q-41 -66 -129 -152q-74 -70 -76 -88q-2 -20 -4 -40.5t-4 -41.5q-8 -49 -44 -57t-91 -8q-37 -4 -98 0q-37 2 -60 2h-33z" />
<glyph unicode="3" d="M125 375l10 -29q57 -47 113.5 -93t113.5 -93q53 -41 105.5 -72t103.5 -47q123 -41 297 -41q276 0 469 119q228 141 228 403q0 295 -211 420q4 25 43 70q49 57 69 102q39 76 39 178q0 279 -252 439q-213 137 -510 137q-119 0 -274 -19q-174 -20 -270 -53q-2 -12 -5.5 -53 t-11.5 -113q-12 -102 -12 -166q0 -16 47 -34q16 -6 31.5 -12.5t32.5 -10.5q4 -2 25.5 -13.5t55.5 -31.5q27 -14 49.5 -22.5t39.5 -10.5q51 39 129 39q-10 0 5 -2t56 -6l35 -60q-51 -57 -150 -53l-135 6l-18 -12q-4 -86 -7.5 -164t-3.5 -149q0 -57 66 -123t74 -107l135 -12 q76 -14 80 -88q-63 -51 -139 -51q-80 0 -166 61q-104 74 -146 86l-26 -14q-4 -8 -19.5 -46t-44.5 -108q-20 -49 -33.5 -87t-17.5 -64zM315 1489q98 47 222 47q53 0 81 -6q27 -6 66 -41q39 -33 39 -62v-14q-12 0 -30.5 1t-43.5 3q-49 6 -71 6q-12 0 -31 -3t-38.5 -6t-36.5 -6 t-30 -3q-27 0 -73 29q-43 29 -54 55zM426 199l12 6q20 -2 61.5 -6t104.5 -15q53 -8 94 -12t74 -4q233 0 391 145.5t158 376.5q0 88 -21 184l15 5q186 -39 186 -336q0 -258 -190 -383q-162 -109 -432 -109q-168 0 -250 19q-141 33 -203 129zM489 852q0 41 78 41q59 0 131 -41 q80 -47 80 -102q0 -20 -8 -45q-59 27 -80 49q-2 2 -104 20q-66 12 -88 53q-4 12 -6 19zM1114 1075v19q178 156 178 333q0 37 -22 111q-20 70 -21 111q90 -47 146 -146q59 -102 59 -198q0 -193 -141 -293q-35 -25 -41 -25q-43 0 -83 30t-75 58z" />
<glyph unicode="4" d="M-10 750l14 -35q135 -88 193 -140q156 -6 237 -6l39 -26l4 -88q2 -45 -16 -207l12 -25q78 -25 186 -112q113 -88 160 -101q92 16 179 25.5t173 9.5q182 0 351 -41l37 31q-4 41 -10.5 84t-10.5 86q-6 51 -9 92t-1 76l2 71l47 35l82 -12l41 16q-4 45 -6 191q-2 59 -5 106 t-12 82q-47 37 -112 123q-68 92 -107 125q-10 47 -14 91t-2 85l6 111q-57 57 -95 96t-55 61q-33 43 -58.5 91.5t-41.5 101.5q-29 92 -55 111q-72 -41 -250 -41q-66 0 -146.5 8t-175.5 24l-28 -18q-47 -76 -90 -147.5t-84 -141.5q-29 -41 -74 -96t-107 -121 q-127 -135 -176 -209l-22 -35q4 -41 6 -83t2 -83t-2 -82.5t-6 -82.5zM164 682l22 12q16 2 39 2h56h81h134q39 0 22 2q125 -6 125 -45q0 -33 -18 -41h-404q-39 0 -57 70zM492 1083q0 6 2 17.5t2 17.5q8 10 25.5 33t45.5 61q39 55 76 91q10 4 10 16q11 -26 11 -102 q0 -84 -21 -134q-37 -12 -76 -12t-75 12zM610 213q-4 41 322 41q207 0 399 -35q27 14 35 35q-14 51 -14 119q0 18 5 71.5t15 143.5q-20 20 -57 20q-10 0 -34 -2t-34 -2q-51 0 -69 37q10 47 26 53q2 2 68 2q16 0 41.5 -1t60.5 -3t60 -2h43l24 25q-8 80 -8 135q0 57 4 92l12 6 q150 -63 146 -276l-2 -137q-12 -14 -97 -21q-72 -10 -71 -41v-154q0 -20 2 -47.5t6 -66.5q4 -37 6 -64.5t2 -46.5q0 -41 -18 -41q-53 0 -166 13q-111 12 -168 12q-86 0 -169 -6t-163 -21q-72 51 -123 92t-84 70zM1165 1468q0 80 6 160l19 4q41 -57 92 -120.5t111 -135.5 q6 -92 6 -276l-17 -25h-55q-18 -2 -33 -2h-22q-70 0 -94 31q-12 362 -13 364z" />
<glyph unicode="5" d="M117 627q0 -299 248 -473q221 -154 528 -154q301 0 489.5 178t188.5 481q0 164 -45 252q-27 49 -113 123q-82 70 -127 144q33 27 100 30q82 6 105 13q-37 94 -37 235q0 12 2 31.5t3 39t3 38t2 30.5q0 39 -122.5 149.5t-161.5 110.5q-45 0 -113 -6t-160 -20 q-184 -25 -278 -25q-109 0 -218.5 9.5t-222.5 25.5l-24 -18q4 -51 6 -104.5t2 -110.5q0 -121 -12 -351q-12 -231 -13 -350q4 -4 93 -57q70 -39 69 -64l-10 -18q-33 -4 -65.5 -10t-65.5 -11q-51 -14 -51 -118zM307 864q0 20 60 21q14 0 35.5 -1t50 -3t50 -3t36.5 -1 q12 0 44.5 57t80.5 57q118 0 118 -221q0 -16 -3 -44t-7 -62q-12 -82 -24 -103q-23 -41 -89 -41q-70 0 -100 88q-14 39 -24 150q-18 20 -50 20q-2 0 -12 -1t-31 -3q-29 -4 -43 2q-8 4 -20 14.5t-33 26.5q-39 33 -39 47zM473 147l12 13q84 -14 179 -15q291 0 477 146 q209 162 209 461q0 162 -56 313l9 18q113 0 176 -180q49 -139 49 -272q0 -293 -185 -449q-170 -150 -469 -149q-86 0 -219 28q-160 33 -182 86zM631 1372q0 74 33 76q88 10 221 16t313 6l23 19q8 39 6 115q0 78 6 114l16 19q29 -14 55.5 -28.5t55.5 -29.5q61 -37 61 -98 q0 -18 -6 -57t-6 -60q0 -33 6 -96q6 -65 6 -96l-12 -17q-31 0 -92 -6q-59 -6 -90 -6q-25 0 -142 39q-123 41 -223 41q-20 0 -47 -1t-59 -3q-41 -2 -69 -3t-40 -1q-16 23 -16 57z" />
<glyph unicode="6" d="M109 944q0 -422 170 -665q197 -279 598 -279q354 0 528 159t174 507q0 326 -203 440q23 23 58 22l13 -2t42 -6q33 -2 53 8q-14 88 -21.5 164t-7.5 140q0 37 2.5 69.5t6.5 61.5l-13 24q-72 29 -127 103q-33 37 -92 139q-49 2 -172 0q-109 -4 -170 6q-23 -41 -59 -41 q-45 0 -144 27q-102 29 -151 28q-252 0 -383 -346q-102 -264 -102 -559zM399 221q184 -70 377 -69q283 0 432 167q147 160 148 445q0 152 -43 293l16 4q121 0 176 -184q37 -123 37 -275q0 -281 -182 -428q-170 -135 -461 -135q-143 0 -278 39q-188 53 -222 143zM582 750 q0 176 161 176q35 0 54 -8q69 -25 69 -226q0 -215 -164 -215q-86 0 -102 72q-18 88 -18 201zM600 1253q0 240 141 240q39 0 88 -14q68 -23 68 -47q0 -16 12.5 -48.5t12.5 -50.5q0 -25 -17 -30q-27 -4 -47 -8.5t-37 -6.5q-92 -16 -149 -37l-56 -18q-16 0 -16 20zM1022 1288 l8 19q10 2 45 2t103 -6q35 -2 60.5 -3.5t41.5 -1.5q18 0 18 19q0 43 -6 139q-6 94 -6 141q0 49 23 78q23 -10 47 -25.5t47 -35.5q63 -51 63 -84q0 -10 -1 -29.5t-3 -48.5q-4 -53 0 -82q0 -25 6 -92q2 -29 3.5 -52.5t1.5 -39.5l-17 -10q-18 2 -47 2h-63h-111 q-137 88 -213 110z" />
<glyph unicode="7" d="M139 1270l17 -23q27 -10 80 -38.5t135 -75.5q150 -88 166 -89q74 0 79 -2q47 -10 48 -49q0 -10 -144 -336q-76 -174 -117 -272t-51 -127l6 -22q141 -70 250 -156q72 -57 131 -66q72 -14 363 -14q-10 0 59 16q16 739 379 1194q-2 31 -1 71t3 89q6 113 6 156q0 12 -98 157 q-100 145 -117 158q-152 -16 -296 -24.5t-285 -8.5q-45 0 -111 4.5t-156 12.5q-88 8 -153.5 12t-108.5 4q6 0 -5 -2t-40 -6v-57q0 -33 2 -74t2 -70v-47q0 -168 -43 -315zM342 1214q6 18 51 19h86t-18 -2q43 0 57 26q4 10 12 109q2 80 37 80q221 0 242 -10q10 -7 10 -23 q0 -35 -59 -164q-57 -121 -90 -153q-14 -2 -25.5 -3t-21.5 -1q-12 0 -33 2t-42.5 4t-42 4t-32.5 2q-45 35 -76.5 62.5t-54.5 47.5zM489 236q72 16 156 16q104 0 238 -25l32 33q104 633 422 1124q0 18 -3 45t-7 62t-7 62.5t-3 43.5q0 51 14 86q12 4 21 -2q8 -2 8 -10 l104 -123q-2 -53 -3 -133t-1 -188q-324 -434 -368 -1159l-19 -17q-154 8 -254 8t-149 -6q-121 98 -178 154zM1352 1681l8 -10z" />
<glyph unicode="8" d="M115 641q0 -295 245 -481q223 -168 529 -168q270 0 467 141q219 160 219 420q0 123 -61.5 226.5t-172.5 156.5l-8 20q221 135 221 357q0 266 -286 420q-238 123 -529 122q-231 0 -391 -122q-176 -135 -176 -361q0 -96 49 -176q70 -113 78 -145q-184 -182 -184 -410z M379 205q20 -4 166 -25q49 -8 91 -11t77 -3q229 0 399 98q201 121 201 336q0 78 -45 174q-43 100 -43 139q139 -16 221 -125q82 -106 82 -253q0 -229 -213 -371q-188 -127 -428 -127q-139 0 -275 39q-170 45 -233 129zM549 627q0 39 47 110q49 70 86 70q49 0 102 -62 q54 -63 54 -114q0 -25 -13.5 -44.5t-35 -33.5t-48 -21.5t-51.5 -7.5q-55 0 -94 25q-47 29 -47 78zM618 1419q0 55 52 88q47 29 102 29q37 0 64.5 -34.5t27.5 -71.5q0 -39 -39 -93q-41 -55 -73 -55q-45 0 -90 45q-43 45 -44 92zM1130 1004q0 16 48 73q29 37 49 68t35 57 q47 90 47 191q0 80 -47 186q-45 102 -45 92q0 14 6 27q115 -39 192 -160q78 -119 78 -244q0 -117 -90 -217q-90 -96 -207 -96q-25 0 -59 10q-4 2 -7 13z" />
<glyph unicode="9" d="M98 1221q0 -338 267 -480v-12q-37 -10 -52 -10q-27 0 -59.5 5t-46.5 5q-31 0 -76 -16l-4 -70q-18 -301 178 -477q186 -168 496 -168q428 0 622 262q166 228 166 674q0 399 -215 655q-229 272 -622 273q-653 0 -654 -641zM350 166q2 12 39 12q43 0 123 -20q86 -18 129 -19 q420 0 567 344q96 223 97 705q0 96 -45 244q-43 139 -97 229l13 10q172 -61 262 -336q67 -209 67 -442q0 -862 -729 -862q-113 0 -225 30q-137 41 -201 105zM512 694q59 20 103 31.5t73 15.5l41 13q47 -1 47 -52q0 -180 -110 -180q-39 0 -96.5 33t-57.5 139zM524 1241 q0 111 37 225q16 47 76 47h63q99 0 99 -186q0 -8 -2 -25.5t-2 -25.5q0 -143 -9 -166q-25 -68 -139 -68q-123 0 -123 199z" />
<glyph unicode=":" horiz-adv-x="587" d="M10 1227q29 -131 29 -160q0 -63 -27 -156q51 -45 98.5 -88t94.5 -84q184 18 180 19q106 0 166 -15l12 13q-18 76 -18 184q0 90 12 150q-6 6 -31.5 24.5t-72.5 50.5q-90 66 -99 66q-14 0 -36.5 -3t-51 -7t-50 -7.5t-36.5 -3.5q-57 0 -164 23zM12 492q27 -98 27 -179 q0 -25 -23 -133q2 -2 30 -24.5t81 -65.5q106 -84 117 -88q51 10 116 10q109 0 205 -18l15 14q-27 100 -27 248q0 49 6 102q-8 10 -33.5 29t-66.5 47.5t-66.5 45t-36.5 20.5q-111 -25 -170 -25t-163 27zM121 879q0 18 16 18q20 0 48 -1t67 -3t67.5 -3t47.5 -1q14 0 14 33 q0 16 -2 38.5t-6 53.5q-4 33 -6 56.5t-2 39.5q0 41 10 61q57 -18 98 -59q43 -47 43 -104q0 -14 -2 -46t-2 -49q0 -18 6 -58t6 -60q-16 -4 -12 -13q-53 2 -129 0q-102 -6 -129 -6q-31 0 -133 103zM123 147q0 18 22 19q18 0 46 -1t65 -3q39 -2 66 -2h49q14 0 14 28q0 16 -3 39 t-7 55.5t-6 56t-2 40.5q0 41 10 57q57 -14 100 -57t43 -98q0 -16 -2 -50t-2 -51q0 -10 2 -25.5t3 -34t3 -35t2 -26.5l-10 -8q-23 0 -55.5 -1t-75.5 -3t-74.5 -3t-54.5 -1q-20 0 -133 104z" />
<glyph unicode=";" horiz-adv-x="727" d="M37 121q12 -14 28.5 -34.5t39 -49.5t40 -49.5t27.5 -34.5q178 -53 252 -80l18 8q8 35 35 106.5t74 178.5l90 209q-25 41 -49.5 83t-50.5 83q-6 4 -162 57q-6 2 -51 25q-33 16 -52 16q-4 0 -26 -8q-31 -106 -90 -242q-29 -59 -55.5 -116.5t-53.5 -116.5q-6 -14 -9 -22.5 t-5 -12.5zM137 61q0 20 13 21q10 0 71 -29q55 -27 70 -26q20 0 37 55l73 221q61 164 103 189q14 -6 55 -60t41 -74q0 -18 -6 -32q-37 -80 -65.5 -139.5t-49.5 -98.5q-4 -8 -9 -28.5t-15 -53.5q-8 -27 -14.5 -45t-14.5 -29q-6 -14 -29 -14q-10 0 -35 10q-14 8 -22 12.5 t-12 6.5q-29 8 -57.5 16t-57.5 19q-76 27 -76 79zM145 1178q0 -12 2.5 -31t5.5 -39.5t6 -39.5t3 -32q0 -82 -12 -157q59 -53 103 -92t77 -62q41 4 128 0t220 -16l10 10q-18 131 -18 225q0 74 8 121l-12 12q-12 8 -68 43q-18 12 -34.5 26.5t-32 28t-29 22.5t-21.5 9 q-25 0 -80 -12q-57 -10 -82 -10q-10 0 -28.5 2t-40.5 6q-51 10 -68 10q-37 0 -37 -24zM238 858q0 18 90 19q29 0 84 -6.5t82 -6.5l10 21q-25 125 -25 162q0 63 31 92q39 -23 60.5 -35t25.5 -17q25 -18 34 -37.5t12 -44t3 -55.5q0 -29 2 -65q2 -47 3 -79t1 -46l-12 -8 q-135 12 -207 12q-14 0 -35.5 -1t-52.5 -3q-37 31 -63.5 55.5t-42.5 42.5z" />
<glyph unicode="?" horiz-adv-x="1122" d="M63 1743q2 -10 6.5 -46t12.5 -98q12 -90 10 -143l-2 -51q14 -20 121 -80q88 -51 88 -86q-74 -104 -74 -240q0 -375 441 -368l129 2l8 6q-14 45 -15 98q0 104 70 224q33 53 64.5 105t64.5 105q70 127 70 248q0 203 -158 324q-145 109 -352 108q-109 0 -244 -39 q-59 -16 -119.5 -34.5t-120.5 -34.5zM180 1409q0 47 113 47q86 0 86 -106q-8 -12 -19.5 -26.5t-21.5 -14.5q-23 0 -62 26q-16 10 -30.5 19.5t-28.5 19.5q-8 8 -22.5 13.5t-14.5 21.5zM268 522q0 -29 13 -90q14 -55 14 -90q0 -27 -12 -72q-10 -51 -11 -67q0 -25 115 -117 q115 -90 139 -90q14 0 37 2t55.5 6t55 7t39.5 3q39 0 81 -3t89 -7l8 12q-18 184 -19 183q0 35 7 102q4 35 6 59.5t2 40.5q-16 23 -215 146q-20 0 -51 -2t-72 -6t-72 -6.5t-53 -2.5q-12 0 -29.5 2.5t-37 5.5t-37 6t-27.5 3q-25 0 -25 -25zM395 145q0 18 23 29h65 q125 0 187 -6l14 16q-25 117 -25 205q0 10 1.5 26.5t3.5 39.5q6 6 16 8q51 0 104.5 -47t53.5 -101q0 -53 6 -133q4 -51 6 -84t4 -47l-16 -12q-25 4 -53.5 6t-61.5 2q-16 0 -41 -2t-59.5 -6t-60 -6t-42.5 -2q-23 0 -125 114zM578 805q0 100 71 225l135 215q72 133 72 258 q0 143 -121 248l25 10q113 -20 192 -129q74 -102 74 -221q0 -102 -72 -229q-33 -55 -65.5 -110.5t-65.5 -108.5q-72 -133 -71 -252q0 -31 -17 -41h-78q-80 0 -79 135z" />
<glyph unicode="A" horiz-adv-x="2101" d="M31 233l6 -14q111 -27 231 -121q113 -88 168 -98q-6 6 12.5 14.5t26.5 8.5q57 14 191 14q238 0 385 -41l12 6l-23 127l17 27q31 0 151 -78q119 -76 172 -76q29 0 97 21q71 22 105 22h3q37 0 92.5 -6t127 -20.5t124.5 -20.5t88 -6q41 0 43 76q2 23 1 56.5t-5 78.5 q-2 45 -3 76.5t-1 52.5q1 96 19 170q-147 37 -283 317q-121 250 -123 416q43 6 75 11t54 9l14 45q-14 51 -14 168t-14 168q-182 106 -297 228q-246 -49 -500 -49q-137 0 -348 18q-289 27 -346 31l-15 -394l-6 -6l31 2l88 15h3q48 0 48 -60q0 -98 -119 -442 q-123 -365 -178 -365q4 0 -13 4.5t-58 12.5l-17 -17q-4 -31 -7 -78t-3 -112q0 -127 -12 -191zM199 221q0 31 225 31q33 0 82 -3t115 -11q131 -12 194 -13q29 0 29 23q0 8 -9.5 34.5t-9.5 28.5l6 291q-43 20 -57 21h-45q-29 4 -29 24q0 57 242 58q139 -1 182 -52 q-29 -43 -61 -43q-25 0 -62 13q-26 -8 -26 -56q0 -36 -1 -81q-1 -46 -3 -107.5t-3 -107.5t-1 -76q0 -57 20 -125q-6 -12 -26 -13q-25 0 -62 3t-88 8q-49 4 -86 7t-63 3q-43 0 -119 -12q-78 -12 -117 -13q-27 0 -121 70t-106 98zM825 1024q0 39 13 92q14 70 43 70 q23 0 49 -70q24 -61 24 -92q-27 -4 -49 -7t-45 -3q-35 0 -35 10zM1096 242q0 26 60 26h5q432 0 611 -51q25 -8 40 -8q27 0 27 31q0 20 -4 48.5t-12 69.5t-12.5 72t-4.5 53q0 27 2 50.5t7 44.5q23 -2 106 -56q82 -51 82 -61v-74q0 -43 -2 -102.5t-2 -104.5v-74q0 -43 -43 -43 q-25 0 -61.5 4.5t-86.5 12.5q-96 18 -147 18q-25 0 -60.5 -4t-83 -12t-82 -11t-57.5 -3q-47 0 -161 65q-121 68 -121 109zM1343 1430q0 27 39 26q12 0 43 -5t43 -5q49 0 50 53q0 35 -13 100q-4 35 -7 59.5t-3 41.5q0 6 13.5 15t19.5 9q78 0 201 -135q6 -203 6 -205 q0 -84 -43 -84q-12 0 -36 6.5t-34 6.5q-33 0 -33 -41q0 -39 92 -299q43 -123 74 -203t49 -121q-12 -16 -57 -16q-86 0 -123 69l-49 142l-36 90t-91 229q-104 260 -105 267z" />
<glyph unicode="B" horiz-adv-x="1832" d="M72 567q0 -326 61 -350q43 -14 170 -115q106 -82 164 -82q53 0 133 -3t186.5 -7t185.5 -7t132 -3q197 0 414 131q243 152 243 334q0 176 -20 244q-18 72 -84 133l-90 82t-92 82q41 39 84 75.5t83 75.5q70 82 70 227q0 240 -231 369q-188 106 -449 107q-53 0 -134 -4.5 t-191.5 -12.5t-191.5 -12t-136 -4q-68 0 -126 3t-108 7q-8 -8 -20 -8q-6 0 -15.5 3t-11.5 3q-16 0 -16 -49v-260q0 -49 29 -90l63 18q6 2 11 2q44 0 46 -102l7 -654q0 -51 -43 -69q-18 -4 -40 -7t-40.5 -9.5t-30.5 -17.5t-12 -30zM262 223q20 14 303 15q29 0 79 -2.5 t122 -6.5t126 -6t93 -2q254 0 379 76q166 100 166 352q0 104 -59.5 206.5t-59.5 107.5q178 -117 223 -175q72 -94 72 -282q0 -184 -176 -324q-168 -131 -361 -131q-47 0 -115.5 5t-160.5 15.5t-159.5 15.5t-115.5 5q-12 0 -33.5 -3t-43 -7t-42 -7t-32.5 -3q-35 0 -111 61 q-80 63 -94 90zM713 1319q0 12 1 29.5t1 35.5t1 36t1 28q0 29 110 29q84 0 109 -11q33 -20 33 -98q0 -61 -11 -98q-10 -35 -149 -35q-59 0 -76 10q-20 14 -20 74zM717 709v104q27 31 119 31q133 -1 133 -60v-53q-2 -18 -2 -33v-22q0 -66 -90 -66q-18 0 -54.5 2t-52.5 2 q-53 0 -53 95zM1300 1763l56 6q57 -35 88 -49q207 -123 207 -348v-18q0 -201 -269 -330q-37 -16 -55 -16q-10 2 -18 10q8 16 41 49q53 53 94 143q41 94 41 162q0 221 -185 391z" />
<glyph unicode="C" horiz-adv-x="1732" d="M68 1012q0 -422 202 -701q231 -311 633 -311q270 0 496 131q266 156 266 410q0 18 -116.5 145t-129.5 127q-33 0 -79 -2t-105 -6q-121 -6 -184 -6h-45q-20 0 -41 2q-53 90 -54 246q0 117 54 213l14 6q25 0 117 -74l123 -98l-13 -13l29 -32q135 45 258 45q84 0 154 -21 q18 63 18 62q0 20 -4 52t-12.5 75t-12.5 74.5t-4 54.5q0 119 33 247q-47 33 -123 111q-70 74 -117 106q-98 -16 -184 -16q-68 0 -129 10q-31 -49 -61 -49q-66 0 -191 33t-194 33q-315 0 -473 -287q-125 -225 -125 -567zM455 217v12q176 -63 352 -63q297 0 438 104 q139 104 223 387l-6 21q12 0 82 -70q72 -68 72 -86q0 -223 -246 -364q-207 -119 -444 -119q-279 0 -471 178zM584 1036q0 190 34 295q59 164 218 164q35 0 79 -33q48 -34 48 -63q0 -12 -21 -45q-10 -20 -17 -32.5t-10 -18.5q-47 -166 -47 -297q0 -154 50 -285q2 -4 6 -12.5 t14 -24.5q14 -20 14 -39q0 -43 -49 -70q-49 -28 -89 -28h-3q-160 0 -205 184q-22 86 -22 287v18zM1143 1223q0 16 33 28q25 8 47 9q2 0 26.5 -1.5t71.5 -3.5h23q40 0 75 5q18 18 19 61q0 18 -3 46t-12 63q-12 70 -12 110q0 12 2 31.5t5 40t5 39t2 30.5q2 70 17 70 q10 0 82 -70q73 -68 73 -86q0 -14 -3 -36.5t-7 -55.5q-4 -31 -7 -54.5t-3 -39.5t1 -39.5t3 -56.5t3 -56.5t1 -39.5v-74q-20 2 -39.5 3t-40.5 1q-98 0 -245 -31q-86 66 -117 107z" />
<glyph unicode="D" horiz-adv-x="1843" d="M35 242l12 -23q186 -84 209 -98q8 -6 70 -70q53 -53 65 -53q514 0 678 18q352 45 528 222q211 213 211 659q0 233 -63.5 412.5t-185 301.5t-300 185.5t-407.5 63.5q-100 0 -299 -13q-100 -4 -174 -7t-125 -3q-55 0 -105.5 3t-97.5 7l-16 -18q15 -112 15 -210 q0 -76 -9 -144l22 -19q23 6 45 6q43 0 85 -22q14 -141 21 -262t7 -224q0 -78 -4 -157.5t-12 -165.5l-21 -23q-74 33 -110 33q-6 0 -33 -14q8 -63 11 -114.5t3 -90.5q0 -106 -20 -180zM240 184l57 35q41 0 98.5 -1t130.5 -3q76 -2 129 -2h88q428 0 600 135q229 180 230 701 q0 391 -201 620q176 -27 291 -313q92 -232 92 -445q0 -424 -190 -626q-156 -168 -482 -215q-78 -10 -238.5 -15.5t-406.5 -5.5q-31 0 -104 55q-57 43 -94 80zM733 762l2 700q0 29 56 29q37 0 112 -16q96 -23 96 -424q0 -414 -71 -437q-23 -6 -90 -6q-45 0 -66 6 q-23 27 -37 35q-2 4 -2 113z" />
<glyph unicode="E" horiz-adv-x="1855" d="M78 629q4 -47 7 -146.5t3 -253.5l184 -98q8 -4 99 -68q76 -55 92 -55q84 0 250 25q162 24 247 24h7q520 0 794 -49l4 66v13q0 49 -12 126q-8 47 -12 82t-4 57q0 27 3 64t7 88t7 89t3 62q-10 10 -34.5 33t-63.5 55q-59 51 -92 93q-39 -2 -78.5 -2t-79.5 2q-20 84 -20 161 q0 23 3 46.5t7 50.5l151 6q23 2 50.5 1t62.5 -5q51 -4 79 -7.5t34 -3.5q-33 182 -33 318q0 145 31 199q-27 20 -55.5 50.5t-57.5 71.5q-96 129 -98 136q-317 -20 -520 -29.5t-295 -9.5q-395 0 -658 53q-6 -74 -9 -128q-2 -32 -2 -58q0 -17 1 -31l6 -182l25 -5h67t-8 3 q33 -4 55 -19q29 -53 29 -274q0 -23 2 -62t6 -92t7 -92t3 -64q0 -238 -194 -241zM238 231q203 23 332.5 35.5t189.5 12.5q190 0 382.5 -12.5t395.5 -35.5q-25 264 -25 271q0 143 27 258l162 -119q-8 -53 -12 -115.5t-4 -132.5v-12q0 -155 24 -305q-53 0 -131 3t-182.5 11 t-183 11t-132.5 3q-53 0 -131 -6t-182 -16t-181 -15.5t-128 -5.5q-27 0 -117 72q-84 63 -104 98zM752 1368q0 94 57 96q51 2 85 3t52 1q29 0 49.5 -1t34.5 -3q47 -6 49 -8q14 -6 25 -37q24 -79 24 -104q0 -37 -14 -45q-2 -2 -47 -8q-35 -4 -56.5 -7.5t-29.5 -3.5h-37 q-20 0 -49 2q-57 4 -86 4q-27 0 -33 15q-10 20 -16 26q0 12 -4 35t-4 35zM758 743q0 53 14 113q51 2 100 2q51 0 103 2q160 6 174 25q-12 45 -12 114q0 178 32 236q29 47 107 47q8 0 24.5 -1t36.5 -1t40 -1t34 -1q76 0 148 12l4 60v18q0 42 -7 107q-4 45 -7 76.5t-3 50.5 q0 125 29 137q141 -129 151 -168q-22 -39 -22 -199v-14q0 -4 1 -19.5t3 -42.5q2 -25 3 -44t1 -35q0 -72 -22 -84q-16 12 -142 12q-113 0 -157 -6q-29 -4 -35 -21q-4 -14 -8.5 -22.5t-6.5 -12.5q8 -51 8 -103q0 -72 -16 -144q-33 0 -80 8t-75 8q-53 0 -54 -184v-15 q-78 -4 -136 -6t-99 -2q-59 0 -117 12q-14 29 -14 86z" />
<glyph unicode="F" horiz-adv-x="1798" d="M39 1477q25 -12 31 -13q8 0 21 1t26.5 3t25 3.5t15.5 1.5l55 -35q18 -102 18 -271q0 -8 1 -32.5t3.5 -65.5t3.5 -76t1 -63q0 -330 -123 -330q8 0 -8.5 2t-57.5 6q-4 -37 -6 -52t-2 -7q0 -31 12 -107q14 -70 15 -110q0 -55 -21 -90q2 -12 166 -127q162 -111 182 -111 q37 0 89.5 1t122 3t119.5 3t83 1q102 0 192.5 -7t170.5 -21q-23 86 -23 223q0 59 12 272q-63 33 -127 86l-4 51v7q0 36 17 94q36 20 64 20h7l205 -6q0 18 -6 78q-2 29 -3 52.5t-1 39.5q0 174 125 174q29 0 68.5 -3t93 -11t93 -11t66.5 -3q-4 37 -5 105v29q0 60 3 144 q2 44 2 82q0 116 -18 188q-35 27 -86 99q-51 68 -86 94q-53 41 -119 41q-45 0 -111.5 -4t-158.5 -12.5t-159 -12.5t-114 -4q-137 0 -407.5 24.5t-403.5 24.5l-35 -8q2 -14 3.5 -29.5t1.5 -33.5q0 -35 -7.5 -108t-21.5 -189zM207 190q8 39 129 50h156q207 0 413 -19 q12 156 13 385q-90 0 -183 12l-4 123q-2 18 2 42t12 53q41 10 50 10h309q18 43 18 92q0 14 -1 33.5t-3 46.5q-2 29 -2 47v33q0 166 160 166q74 0 280 -19q-14 92 -20 166t-6 133q0 70 14 154l37 -2q53 -86 125 -140q-15 -125 -15 -231q0 -113 17 -203q-61 -12 -96 -12h-70 q-35 0 -73.5 2t-61.5 3t-31 1q-31 0 -48 -4t-26.5 -16.5t-12.5 -36t-3 -62.5q-4 -139 -12 -219q-223 0 -273 -14l-14 -242q12 -4 27.5 -12t32 -17.5t32 -17.5t25.5 -10q16 -77 16 -155v-17l-6 -256q-121 16 -206 25.5t-136 9.5q-168 0 -389 -25q-59 45 -103 81t-73 62z M731 1360q0 66 31 72q102 22 187 22h7q109 0 136 -51q16 -37 16 -160h-363q-14 49 -14 117z" />
<glyph unicode="G" horiz-adv-x="2066" d="M59 932q0 -414 179 -656q203 -276 598 -276q53 0 155 18q100 18 152 19q37 0 61 -41q201 10 356 12h50q122 0 215 -8q18 49 18 59q0 29 -3 74t-11 105q-12 119 -12 182q0 72 16 141l25 4q49 0 122 -35q-1 14 -1 31t1 37q2 39 10.5 90t12.5 88t4 60q0 4 -14 45 q-133 70 -181 151q-40 74 -40 223v7q0 150 32 305q-53 57 -108.5 113.5t-108.5 113.5q-59 43 -334 43q-10 0 -18 -8t-16.5 -17.5t-17.5 -17.5t-19 -8q-68 0 -215 31q-135 32 -217 32h-5q-348 0 -532 -299q-154 -250 -154 -618zM295 295l14 18q187 -151 463 -151h4 q166 0 336 61q18 -53 217 -59q135 -4 201.5 -6t68.5 -2q27 51 27 61v64q0 43 -2 106q-2 53 -2 94v74q2 47 4 89t6 81q25 12 31 12q35 0 82 -20l35 20q-1 22 -1 42q0 109 19 155q100 -31 103 -33q47 -25 47 -86q0 -16 -2 -40.5t-6.5 -59.5t-6.5 -60.5t-2 -42.5q-31 -8 -28 -8 q-104 0 -121 -22q-6 -12 -6 -148q0 -66 6 -150.5t16 -189.5l-24 -41q-33 4 -68 6t-74 2q-31 0 -77 -2t-107 -6q-123 -6 -184 -6q-18 0 -27 31q-8 33 -29 37q-166 -72 -358 -72q-135 0 -313 68q-207 80 -242 184zM555 1024q0 160 59 289q76 166 217 166q16 0 39 -2t52 -7 q73 -8 77 -22q-41 -41 -71 -62q-100 -66 -133 -243q-18 -102 -19 -291q0 -53 29 -150q27 -90 63 -133q4 -16 -22 -16q-291 0 -291 471zM838 1022q0 133 39 235q55 141 163 142q53 0 86 -70q10 -29 18.5 -57.5t18.5 -57.5q2 -10 39 -47q29 -33 29 -51l-12 -16 q-82 8 -130.5 12t-62.5 4q-8 0 -55 -35q3 -31 3 -68q0 -90 -18 -214q16 -31 76 -35q66 -2 88 -19q8 -23 8 -43q0 -55 -35.5 -92t-91.5 -37q-119 0 -151 179q-12 70 -12 270zM1286 1163q49 12 100 13q12 0 35 -2.5t45.5 -5.5t45 -5t34.5 -2q10 0 25.5 9.5t15.5 19.5v229 q0 57 -2 0q2 66 6 124.5t15 105.5l12 4q10 0 27 -11q8 -4 12 -8l6 -6q6 -6 49 -35q29 -18 29 -57q0 -31 -12.5 -92.5t-12.5 -93.5q0 -16 1 -44t3 -65q6 -72 6 -108q0 -4 -6 -11.5t-14 -14.5t-16.5 -14.5t-10.5 -7.5q-47 -12 -231 -12q-57 0 -105 10q-10 10 -18 18.5 t-16 18.5q-23 27 -23 43z" />
<glyph unicode="H" horiz-adv-x="1961" d="M74 651q12 -389 37 -415q37 -16 170 -117q123 -92 133 -92h61q51 0 139 2q38 1 72 1h32q48 -1 87 -3q104 -4 203 -19l24 25q-4 42 -4 76q0 54 10 86q51 -20 125 -91q41 -41 70 -66.5t45 -35.5q115 16 190.5 25.5t114.5 9.5q37 0 111.5 -11.5t187.5 -33.5l4 35q0 4 -6 217 q-1 36 -1 69q0 83 7 152q-41 55 -98 74q-49 14 -66 61q-22 71 -22 281v18q0 145 12 291q40 36 92 36q14 0 29 -3l4 39v276l-6 59q-20 14 -38.5 28.5t-37.5 29.5q-45 35 -66.5 72.5t-41.5 76.5q-33 57 -60 58q-45 0 -129 -14.5t-133 -14.5q-104 0 -313 25l-35 -33 q0 -4 3 -27.5t7 -68.5q3 -26 3 -48q0 -29 -5 -51q-63 4 -141 115q-78 115 -160 115q-59 0 -166 -7q-109 -6 -160 -6q-127 0 -227 25l-20 -35q1 -12 1 -25q0 -61 -16 -143q-18 -115 -18 -164q0 -16 69 -18q82 -6 97 -21q8 -57 11 -131.5t3 -167.5q0 -248 -25 -493l-45 -21 l-94 17zM201 240q6 36 182 36h10q119 0 352 -36l23 32q-35 199 -35 488q0 26 78 26h6q88 0 135 -20l4 -6l5 6q20 -49 20 -172q0 -68 -18 -174q-10 -70 -17.5 -113t-9.5 -59q39 -33 39 -94q0 -78 -19 -91q-109 25 -245 25q-59 0 -135 -6t-170 -16q-90 78 -140.5 121.5 t-64.5 52.5zM750 1378q0 270 22 332l12 6q10 -2 103 -88q41 -39 66.5 -64.5t35.5 -39.5q0 -78 -18 -191q-22 -28 -69 -28h-3h-20t-29 2h-49q-6 0 -15.5 9t-16.5 20.5t-13 23.5t-6 18zM1114 219q31 39 189 39q154 0 327 -51l15 29q-8 57 -11.5 107t-3.5 95q0 109 21 193 q-16 31 -41 31q-14 0 -45 -5.5t-47 -5.5l-35 45q-4 100 -6 176t-2 127q0 244 34 437q23 4 46.5 6t46.5 4q40 10 40 67q0 132 7 156q141 -78 141 -164q0 -37 -6 -112q-2 -37 -3 -65t-1 -46q-84 -35 -105 -53q-18 -16 -18 -72v-55q2 -23 2 -43v-35q0 -35 1 -85t3 -120 q6 -139 6 -205q0 -68 55 -100q27 -14 53.5 -26.5t53.5 -26.5q-6 -54 -6 -130v-39q2 -100 14 -235l-27 -14q-78 14 -155.5 20.5t-159.5 6.5q-16 0 -39.5 -2t-56.5 -6.5t-56.5 -6.5t-39.5 -2q-152 98 -191 166z" />
<glyph unicode="I" horiz-adv-x="1222" d="M72 236q88 -41 164.5 -94.5t142.5 -116.5q35 0 89 2t126 6q137 6 213 6q195 0 342 -37l4 14q0 39 -14 99q-14 63 -15 102q0 10 7.5 73.5t21.5 186.5q-35 47 -84 62q-47 14 -63 53q-23 61 -23 237q0 53 6 152.5t21 245.5l41 26q24 -5 42.5 -5t30.5 5q8 51 12.5 124 t4.5 169q0 37 -117 176.5t-145 139.5q-39 0 -140 -23q-90 -20 -143 -20q-41 0 -97.5 5t-132 15t-131 16.5t-90.5 6.5q0 -27 -4 -78t-12 -127q-14 -166 -29 -172q51 -10 90 -19.5t66 -13.5q31 -78 31 -178q0 -139 -19 -348q-25 -279 -61 -312q-37 12 -66 13q-31 0 -63 -13 q8 -84 11 -140t3 -85q0 -106 -20 -153zM240 219q98 31 286 31q150 0 277 -19q6 -2 21.5 -5t37.5 -9q45 -10 60 -10q14 0 14 16q0 27 -6 86q-6 57 -6 90v84q4 59 30 60q27 0 74 -27q16 -10 35 -21.5t35 -21.5q-31 -117 -31 -231q0 -20 3 -66.5t11 -118.5q-4 2 -30.5 5.5 t-75.5 11.5q-33 4 -59.5 7t-47.5 3q-70 0 -204 -12q-68 -4 -118 -7.5t-83 -3.5q-37 0 -121 60q-80 55 -102 98zM756 1034q0 246 32 408q18 6 25 6q12 0 35.5 -7t38.5 -7q37 0 37 79q0 8 -1 23.5t-3 40.5q-1 22 -1 39.5t1 30.5q4 37 14 59q20 -10 42.5 -26.5t49.5 -37.5 q68 -54 68 -79v-111q0 -119 -17 -145l-12 -4q-12 0 -35.5 11t-38.5 11l-22 -16q-23 -367 -31 -664q-16 -18 -76 -18q-33 0 -59 6l-35 45q-12 236 -12 356z" />
<glyph unicode="J" horiz-adv-x="1671" d="M70 666q0 -283 213 -473q205 -184 491 -185q684 0 684 699q0 27 -2 92t-6 170q-3 80 -3 145t3 115q18 18 63 28q21 3 38 3t32 -3q16 62 16 314q0 8 -10 53q-27 16 -55.5 42t-56.5 60q-27 29 -51.5 59t-49.5 58q-55 14 -59 15q-29 0 -70 -5.5t-96 -15.5q-109 -18 -166 -18 q-33 0 -80 3t-110.5 11t-109.5 12t-79 4q2 0 -35 -16q9 -85 9 -162q0 -116 -21 -211q6 0 21.5 -5t21.5 -5q152 0 152 -164q0 -14 -1 -33.5t-3 -46.5q-2 -29 -3.5 -50t-1.5 -36l-6 -372l-34 -31q-29 4 -66 22.5t-84 46.5q-94 59 -119 60h-286l-56 -6q-24 -83 -24 -167v-7z M348 203l6 10q23 -2 64 -9t100 -20q51 -10 93 -15t75 -5q270 0 410 136q135 132 135 390v15l-10 733q12 33 47 32q12 0 40.5 -4t43.5 -4q31 0 47 15q-2 10 -4 32.5t-6 57.5q-6 51 -7 86q0 16 1 30.5t3 30.5q154 -86 154 -178q0 -35 -12 -117q-12 -96 -27 -98 q-14 -4 -28.5 -8t-30.5 -8q-43 -16 -43 -37q0 -74 6 -234t6 -239q0 -352 -108 -523q-145 -225 -525 -225q-262 0 -430 156zM483 698q0 45 21 45q12 0 24 -6l-12 8q12 -6 16 -10q41 -20 71 -35.5t50 -25.5q16 -8 28.5 -12.5t23 -8t10.5 -26.5q0 -35 -32 -55.5t-71 -20.5 q-61 0 -95 42t-34 105zM528 737l19 -12l-4 4l-11 6z" />
<glyph unicode="K" horiz-adv-x="1972" d="M66 1477q45 -18 43 -19q12 0 38.5 4t34.5 4l47 -26q8 -68 11.5 -141.5t3.5 -151.5q0 -127 -19 -504l-41 -29q-40 10 -66 10q-29 0 -40 -12q4 -45 7 -91t3 -93t-3 -93t-7 -91l16 -23q133 -49 307 -205q82 20 189 21q39 0 94 -4t131 -12.5t131 -11.5t94 -3l33 8q0 14 -2 45 t-2 47q2 10 4 22.5t6 23.5q68 -47 115 -83t76 -63q150 33 295 33q53 0 155 -19q53 -8 91 -12t65 -4l33 8q-28 94 -28 195q0 18 1 37l14 237q-6 25 -59 43q-51 20 -59 45q-10 35 -20.5 90.5t-18.5 128.5q-12 117 -51 170q-55 78 -209 138l-11 32q14 76 125 95l179 18 q-4 35 -6 74q-1 17 0 35q0 24 1 51q2 78 3.5 116.5t1.5 41.5q0 8 -6.5 25.5t-6.5 23.5q-143 104 -186 235q-102 12 -430 12q-70 0 -113 -88t-80 -88q-49 0 -149 86q-109 92 -137 99q-74 -37 -267 -37q-57 0 -129.5 6t-165.5 16l-28 -34q6 -70 6 -134q0 -25 -1 -47 q-3 -84 -13 -157zM211 223q45 41 244 41q207 0 413 -65l29 22q-31 106 -31 242q0 33 3 68.5t8 76.5q-16 16 -48 17h-16t-18 -2h-25q-31 0 -37 30q-2 6 -2 58q0 47 29 57q16 4 69 4q182 0 183 -51q0 -41 -3 -100.5t-7.5 -141.5t-7.5 -142.5t-3 -100.5q0 -27 20.5 -82.5 t20.5 -90.5q-55 -14 -43 -14q-59 0 -182 11q-121 12 -182 14q-41 0 -100.5 -1t-137.5 -3q-49 45 -93 82.5t-83 70.5zM727 1518v38q0 121 14 177q162 -81 162 -140q0 -53 -153 -233l-21 12v92q-2 31 -2 54zM1085 227q84 33 222 33q70 0 172 -12q168 -18 170 -19l34 25 q-10 51 -15 105.5t-5 113.5q0 106 14 166q-14 20 -43 20q-12 0 -35.5 -4t-35.5 -4q-39 0 -54 148q-4 49 -6 98t-6 96q10 16 27 17q102 0 159 -119q45 -90 46 -207v-90t2 -41q2 -16 30 -25q20 -8 41 -22t43 -37v-55q0 -33 -2 -80q-2 -45 -2 -80v-57q0 -37 2 -71t6 -66 q-20 -4 -28.5 -5.5t-3.5 -1.5q-20 0 -49 3t-70 12q-39 8 -69 11t-50 3q-27 0 -63.5 -4t-86 -12.5t-86 -12.5t-59.5 -4q-10 0 -41 31q-10 10 -19.5 20.5t-19.5 20.5q-72 57 -112 82zM1155 1155q8 20 96 154q88 129 105 141q14 12 61 12h17q14 0 34 -2q33 -2 54 0q31 0 49 8 q-4 45 -6 80t-2 58q0 66 12 96q147 -84 147 -168q0 -12 -2 -29.5t-5 -37t-5 -37t-2 -29.5q0 -14 3 -43t3 -43q0 -51 -86 -53q-117 -6 -129 -11q-8 -4 -22.5 -22.5t-34.5 -52.5q-37 -59 -78 -60q-12 0 -107 19q-100 18 -102 20z" />
<glyph unicode="L" horiz-adv-x="1630" d="M29 1479l57 -6l74 6q41 -63 47 -213v-232q0 -188 -12 -379l-43 -34q-27 6 -49 6q-28 0 -50 -9q0 -16 -2 -63t-6 -129q-6 -121 -6 -193q2 -2 30.5 -16t86.5 -43q70 -35 108 -68q2 -2 16.5 -17t43.5 -46q43 -45 59 -45q92 0 283 25q96 14 167.5 20t118.5 6q92 0 645 -37 q-2 33 -24 150q-8 47 -12.5 85t-4.5 66q0 27 6.5 63t16.5 83t16.5 82.5t6.5 60.5q-76 57 -187 211q-49 6 -149 12q-98 6 -148 13q-37 -33 -51 -103q-14 -68 -41 -94q-23 2 -44 6l-42 8q-14 92 -21.5 179.5t-7.5 173.5v112q6 68 33 101l51 4q49 4 86 5t60 3q-2 10 -2 22 q0 14 -2 31q2 -12 2 29v141q0 127 -13 162q-117 88 -151 149q-47 78 -68 78q-92 0 -260 -6q-170 -6 -252 -6q-92 0 -173 5t-154 15l-23 -32q-8 -152 -12 -237t-4 -105zM186 217l21 35q106 14 217 20.5t227 6.5q184 0 354.5 -15.5t329.5 -48.5l35 18q6 59 12.5 119t10.5 119 q20 188 47 211q16 -14 34.5 -26.5t36.5 -26.5q43 -35 43 -66q0 -49 -12 -149q-12 -102 -12 -152q0 -49 3 -95t11 -87l-24 -21q-166 16 -305.5 24.5t-256.5 8.5q-309 0 -550 -55q-16 10 -42 30.5t-63 51.5q-63 53 -108 80zM692 1157q0 150 13 301q25 27 59 27q12 0 31.5 -2 t41 -4t41 -4t31.5 -2l23 8q-8 63 -10 115q-1 17 -1 33q0 32 3 59l24 24q37 -25 61.5 -44t39.5 -34q41 -46 41 -114q0 -225 -19 -252q-25 -8 -158 -8q-33 -33 -39 -103q-2 -10 -2 -41v-76q0 -211 13 -268q10 -57 10 -80q0 -61 -77 -61h-5l-80 2l-28 22q-12 504 -13 502z" />
<glyph unicode="M" horiz-adv-x="2148" d="M74 1858q6 -129 6 -226q0 -94 -4 -159q27 -4 36 -7.5t3 -3.5q135 0 135 -215q0 -16 -1 -39.5t-3 -54.5t-2 -53v-33q0 -324 -19 -387q-8 -31 -65 -39q-68 -8 -84 -20l1 -49q1 -50 3 -148q1 -39 1 -75v-35q-1 -50 -5 -89l16 -16q37 -29 152 -98q100 -61 153 -105 q199 43 361 43q96 0 315 -37l14 39q-7 37 -8 69q0 39 11 73q57 -25 139 -91q49 -41 81.5 -66.5t49.5 -35.5q260 55 350 55q55 0 174 -28q57 -14 98 -20.5t66 -6.5h18q-20 90 -20 201q0 135 31 274q-20 29 -90 57q-68 29 -89 56q-4 45 -6 95t-2 108q0 39 1 96t3 133 q6 150 7 227q90 39 137 45q-11 94 -11 172q0 96 17 166q-39 39 -137 105q-98 68 -146 114q-73 -7 -168 -7q-38 0 -80 1q-117 4 -177 6t-68 2l-19 -6q-6 -6 -90 -166q-66 -121 -115 -127q-25 33 -85 78t-158 105q-201 125 -273 125q-39 0 -102.5 -14.5t-99.5 -14.5 q-43 0 -125 12q-41 8 -73 11.5t-54 3.5zM178 227q31 43 228 43q35 0 86 -4t122.5 -12t117.5 -12t67 -4q23 0 32 6q2 16 3 35v45l-3 297q-18 18 -40 18q-72 0 -84 27q-4 12 -5 96q0 16 1.5 41.5t3.5 60.5l12 10q20 -10 104 -141q80 -123 107 -123q31 0 108 123 q90 139 115 160q14 -55 14 -129q0 -72 -14 -127q-31 -8 -27 -8q-16 0 -46.5 10t-47.5 10q-23 0 -39 -16q4 -66 7.5 -166t3.5 -236q29 -84 34 -122l-16 -52q-227 31 -307 31q-57 0 -318 -31q-72 59 -126 101.5t-93 68.5zM682 1712q139 -25 215 -82q35 -27 59.5 -56.5 t47.5 -60.5q14 -15 14 -38q0 -12 -6 -28.5t-15.5 -31t-21.5 -25t-25 -10.5q-59 0 -268 332zM1147 225q57 51 194 51q35 0 90.5 -5t131.5 -15q150 -18 219 -18h49q-6 129 -6 389q-43 16 -47 16h-13q-10 0 -26.5 -2t-36.5 2q-20 2 -33 19q-10 160 -16 287.5t-6 228.5 q0 164 12 272q41 14 37 14q74 0 94 15q-9 85 -9 143t9 88l-6 14l10 -4l18 -10q57 -33 98.5 -57.5t69.5 -40.5q4 -12 5 -47q0 -119 -7 -232q-14 -4 -67 -10q-41 -4 -58 -23l-2 -239q-1 -48 -1 -93q0 -102 4 -191q4 -128 12 -232l26 -31q7 1 14 1q69 0 119 -56 q-18 -133 -18 -232q0 -84 12 -157q-27 0 -66.5 4t-92.5 12q-109 18 -160 18q-176 0 -334 -63q-31 39 -106 94q-43 33 -71 54.5t-42 35.5z" />
<glyph unicode="N" horiz-adv-x="1957" d="M74 231l14 -28q154 -74 264 -191q154 8 235 11.5t89 3.5q137 0 237 -21l37 23q0 51 -12 155q-4 53 -7 91t-3 65q0 31 3 58.5t7 52.5q29 -25 79 -81.5t122 -146.5q125 -156 204 -207q53 8 104.5 12.5t100.5 4.5q154 0 283 -37l37 10q-12 135 -12 242q0 124 16 211 q-33 18 -63.5 36.5t-63.5 36.5q-40 29 -40 106q0 10 1 21l-12 13l12 16v557q4 0 31 15q29 16 32 16q99 0 115 4q-18 172 -18 326q0 10 -123 126.5t-152 117.5q-63 0 -194 -13q-66 -4 -114 -7t-81 -3q-104 0 -184 20l-41 -22v-48q0 -92 -6 -143l-15 -8q-49 0 -182 94 q-53 39 -95 73t-75 62q-231 -30 -334 -30h-18l-129 6l-29 -35q4 -29 6 -58.5t2 -60.5q0 -109 -26 -207q63 -18 53 -18q70 0 109 -27q18 -139 18 -325q0 -117 -1 -189.5t-3 -105.5q-18 -229 -86 -230q-68 0 -90 -8q2 -14 4 -39.5t6 -64.5q4 -35 6 -61.5t2 -47.5 q0 -74 -20 -123zM203 184q49 43 190 43q49 0 146 -12q98 -12 145 -12t47 41q0 49 -6 151q-6 100 -6 152q0 182 18 229q31 -18 88 -119q57 -96 58 -137q0 -72 6 -215q4 -72 6 -125t2 -88l-29 -41q-92 12 -184 12q-18 0 -96 -4t-219 -12q-27 29 -68 63.5t-98 73.5zM770 1628 l12 6q33 -10 65 -22.5t64 -22.5q80 -37 80 -92q0 -14 -7 -43t-7 -45q0 -29 -23 -29q-143 174 -184 248zM1235 221q39 23 133 23q37 0 111 -13q39 -4 66.5 -7t43.5 -3q8 0 23.5 3t42.5 7q2 18 3 31.5t1 22.5v26q0 20 -2 49q-2 25 -3 44.5t1 33.5q4 45 12 72l10 4 q12 0 33 -14.5t39 -24.5q20 -10 43 -18t23 -39v-189v-166q-10 -16 -35 -16q-16 0 -51 4t-89 12q-102 18 -157 19q-57 0 -115 -6q-117 123 -133 145zM1475 993v88q0 55 2 127t3 127.5t1 89.5l24 29q2 0 23.5 -1t66.5 -3h23q34 0 65 4q0 16 -2 41t-6 57.5t-6 57t-2 41.5 q0 16 1 29.5t3 23.5q106 -39 133 -113q17 -43 17 -178q0 -92 -29 -92q2 0 -9 1t-36 3q-16 2 -29.5 1t-23.5 -3q-27 -6 -33 -25q-12 -35 -12 -118q0 -46 4 -107q12 -256 12 -278q0 -96 -16 -146q-39 -22 -80 -22h-4q-35 0 -78 16q-12 137 -12 350z" />
<glyph unicode="O" horiz-adv-x="1927" d="M72 995q0 -436 217 -702q233 -291 659 -291q420 0 666 260q241 254 241 676q0 412 -239 670q-246 266 -660 266q-434 0 -659 -222t-225 -657zM457 201l18 6l6 2q51 0 166 -25q114 -22 167 -22h5q371 0 578 227q196 216 196 592q0 487 -247 729l26 19l19 -7 q419 -229 419 -804q0 -391 -221 -631q-231 -246 -618 -246q-315 0 -514 160zM571 1075q0 205 35 303q55 160 223 160q62 0 62 -27l-4 -14q-76 -260 -76 -450q0 -55 3 -123t11 -148q8 -68 14.5 -135.5t12.5 -134.5q-29 -16 -57 -17q-158 0 -205 232q-18 92 -19 354zM860 983 q0 463 94 463q80 0 80 -494q0 -426 -90 -426q-84 0 -84 457z" />
<glyph unicode="P" horiz-adv-x="1628" d="M18 1473q8 -4 74 -15q63 -10 92 -24q8 -117 11.5 -213.5t3.5 -178.5q0 -106 -5.5 -204.5t-15.5 -192.5l-37 -27q-28 7 -51 7q-26 0 -43 -9q-2 -14 -2 -59t2 -119q0 -111 -24 -174l12 -37q78 -33 174 -104q39 -33 78 -63.5t80 -61.5q186 43 391 43q178 0 332 -39l18 23 q-27 94 -27 233q0 59 5.5 113.5t15.5 105.5q-12 33 -51 35q-49 4 -58 12q-28 22 -28 98v5q0 -4 22 75q276 14 436 142q185 141 185 407q0 289 -199 455q-186 152 -477 152q-111 0 -332 -19q-111 -8 -192.5 -12t-137.5 -4q-57 0 -105 3t-89 7l-29 -25q-2 -16 -4 -58t-6 -110 q-2 -102 -19 -167zM166 221q33 39 362 39q53 0 144 -12q51 -6 87 -9t56 -6l16 17q-1 23 -1 52v30q1 47 6 106q4 66 6 113t2 76q-31 12 -39 12q-113 0 -127 12q-12 14 -12 148q0 6 12 55q346 14 493 86q238 115 238 408q0 147 -117 381q269 -115 269 -463q0 -285 -181 -408 q-135 -92 -440 -125q-18 -23 -18 -147q0 -70 49 -90q66 -35 80 -60q-8 -82 -8 -172t8 -188l-19 -17q-135 14 -211 20.5t-98 6.5q-137 0 -332 -39q-16 10 -47 30.5t-76 53.5q-98 74 -102 90zM672 1327v66q0 20 14 46.5t33 26.5q176 0 182 -39q2 -12 3 -25.5t1 -29.5 q0 -72 -16 -108q-35 -25 -94 -25q-16 0 -49 4t-46 4q-29 25 -28 80z" />
<glyph unicode="Q" horiz-adv-x="1927" d="M270 244q242 -248 680 -248q68 0 197 24q131 25 201 25q20 0 48.5 -3t67.5 -7t67 -7t46 -3q47 0 94 12q70 111 122 189.5t89 131.5l12 35l-4 15q-14 8 -102 18q-68 10 -94 43q96 217 96 498q0 424 -240 657q-238 233 -661 234q-459 0 -664 -242q-192 -222 -192 -683 q0 -445 237 -689zM389 221q59 0 170 -33q113 -30 178 -30h4q203 0 443 88q63 -33 99 -51.5t44 -22.5q86 -37 156 -37l98 160q74 111 125 111q14 0 38.5 -7.5t35.5 -7.5l32 -37q0 -6 -81 -133q-94 -147 -97 -153q-35 -8 -86 -9q-20 0 -52 3.5t-75 7.5q-84 12 -127 12 q-57 0 -164 -27q-105 -24 -161 -24h-4q-162 0 -306 45q-176 53 -270 145zM510 940v96q0 219 43 334q66 164 223 164q72 0 72 -27q0 -25 -19 -51q-23 -35 -24 -49q-45 -160 -45 -508q0 -205 39 -381q-28 -24 -63 -24h-3q-117 0 -174 131q-47 104 -47 231v31q0 23 -2 53z M811 934q0 526 98 526q37 0 60 -139q8 -49 12 -92t4 -82q0 -20 -1 -49t-3 -70t-2 -72v-49v-26q0 -14 2 -37v-68q0 -193 -94 -250q-76 8 -76 408zM1270 1726q248 -43 372 -294q103 -210 103 -484q0 -291 -111 -477q-25 -12 -28 -12q-113 0 -160 71q86 197 86 461 q0 233 -53 398q-59 172 -209 337z" />
<glyph unicode="R" horiz-adv-x="1947" d="M66 209l16 -16q53 -33 96 -56.5t76 -38.5q16 -14 34.5 -27.5t35.5 -27.5q43 -35 75 -43q123 35 291 35q27 0 66 -3t92 -12q106 -12 158 -12q43 0 63 21q-10 39 -18.5 67.5t-14.5 46.5l27 19q119 -76 207 -152q184 43 280 43q133 0 285 -30l20 24q-2 20 -3 39.5t-1 42.5 q0 16 8.5 104t24.5 250q-100 37 -137 82q-10 180 -31 246q-18 49 -69 86q-84 59 -134 115q127 98 152 127q61 70 61 184q0 279 -241 414q-193 108 -489 108h-5q-113 0 -317 -18q-111 -10 -188.5 -15.5t-127.5 -7.5l-4 4q0 10 -41 33q-45 -29 -92 -29q-20 0 -60 4.5t-59 4.5 l-26 -19q1 -68 1 -124t-1 -99q-2 -86 -10 -125q29 -20 45 -20h71q14 0 -20 2q29 0 51 -17q10 -92 15 -188t5 -199q0 -365 -18 -409q-20 -12 -72 -15q-51 0 -71 -18q6 -105 6 -189q0 -118 -12 -192zM186 201q10 25 144 41q47 4 89 7t77 3q49 0 136 -6t214 -21l16 19 q-12 264 -12 262q0 33 1 57.5t3 40.5q-18 18 -43 19q-16 0 -41 -3.5t-31 -3.5q-39 0 -39 82q0 45 13 64q51 18 133 18q139 0 139 -35q0 -23 1 -54.5t3 -74.5q6 -84 6 -127q0 -35 1 -87t3 -123q7 -139 7 -209q0 -10 -13 -19q-201 18 -331 19q-23 0 -55 -3.5t-72.5 -7.5 t-71.5 -7t-51 -3q-27 0 -226 152zM705 1395q0 20 4 32q35 29 120 29h43q14 -2 25 -2h21q2 0 20 -27q18 -43 18 -86t-18 -100q-47 -29 -113 -29q-39 0 -60.5 1t-32.5 5.5t-13 11.5t-2 19t-2 31.5t-4 41t-4 41t-2 32.5zM1087 217q-2 27 89 39q29 4 56.5 7t51.5 3q63 0 172 -12 q63 -8 106.5 -11t65.5 -5l35 20q-10 66 -16.5 111t-6.5 69q0 59 29 203q-16 14 -33 14q-8 0 -22.5 -8t-31.5 -18.5t-37.5 -18.5t-41.5 -8q-41 0 -77.5 43t-36.5 86q0 41 53 76t53 41q0 20 -10 56t-10 54q12 4 16 5q123 0 176 -158q23 -72 39 -258q18 -27 55 -50.5t70 -43.5 q-10 -82 -16.5 -161t-6.5 -155q0 -47 -14 -55q-66 8 -105.5 11t-56.5 3q-82 0 -171 -9t-187 -30q-20 18 -96 78q-29 23 -51.5 44.5t-39.5 37.5zM1309 1122q192 116 192 332q0 149 -80 242q6 6 15 6q84 0 172 -143q82 -132 82 -224q0 -78 -40 -149.5t-110 -102.5 q-94 -41 -115 -41q-20 0 -69 31q-47 31 -47 49z" />
<glyph unicode="S" horiz-adv-x="1615" d="M72 205q57 -104 213 -150q119 -37 262 -37q43 0 61 35q33 -4 164 -37q96 -22 160 -22h6q250 0 420 164q172 162 172 411q0 117 -60 224q-78 137 -92 184q6 0 25.5 4t28.5 4q79 0 110 14q-47 236 -47 304q0 23 4 55.5t12.5 77.5t12.5 75.5t4 49.5q0 23 -98 143 q-96 121 -115 121q-29 0 -71 1t-99 3q-115 6 -168 6q-20 0 -23 -31q-4 -29 -16 -28q-59 0 -178 38.5t-189 38.5q-156 0 -295 -120q-145 -127 -145 -279q0 -188 154 -369q74 -90 282 -262q154 -129 154 -186q0 -14 -27 -59l-26 -5l-45 23q-2 78 -72 137q-51 43 -81 72t-40 45 h-334l-24 -19q18 -152 18 -307q0 -158 -18 -319zM186 195q51 10 56 10q29 0 61.5 -5t44.5 -5q31 0 86 22l12 51q18 -4 61.5 -22.5t110.5 -46.5q98 -41 191 -41q203 0 346 139q141 141 141 346q0 178 -139 342q-31 35 -96.5 94.5t-165.5 141.5q-139 117 -139 178l6 35l51 22 q86 -6 113 -55q14 -25 18 -96q2 -61 27 -86q35 2 79 3h30q31 0 67 -1q143 -6 174 -7q16 27 16 29q0 20 -1 50t-3 71t-3 71.5t-1 51.5q0 100 19 174l26 -10h2l-10 12q55 -23 104 -94q-4 -90 -7 -147.5t-3 -86.5q0 -135 27 -254l-17 -39q-70 -4 -123 -5t-87 -3l-15 -28 q242 -137 242 -424q0 -240 -156 -394q-155 -151 -392 -151h-3q-176 0 -375 98q-14 -2 -20 -30.5t-25 -28.5q-14 0 -35.5 -1t-50.5 -3t-49.5 -3t-34.5 -1q-31 0 -90 47q-57 45 -70 80zM449 727q0 8 16 4q25 0 63 -45q41 -47 41 -70q-2 -14 -18 -14q-12 0 -59 53 q-43 51 -43 72z" />
<glyph unicode="T" horiz-adv-x="1867" d="M6 1327q20 -23 234 -113q225 -96 284 -143q2 -20 3 -52t1 -73q0 -301 -32 -334l-33 -6q-6 0 -15.5 1t-19.5 3q-14 2 -23.5 3t-13.5 1l-45 -24q25 -84 25 -178t-25 -183l6 -12q45 -14 195 -113q76 -47 113 -72l36 -24q29 0 70 4t98.5 12.5t100.5 12.5t71 4q92 0 188.5 -9 t196.5 -30l19 18q-29 143 -29 240q0 20 3 45t7 53q3 36 7 60l6 39q0 36 -66 65q-74 33 -84 62q-2 6 -2 176q0 53 3 171t11 304l17 22q37 -16 82 -65q57 -61 73 -74q20 -2 66.5 -4t120.5 -6q117 -6 186 -18l19 10q-80 276 -80 524q-23 25 -158 129q-139 104 -160 105 q-53 0 -133 -5.5t-188 -15.5q-215 -18 -324 -18q-53 0 -134 6t-191 16q-219 25 -324 25q10 0 -17.5 -3t-93.5 -12q2 -25 2 -49v-47q0 -205 -53 -428zM238 1280l4 20h67q53 0 65.5 80t41.5 86q10 2 27.5 3t43.5 1q58 0 58 -129q0 -14 -5 -59t-16 -123h-35q-2 0 -118 53 q-55 29 -89 45.5t-44 22.5zM502 211q86 35 258 35q178 0 403 -39l29 29v366q-37 16 -45 16q-74 0 -95.5 11.5t-21.5 50.5q0 10 2 45t2 61q0 291 31 658q33 20 57 20q14 0 42 -4t40 -4q35 -23 35 -192q0 2 -1 -52.5t-3 -167.5q-1 -96 -1 -172.5t1 -132.5q4 -166 14 -190 q8 -20 64 -51q57 -27 69 -60q-14 -59 -14 -141q0 -52 18 -242q-31 -6 -32 -6q-59 0 -183 12q-61 8 -107 11.5t-77 3.5q-23 0 -57.5 -3t-81.5 -7.5t-82 -7.5t-57 -3q-20 0 -109 70q-90 70 -98 86zM1386 1286l13 12q154 6 231 7l17 22q-10 45 -22.5 90t-25.5 90 q-22 104 -22 180v7q16 -4 36.5 -14.5t47.5 -24.5q59 -33 70 -56q16 -39 16 -114q0 -63 18 -164q23 -117 25 -162q-10 -8 -72 -8q-158 0 -192 10q-70 18 -140 125z" />
<glyph unicode="U" horiz-adv-x="1900" d="M68 1477q61 -16 53 -17q70 0 102 -16l6 -174q4 -143 8.5 -285.5t8.5 -286.5q31 -326 160 -489q170 -207 526 -207q422 0 596 156q190 166 190 579q0 41 -3 164t-7 328l43 28q23 -4 41 -4q27 0 41 9l-12 165q-3 43 -3 79q0 49 5 87l-207 260q-121 -28 -307 -28h-13 q-111 0 -331 12l-23 -18q0 -2 2 -21.5t6 -54.5q6 -59 6 -92q0 -82 -26 -109q-137 98 -240 299q-66 -6 -135 -6q-37 0 -92 2t-127 6l-126 7t-93 3l-11 -3q-10 -3 -32 -11q0 -301 -6 -362zM528 190l11 5q137 -53 299 -54q311 0 462 127q125 106 166 336q10 66 15.5 183.5 t5.5 291.5q0 72 -3 155t-7 175l34 29h70q18 0 4 -2q31 4 68 20q-2 10 -3 36t-5 71q-6 63 -7 106l23 12q82 -80 102 -110q23 -33 23 -66q0 -8 -2 -36.5t-2 -51.5q0 -47 6 -98q-12 -18 -72 -25q-57 -2 -57 -22q0 -94 6 -273q4 -88 6 -151.5t2 -102.5q0 -350 -125 -499 q-162 -199 -598 -199q-272 0 -422 143zM726 928v522v104t1 74l21 10q104 -92 184 -165q35 -53 35 -549q0 -180 -9 -215q-25 -137 -124 -138q-37 0 -58 13q-47 29 -49 133q-1 29 -1 211z" />
<glyph unicode="V" horiz-adv-x="1957" d="M53 1812q4 -39 7 -129t3 -237q35 -14 39 -14q-6 0 9.5 2t50.5 6t57 -13q119 -221 234 -577q78 -252 127 -399.5t65 -192.5q152 -90 281 -256q72 27 180 27q33 0 93.5 -6.5t152.5 -16.5l24 17q106 756 307 1222q45 10 56 10q23 0 76 -6q51 -6 79 -6l11 14q-8 92 -8 179 q0 99 10 192q-23 31 -123 123q-102 94 -123 104q-188 -34 -326 -34h-8q-47 0 -113.5 8t-154.5 24l-43 -30q-10 -29 -25 -123q-8 -74 -39 -117q-86 25 -174 109q-12 12 -46 52t-89 105q-261 -8 -416 -8q-78 0 -129 2zM731 1661l12 -6q53 -39 93.5 -69t66.5 -50q43 -28 43 -51 q0 -37 -35 -170q-16 -55 -28.5 -98t-22.5 -72q-12 0 -18 14q-10 25 -11 25q-116 422 -116 457q0 19 16 20zM791 221l43 29l61 2q10 0 43 -1t90 -3h32q61 0 101 6q20 436 320 1186l37 4q14 0 33.5 -2t48 -6t50 -6.5t36.5 -2.5l8 23q0 29 -6 88q-2 29 -3.5 51.5t-1.5 38.5 q0 53 13 94q92 -45 127 -98q24 -39 24 -111v-6v-84q0 -53 6 -98l-24 -33q-6 0 -20.5 2t-31 3t-31.5 3.5t-26 2.5q-57 0 -71 -33q-176 -387 -310 -1188l-18 -21q-13 1 -40 1h-29q-50 -1 -128 -5q-30 -1 -58 -1t-52 1q-49 2 -84 11q-39 51 -73 89t-66 64z" />
<glyph unicode="W" horiz-adv-x="2557" d="M55 1458l17 -18q20 0 50 4t71 12l53 -47q182 -569 248 -1194q35 -37 129 -106q47 -35 79.5 -60.5t51.5 -42.5l346 4l24 15q27 131 40.5 201.5t17.5 84.5q49 213 92 254l6 -4q23 -76 47.5 -149.5t46.5 -149.5q70 -190 168 -248q71 6 151 6q140 0 306 -18 q27 137 52.5 274.5t51.5 274.5q57 287 104.5 455t82.5 223q16 0 38.5 -3t55.5 -7.5t56.5 -6.5t39.5 -2l17 19q-12 94 -13 170q1 98 21 168q-14 37 -105 151q-100 121 -123 164q-182 -39 -325 -39q-115 0 -246 29l-23 -10q-25 -74 -41 -130.5t-24 -95.5l-33 -16 q-55 27 -155 152q-89 110 -115 110q-27 0 -76 -3t-121 -7q-62 -4 -112 -5h-32q-31 0 -56 1h-2q-24 0 -39 -82q-23 -102 -41 -121q-92 43 -131 109q-23 41 -44.5 67.5t-39.5 40.5q-143 -35 -297 -35q-141 0 -240 27l-25 -27q1 -11 1 -57v-56q-1 -96 -5 -276zM623 197l10 14 q78 4 137 7t100 3q8 8 131 393q121 381 125 410q49 -53 117 -350q-104 -240 -166 -606l-12 -11l-287 2q-8 8 -28.5 24.5t-53.5 41.5q-51 37 -73 72zM682 1694q133 -72 133 -150q0 -80 -59 -203q-18 18 -45 168q-14 70 -20.5 116t-8.5 69zM1423 1653q27 -14 51.5 -27.5 t51.5 -28.5q61 -41 61 -88t-18 -110q-8 -27 -16.5 -53.5t-16.5 -53.5h-6q-41 100 -68.5 189.5t-38.5 171.5zM1448 211q12 39 160 39q29 0 90 -6t92 -6q2 2 135 553q70 287 112 450.5t58 210.5q43 16 51 16q10 0 27.5 -2t36 -4t36 -4t29.5 -2l17 17q0 8 -3 36.5t-8 75.5 q-4 34 -4 62.5t4 50.5q23 -14 46.5 -32.5t50.5 -41.5q69 -61 69 -90l-4 -256q-29 -4 -40 -6t-3 -2q-14 0 -52 6t-58 6q-45 0 -62 -29q-119 -211 -258 -1183l-18 -11q-129 4 -225.5 7.5t-159.5 3.5q-41 47 -70 82.5t-49 58.5z" />
<glyph unicode="X" horiz-adv-x="1961" d="M45 596q18 -164 18 -227q0 -82 -14 -142l19 -28q61 -23 161 -109q98 -84 131 -92q66 14 154 14t203 -10l16 10q18 88 96 246q90 182 152 188q16 -27 34.5 -53t35.5 -53q35 -63 34 -119q51 -35 117 -98q27 -29 53.5 -55.5t53.5 -55.5q139 33 303 33q23 0 58.5 -4 t82.5 -12.5t82 -12.5t57 -4l25 6q-45 133 -45 287q0 47 4 96.5t12 102.5l-18 20q-98 27 -293 215.5t-221 278.5q10 29 29.5 60.5t46.5 66.5q23 29 45 59.5t45 59.5l59 6q12 0 31.5 -1t40 -3t39 -3t30.5 -1l50 28q-4 35 -7.5 69t-3.5 64v45q2 12 2 21v14q0 82 -104 221 q-12 18 -24.5 37t-24.5 39q-41 55 -64 55q-66 0 -190 -6q-127 -6 -189 -6q-47 0 -93 3t-87 7q-33 -16 -53 -86q-20 -66 -62 -94q-70 12 -157 78q-113 88 -146 102q-73 -10 -193 -13q-40 -1 -86 -1q-92 0 -208 4l-33 -39q16 -86 16 -197q0 -53 -4 -112q20 -10 80 -14 q61 -4 86 -23q27 -20 168.5 -198.5t141.5 -192.5q0 -45 -158 -256q-158 -207 -205 -207q-111 0 -129 -8zM182 201q2 37 82 37q23 0 55.5 -2.5t77.5 -6.5t79 -6t56 -2q55 68 148 219q47 78 83 133.5t62 88.5q20 -10 61.5 -62t41.5 -68q0 -29 -101 -210q-113 -203 -127 -259 q-25 -10 -24 -10q-242 0 -305 -12q-63 53 -109.5 93t-79.5 67zM651 1716q74 -23 187 -104q12 -11 12 -23q0 -8 -8 -27.5t-11 -27.5q-33 -33 -34 -33q-35 12 -88 92q-51 78 -58 123zM1110 1069q6 35 121 205q51 78 87 130t58 79q27 0 86 -13q57 -12 86 -12q8 0 33 25 q-8 84 -11 118.5t-3 22.5q0 53 18 88q104 -51 117 -170q2 -53 2 -108q0 -56 2 -109q-16 -16 -53 -16q-20 0 -57 5t-56 5q-49 0 -131 -119q-29 -43 -55.5 -86t-55.5 -84q6 -39 138 -194q78 -92 118.5 -144.5t49.5 -62.5q-37 -12 -78 -13q-35 0 -66 7q-37 41 -84 99t-106 130 q-158 195 -160 217zM1206 193q2 43 275 43q29 0 70.5 -1.5t99.5 -3.5l12 13q0 10 -2 37.5t-6 74.5q-6 68 -6 111q0 29 3 51.5t7 42.5l18 6q66 -33 104 -51t46 -22q0 -2 2 -8.5t2 -10.5v-199q2 -57 7 -107t15 -91l-22 -12q-59 10 -121.5 15t-128.5 5q-23 0 -55.5 -4 t-77.5 -12q-43 -8 -68.5 -11.5t-36.5 -3.5q-6 0 -22 4q-29 33 -57.5 66t-57.5 68z" />
<glyph unicode="Y" horiz-adv-x="1781" d="M31 1802q22 -96 22 -182v-8q0 -70 -12 -133q60 -19 60 -22q0 -1 -3 -1q86 0 105 -8q184 -221 231 -293q111 -173 111 -332v-6l-2 -178q-61 -25 -58 -25q8 0 -5 1t-48 3q-29 2 -53 -8q8 -74 9 -167v-21q0 -84 -7 -184q18 -10 58 -39t104 -74q53 -39 92 -63.5t67 -38.5 q143 43 320 43q217 0 424 -62l16 31q-22 75 -22 162v8q0 29 2 64.5t6 80.5q6 59 9 96t5 48q-16 31 -73 57l-93 43q-26 53 -26 200v11q0 82 112 262q115 182 181 182q27 0 73.5 -7t73.5 -7q10 0 20.5 1t20.5 3q2 16 -2 42t-14 62q-18 76 -19 109q0 27 8 66q4 23 6 37l5 22 q0 10 -109 143q-111 137 -129 138q-18 0 -49 -3.5t-72 -11.5q-84 -12 -123 -12q-98 0 -192 12l-29 -18q-86 -178 -104 -203q-104 0 -217 96q-137 119 -181 137q-106 -16 -190 -22q-63 -5 -112 -5q-16 0 -31 1l-148 6zM524 227q0 47 224 47q162 0 473 -49l12 25 q-20 88 -21 170q0 76 27 127q66 -6 166 -70l6 -24q0 -33 -6 -103q-6 -68 -6 -102q0 -80 6 -160q-14 -14 -43 -14q-45 0 -152 18q-100 20 -159 21q-147 0 -322 -37q-25 6 -102 67q-27 20 -51.5 41t-51.5 43zM670 1663q29 -10 58.5 -22.5t57.5 -22.5q86 -41 86 -72 q0 -43 -49 -104q-27 8 -46 36.5t-36 55.5q-6 8 -11 14t-9 11q-51 94 -51 104zM1038 666q0 246 11 276q35 98 139 258q43 59 86 120.5t84 123.5q10 2 23.5 3t31.5 1q12 0 31.5 -1t41 -3t42 -3t33.5 -1q4 31 7 43t3 4q0 -4 -1 17.5t-3 68.5v20q0 38 6 64q104 -35 104 -162v-53 q-2 -18 -2 -33v-23q0 -42 6 -73l-16 -17q-10 0 -27.5 2t-36 4.5t-36 4.5t-29.5 2q-37 0 -55 -19q-16 -16 -129 -196q-113 -176 -119 -199q-6 -127 -6 -231q-35 -18 -80 -21q-20 -2 -41 -2q-20 0 -41 -2z" />
<glyph unicode="Z" horiz-adv-x="1857" d="M63 1309q217 -113 291 -203q66 0 162 -19l16 -20q-47 -143 -241 -416q-190 -270 -225 -409l10 -25q43 -14 89 -37.5t97 -56.5q4 -2 168 -121q487 49 733 49q102 0 303 -24q203 -25 303 -25q-28 45 -28 135v6q0 41 6 103.5t20 144.5q14 84 20.5 134.5t6.5 70.5 q-47 47 -98 121q-10 14 -30.5 47t-53.5 84q-160 8 -244 13t-94 7l-17 -14q0 -4 -12 -109q-6 -68 -35 -102l-67 -12l-27 16q82 190 264 469q111 172 181.5 284.5t101.5 168.5l6 18q0 51 -59 160q-63 119 -113 119q-45 0 -114.5 -5.5t-164 -15.5t-165 -15t-117.5 -5 q-158 0 -339 9t-392 26l-25 -23q-6 -55 -19.5 -121.5t-33.5 -144.5q-27 -106 -43 -171t-21 -91zM229 207q0 25 66 29q315 23 509.5 34t272.5 11q74 0 226 -31q150 -31 219 -31q10 0 22 12.5t12 22.5q0 412 68 453q121 -99 121 -148l-2 -9t-6 -28q-14 -59 -20.5 -171.5 t-6.5 -278.5l-24 -13q-113 16 -232 25.5t-248 9.5q-135 0 -321.5 -12t-425.5 -39q-20 14 -48 33.5t-67 48.5q-37 29 -65.5 49.5t-49.5 32.5zM252 1268q10 29 27 28q6 0 18 -4t16 -4q76 0 117 19q25 8 41 90q12 71 58 71h1q156 0 203 -12q2 -8 3 -18.5t1 -26.5 q0 -10 -65.5 -122.5t-77.5 -125.5q-23 -16 -68 -16q-100 0 -151 24q-35 16 -123 97zM854 659q0 66 301 549q305 485 373 535q33 -16 53 -82q18 -59 18 -102q-100 -143 -194 -294t-186 -311q-6 -12 -25.5 -52t-54.5 -105q-47 -94 -86 -150q-14 -20 -74 -20q-59 0 -117 12 q-8 23 -8 20z" />
<glyph unicode="a" horiz-adv-x="2101" d="M31 233l6 -14q111 -27 231 -121q113 -88 168 -98q-6 6 12.5 14.5t26.5 8.5q57 14 191 14q238 0 385 -41l12 6l-23 127l17 27q31 0 151 -78q119 -76 172 -76q29 0 97 21q71 22 105 22h3q37 0 92.5 -6t127 -20.5t124.5 -20.5t88 -6q41 0 43 76q2 23 1 56.5t-5 78.5 q-2 45 -3 76.5t-1 52.5q1 96 19 170q-147 37 -283 317q-121 250 -123 416q43 6 75 11t54 9l14 45q-14 51 -14 168t-14 168q-182 106 -297 228q-246 -49 -500 -49q-137 0 -348 18q-289 27 -346 31l-15 -394l-6 -6l31 2l88 15h3q48 0 48 -60q0 -98 -119 -442 q-123 -365 -178 -365q4 0 -13 4.5t-58 12.5l-17 -17q-4 -31 -7 -78t-3 -112q0 -127 -12 -191zM199 221q0 31 225 31q33 0 82 -3t115 -11q131 -12 194 -13q29 0 29 23q0 8 -9.5 34.5t-9.5 28.5l6 291q-43 20 -57 21h-45q-29 4 -29 24q0 57 242 58q139 -1 182 -52 q-29 -43 -61 -43q-25 0 -62 13q-26 -8 -26 -56q0 -36 -1 -81q-1 -46 -3 -107.5t-3 -107.5t-1 -76q0 -57 20 -125q-6 -12 -26 -13q-25 0 -62 3t-88 8q-49 4 -86 7t-63 3q-43 0 -119 -12q-78 -12 -117 -13q-27 0 -121 70t-106 98zM825 1024q0 39 13 92q14 70 43 70 q23 0 49 -70q24 -61 24 -92q-27 -4 -49 -7t-45 -3q-35 0 -35 10zM1096 242q0 26 60 26h5q432 0 611 -51q25 -8 40 -8q27 0 27 31q0 20 -4 48.5t-12 69.5t-12.5 72t-4.5 53q0 27 2 50.5t7 44.5q23 -2 106 -56q82 -51 82 -61v-74q0 -43 -2 -102.5t-2 -104.5v-74q0 -43 -43 -43 q-25 0 -61.5 4.5t-86.5 12.5q-96 18 -147 18q-25 0 -60.5 -4t-83 -12t-82 -11t-57.5 -3q-47 0 -161 65q-121 68 -121 109zM1343 1430q0 27 39 26q12 0 43 -5t43 -5q49 0 50 53q0 35 -13 100q-4 35 -7 59.5t-3 41.5q0 6 13.5 15t19.5 9q78 0 201 -135q6 -203 6 -205 q0 -84 -43 -84q-12 0 -36 6.5t-34 6.5q-33 0 -33 -41q0 -39 92 -299q43 -123 74 -203t49 -121q-12 -16 -57 -16q-86 0 -123 69l-49 142l-36 90t-91 229q-104 260 -105 267z" />
<glyph unicode="b" horiz-adv-x="1832" d="M72 567q0 -326 61 -350q43 -14 170 -115q106 -82 164 -82q53 0 133 -3t186.5 -7t185.5 -7t132 -3q197 0 414 131q243 152 243 334q0 176 -20 244q-18 72 -84 133l-90 82t-92 82q41 39 84 75.5t83 75.5q70 82 70 227q0 240 -231 369q-188 106 -449 107q-53 0 -134 -4.5 t-191.5 -12.5t-191.5 -12t-136 -4q-68 0 -126 3t-108 7q-8 -8 -20 -8q-6 0 -15.5 3t-11.5 3q-16 0 -16 -49v-260q0 -49 29 -90l63 18q6 2 11 2q44 0 46 -102l7 -654q0 -51 -43 -69q-18 -4 -40 -7t-40.5 -9.5t-30.5 -17.5t-12 -30zM262 223q20 14 303 15q29 0 79 -2.5 t122 -6.5t126 -6t93 -2q254 0 379 76q166 100 166 352q0 104 -59.5 206.5t-59.5 107.5q178 -117 223 -175q72 -94 72 -282q0 -184 -176 -324q-168 -131 -361 -131q-47 0 -115.5 5t-160.5 15.5t-159.5 15.5t-115.5 5q-12 0 -33.5 -3t-43 -7t-42 -7t-32.5 -3q-35 0 -111 61 q-80 63 -94 90zM713 1319q0 12 1 29.5t1 35.5t1 36t1 28q0 29 110 29q84 0 109 -11q33 -20 33 -98q0 -61 -11 -98q-10 -35 -149 -35q-59 0 -76 10q-20 14 -20 74zM717 709v104q27 31 119 31q133 -1 133 -60v-53q-2 -18 -2 -33v-22q0 -66 -90 -66q-18 0 -54.5 2t-52.5 2 q-53 0 -53 95zM1300 1763l56 6q57 -35 88 -49q207 -123 207 -348v-18q0 -201 -269 -330q-37 -16 -55 -16q-10 2 -18 10q8 16 41 49q53 53 94 143q41 94 41 162q0 221 -185 391z" />
<glyph unicode="c" horiz-adv-x="1732" d="M68 1012q0 -422 202 -701q231 -311 633 -311q270 0 496 131q266 156 266 410q0 18 -116.5 145t-129.5 127q-33 0 -79 -2t-105 -6q-121 -6 -184 -6h-45q-20 0 -41 2q-53 90 -54 246q0 117 54 213l14 6q25 0 117 -74l123 -98l-13 -13l29 -32q135 45 258 45q84 0 154 -21 q18 63 18 62q0 20 -4 52t-12.5 75t-12.5 74.5t-4 54.5q0 119 33 247q-47 33 -123 111q-70 74 -117 106q-98 -16 -184 -16q-68 0 -129 10q-31 -49 -61 -49q-66 0 -191 33t-194 33q-315 0 -473 -287q-125 -225 -125 -567zM455 217v12q176 -63 352 -63q297 0 438 104 q139 104 223 387l-6 21q12 0 82 -70q72 -68 72 -86q0 -223 -246 -364q-207 -119 -444 -119q-279 0 -471 178zM584 1036q0 190 34 295q59 164 218 164q35 0 79 -33q48 -34 48 -63q0 -12 -21 -45q-10 -20 -17 -32.5t-10 -18.5q-47 -166 -47 -297q0 -154 50 -285q2 -4 6 -12.5 t14 -24.5q14 -20 14 -39q0 -43 -49 -70q-49 -28 -89 -28h-3q-160 0 -205 184q-22 86 -22 287v18zM1143 1223q0 16 33 28q25 8 47 9q2 0 26.5 -1.5t71.5 -3.5h23q40 0 75 5q18 18 19 61q0 18 -3 46t-12 63q-12 70 -12 110q0 12 2 31.5t5 40t5 39t2 30.5q2 70 17 70 q10 0 82 -70q73 -68 73 -86q0 -14 -3 -36.5t-7 -55.5q-4 -31 -7 -54.5t-3 -39.5t1 -39.5t3 -56.5t3 -56.5t1 -39.5v-74q-20 2 -39.5 3t-40.5 1q-98 0 -245 -31q-86 66 -117 107z" />
<glyph unicode="d" horiz-adv-x="1843" d="M35 242l12 -23q186 -84 209 -98q8 -6 70 -70q53 -53 65 -53q514 0 678 18q352 45 528 222q211 213 211 659q0 233 -63.5 412.5t-185 301.5t-300 185.5t-407.5 63.5q-100 0 -299 -13q-100 -4 -174 -7t-125 -3q-55 0 -105.5 3t-97.5 7l-16 -18q15 -112 15 -210 q0 -76 -9 -144l22 -19q23 6 45 6q43 0 85 -22q14 -141 21 -262t7 -224q0 -78 -4 -157.5t-12 -165.5l-21 -23q-74 33 -110 33q-6 0 -33 -14q8 -63 11 -114.5t3 -90.5q0 -106 -20 -180zM240 184l57 35q41 0 98.5 -1t130.5 -3q76 -2 129 -2h88q428 0 600 135q229 180 230 701 q0 391 -201 620q176 -27 291 -313q92 -232 92 -445q0 -424 -190 -626q-156 -168 -482 -215q-78 -10 -238.5 -15.5t-406.5 -5.5q-31 0 -104 55q-57 43 -94 80zM733 762l2 700q0 29 56 29q37 0 112 -16q96 -23 96 -424q0 -414 -71 -437q-23 -6 -90 -6q-45 0 -66 6 q-23 27 -37 35q-2 4 -2 113z" />
<glyph unicode="e" horiz-adv-x="1855" d="M78 629q4 -47 7 -146.5t3 -253.5l184 -98q8 -4 99 -68q76 -55 92 -55q84 0 250 25q162 24 247 24h7q520 0 794 -49l4 66v13q0 49 -12 126q-8 47 -12 82t-4 57q0 27 3 64t7 88t7 89t3 62q-10 10 -34.5 33t-63.5 55q-59 51 -92 93q-39 -2 -78.5 -2t-79.5 2q-20 84 -20 161 q0 23 3 46.5t7 50.5l151 6q23 2 50.5 1t62.5 -5q51 -4 79 -7.5t34 -3.5q-33 182 -33 318q0 145 31 199q-27 20 -55.5 50.5t-57.5 71.5q-96 129 -98 136q-317 -20 -520 -29.5t-295 -9.5q-395 0 -658 53q-6 -74 -9 -128q-2 -32 -2 -58q0 -17 1 -31l6 -182l25 -5h67t-8 3 q33 -4 55 -19q29 -53 29 -274q0 -23 2 -62t6 -92t7 -92t3 -64q0 -238 -194 -241zM238 231q203 23 332.5 35.5t189.5 12.5q190 0 382.5 -12.5t395.5 -35.5q-25 264 -25 271q0 143 27 258l162 -119q-8 -53 -12 -115.5t-4 -132.5v-12q0 -155 24 -305q-53 0 -131 3t-182.5 11 t-183 11t-132.5 3q-53 0 -131 -6t-182 -16t-181 -15.5t-128 -5.5q-27 0 -117 72q-84 63 -104 98zM752 1368q0 94 57 96q51 2 85 3t52 1q29 0 49.5 -1t34.5 -3q47 -6 49 -8q14 -6 25 -37q24 -79 24 -104q0 -37 -14 -45q-2 -2 -47 -8q-35 -4 -56.5 -7.5t-29.5 -3.5h-37 q-20 0 -49 2q-57 4 -86 4q-27 0 -33 15q-10 20 -16 26q0 12 -4 35t-4 35zM758 743q0 53 14 113q51 2 100 2q51 0 103 2q160 6 174 25q-12 45 -12 114q0 178 32 236q29 47 107 47q8 0 24.5 -1t36.5 -1t40 -1t34 -1q76 0 148 12l4 60v18q0 42 -7 107q-4 45 -7 76.5t-3 50.5 q0 125 29 137q141 -129 151 -168q-22 -39 -22 -199v-14q0 -4 1 -19.5t3 -42.5q2 -25 3 -44t1 -35q0 -72 -22 -84q-16 12 -142 12q-113 0 -157 -6q-29 -4 -35 -21q-4 -14 -8.5 -22.5t-6.5 -12.5q8 -51 8 -103q0 -72 -16 -144q-33 0 -80 8t-75 8q-53 0 -54 -184v-15 q-78 -4 -136 -6t-99 -2q-59 0 -117 12q-14 29 -14 86z" />
<glyph unicode="f" horiz-adv-x="1798" d="M39 1477q25 -12 31 -13q8 0 21 1t26.5 3t25 3.5t15.5 1.5l55 -35q18 -102 18 -271q0 -8 1 -32.5t3.5 -65.5t3.5 -76t1 -63q0 -330 -123 -330q8 0 -8.5 2t-57.5 6q-4 -37 -6 -52t-2 -7q0 -31 12 -107q14 -70 15 -110q0 -55 -21 -90q2 -12 166 -127q162 -111 182 -111 q37 0 89.5 1t122 3t119.5 3t83 1q102 0 192.5 -7t170.5 -21q-23 86 -23 223q0 59 12 272q-63 33 -127 86l-4 51v7q0 36 17 94q36 20 64 20h7l205 -6q0 18 -6 78q-2 29 -3 52.5t-1 39.5q0 174 125 174q29 0 68.5 -3t93 -11t93 -11t66.5 -3q-4 37 -5 105v29q0 61 3 144 q2 43 2 82q0 116 -18 188q-35 27 -86 99q-51 68 -86 94q-53 41 -119 41q-45 0 -111.5 -4t-158.5 -12.5t-159 -12.5t-114 -4q-137 0 -407.5 24.5t-403.5 24.5l-35 -8q2 -14 3.5 -29.5t1.5 -33.5q0 -35 -7.5 -108t-21.5 -189zM207 190q8 39 129 50h156q207 0 413 -19 q12 156 13 385q-90 0 -183 12l-4 123q-2 18 2 42t12 53q41 10 50 10h309q18 43 18 92q0 14 -1 33.5t-3 46.5q-2 29 -2 47v33q0 166 160 166q74 0 280 -19q-14 92 -20 166t-6 133q0 70 14 154l37 -2q53 -86 125 -140q-15 -125 -15 -231q0 -112 17 -203q-61 -12 -96 -12h-70 q-35 0 -73.5 2t-61.5 3t-31 1q-31 0 -48 -4t-26.5 -16.5t-12.5 -36t-3 -62.5q-4 -139 -12 -219q-223 0 -273 -14l-14 -242q12 -4 27.5 -12t32 -17.5t32 -17.5t25.5 -10q16 -77 16 -155v-17l-6 -256q-121 16 -206 25.5t-136 9.5q-168 0 -389 -25q-59 45 -103 81t-73 62z M731 1360q0 66 31 72q102 22 187 22h7q109 0 136 -51q16 -37 16 -160h-363q-14 49 -14 117z" />
<glyph unicode="g" horiz-adv-x="2066" d="M59 932q0 -414 179 -656q203 -276 598 -276q53 0 155 18q100 18 152 19q37 0 61 -41q201 10 356 12h50q122 0 215 -8q18 49 18 59q0 29 -3 74t-11 105q-12 119 -12 182q0 72 16 141l25 4q49 0 122 -35q-1 14 -1 31t1 37q2 39 10.5 90t12.5 88t4 60q0 4 -14 45 q-133 70 -181 151q-40 74 -40 223v7q0 150 32 305q-53 57 -108.5 113.5t-108.5 113.5q-59 43 -334 43q-10 0 -18 -8t-16.5 -17.5t-17.5 -17.5t-19 -8q-68 0 -215 31q-135 32 -217 32h-5q-348 0 -532 -299q-154 -250 -154 -618zM295 295l14 18q187 -151 463 -151h4 q166 0 336 61q18 -53 217 -59q135 -4 201.5 -6t68.5 -2q27 51 27 61v64q0 43 -2 106q-2 53 -2 94v74q2 47 4 89t6 81q25 12 31 12q35 0 82 -20l35 20q-1 22 -1 42q0 109 19 155q100 -31 103 -33q47 -25 47 -86q0 -16 -2 -40.5t-6.5 -59.5t-6.5 -60.5t-2 -42.5q-31 -8 -28 -8 q-104 0 -121 -22q-6 -12 -6 -148q0 -66 6 -150.5t16 -189.5l-24 -41q-33 4 -68 6t-74 2q-31 0 -77 -2t-107 -6q-123 -6 -184 -6q-18 0 -27 31q-8 33 -29 37q-166 -72 -358 -72q-135 0 -313 68q-207 80 -242 184zM555 1024q0 160 59 289q76 166 217 166q16 0 39 -2t52 -7 q73 -8 77 -22q-41 -41 -71 -62q-100 -66 -133 -243q-18 -102 -19 -291q0 -53 29 -150q27 -90 63 -133q4 -16 -22 -16q-291 0 -291 471zM838 1022q0 133 39 235q55 141 163 142q53 0 86 -70q10 -29 18.5 -57.5t18.5 -57.5q2 -10 39 -47q29 -33 29 -51l-12 -16 q-82 8 -130.5 12t-62.5 4q-8 0 -55 -35q3 -31 3 -68q0 -90 -18 -214q16 -31 76 -35q66 -2 88 -19q8 -23 8 -43q0 -55 -35.5 -92t-91.5 -37q-119 0 -151 179q-12 70 -12 270zM1286 1163q49 12 100 13q12 0 35 -2.5t45.5 -5.5t45 -5t34.5 -2q10 0 25.5 9.5t15.5 19.5v229 q0 57 -2 0q2 66 6 124.5t15 105.5l12 4q10 0 27 -11q8 -4 12 -8l6 -6q6 -6 49 -35q29 -18 29 -57q0 -31 -12.5 -92.5t-12.5 -93.5q0 -16 1 -44t3 -65q6 -72 6 -108q0 -4 -6 -11.5t-14 -14.5t-16.5 -14.5t-10.5 -7.5q-47 -12 -231 -12q-57 0 -105 10q-10 10 -18 18.5 t-16 18.5q-23 27 -23 43z" />
<glyph unicode="h" horiz-adv-x="1961" d="M74 651q12 -389 37 -415q37 -16 170 -117q123 -92 133 -92h61q51 0 139 2q38 1 72 1h32q48 -1 87 -3q104 -4 203 -19l24 25q-4 42 -4 76q0 54 10 86q51 -20 125 -91q41 -41 70 -66.5t45 -35.5q115 16 190.5 25.5t114.5 9.5q37 0 111.5 -11.5t187.5 -33.5l4 35q0 4 -6 217 q-1 36 -1 69q0 83 7 152q-41 55 -98 74q-49 14 -66 61q-22 71 -22 281v18q0 145 12 291q40 36 92 36q14 0 29 -3l4 39v276l-6 59q-20 14 -38.5 28.5t-37.5 29.5q-45 35 -66.5 72.5t-41.5 76.5q-33 57 -60 58q-45 0 -129 -14.5t-133 -14.5q-104 0 -313 25l-35 -33 q0 -4 3 -27.5t7 -68.5q3 -26 3 -48q0 -29 -5 -51q-63 4 -141 115q-78 115 -160 115q-59 0 -166 -7q-109 -6 -160 -6q-127 0 -227 25l-20 -35q1 -12 1 -25q0 -61 -16 -143q-18 -115 -18 -164q0 -16 69 -18q82 -6 97 -21q8 -57 11 -131.5t3 -167.5q0 -248 -25 -493l-45 -21 l-94 17zM201 240q6 36 182 36h10q119 0 352 -36l23 32q-35 199 -35 488q0 26 78 26h6q88 0 135 -20l4 -6l5 6q20 -49 20 -172q0 -68 -18 -174q-10 -70 -17.5 -113t-9.5 -59q39 -33 39 -94q0 -78 -19 -91q-109 25 -245 25q-59 0 -135 -6t-170 -16q-90 78 -140.5 121.5 t-64.5 52.5zM750 1378q0 270 22 332l12 6q10 -2 103 -88q41 -39 66.5 -64.5t35.5 -39.5q0 -78 -18 -191q-22 -28 -69 -28h-3h-20t-29 2h-49q-6 0 -15.5 9t-16.5 20.5t-13 23.5t-6 18zM1114 219q31 39 189 39q154 0 327 -51l15 29q-8 57 -11.5 107t-3.5 95q0 109 21 193 q-16 31 -41 31q-14 0 -45 -5.5t-47 -5.5l-35 45q-4 100 -6 176t-2 127q0 244 34 437q23 4 46.5 6t46.5 4q40 10 40 67q0 132 7 156q141 -78 141 -164q0 -37 -6 -112q-2 -37 -3 -65t-1 -46q-84 -35 -105 -53q-18 -16 -18 -72v-55q2 -23 2 -43v-35q0 -35 1 -85t3 -120 q6 -139 6 -205q0 -68 55 -100q27 -14 53.5 -26.5t53.5 -26.5q-6 -54 -6 -130v-39q2 -100 14 -235l-27 -14q-78 14 -155.5 20.5t-159.5 6.5q-16 0 -39.5 -2t-56.5 -6.5t-56.5 -6.5t-39.5 -2q-152 98 -191 166z" />
<glyph unicode="i" horiz-adv-x="1222" d="M72 236q88 -41 164.5 -94.5t142.5 -116.5q35 0 89 2t126 6q137 6 213 6q195 0 342 -37l4 14q0 39 -14 99q-14 63 -15 102q0 10 7.5 73.5t21.5 186.5q-35 47 -84 62q-47 14 -63 53q-23 61 -23 237q0 53 6 152.5t21 245.5l41 26q24 -5 42.5 -5t30.5 5q8 51 12.5 124 t4.5 169q0 37 -117 176.5t-145 139.5q-39 0 -140 -23q-90 -20 -143 -20q-41 0 -97.5 5t-132 15t-131 16.5t-90.5 6.5q0 -27 -4 -78t-12 -127q-14 -166 -29 -172q51 -10 90 -19.5t66 -13.5q31 -78 31 -178q0 -139 -19 -348q-25 -279 -61 -312q-37 12 -66 13q-31 0 -63 -13 q8 -84 11 -140t3 -85q0 -106 -20 -153zM240 219q98 31 286 31q150 0 277 -19q6 -2 21.5 -5t37.5 -9q45 -10 60 -10q14 0 14 16q0 27 -6 86q-6 57 -6 90v84q4 59 30 60q27 0 74 -27q16 -10 35 -21.5t35 -21.5q-31 -117 -31 -231q0 -20 3 -66.5t11 -118.5q-4 2 -30.5 5.5 t-75.5 11.5q-33 4 -59.5 7t-47.5 3q-70 0 -204 -12q-68 -4 -118 -7.5t-83 -3.5q-37 0 -121 60q-80 55 -102 98zM756 1034q0 246 32 408q18 6 25 6q12 0 35.5 -7t38.5 -7q37 0 37 79q0 8 -1 23.5t-3 40.5q-1 22 -1 39.5t1 30.5q4 37 14 59q20 -10 42.5 -26.5t49.5 -37.5 q68 -54 68 -79v-111q0 -119 -17 -145l-12 -4q-12 0 -35.5 11t-38.5 11l-22 -16q-23 -367 -31 -664q-16 -18 -76 -18q-33 0 -59 6l-35 45q-12 236 -12 356z" />
<glyph unicode="j" horiz-adv-x="1671" d="M70 666q0 -283 213 -473q205 -184 491 -185q684 0 684 699q0 27 -2 92t-6 170q-3 80 -3 145t3 115q18 18 63 28q21 3 38 3t32 -3q16 62 16 314q0 8 -10 53q-27 16 -55.5 42t-56.5 60q-27 29 -51.5 59t-49.5 58q-55 14 -59 15q-29 0 -70 -5.5t-96 -15.5q-109 -18 -166 -18 q-33 0 -80 3t-110.5 11t-109.5 12t-79 4q2 0 -35 -16q9 -85 9 -162q0 -116 -21 -211q6 0 21.5 -5t21.5 -5q152 0 152 -164q0 -14 -1 -33.5t-3 -46.5q-2 -29 -3.5 -50t-1.5 -36l-6 -372l-34 -31q-29 4 -66 22.5t-84 46.5q-94 59 -119 60h-286l-56 -6q-24 -83 -24 -167v-7z M348 203l6 10q23 -2 64 -9t100 -20q51 -10 93 -15t75 -5q270 0 410 136q135 132 135 390v15l-10 733q12 33 47 32q12 0 40.5 -4t43.5 -4q31 0 47 15q-2 10 -4 32.5t-6 57.5q-6 51 -7 86q0 16 1 30.5t3 30.5q154 -86 154 -178q0 -35 -12 -117q-12 -96 -27 -98 q-14 -4 -28.5 -8t-30.5 -8q-43 -16 -43 -37q0 -74 6 -234t6 -239q0 -352 -108 -523q-145 -225 -525 -225q-262 0 -430 156zM483 698q0 45 21 45q12 0 24 -6l-12 8q12 -6 16 -10q41 -20 71 -35.5t50 -25.5q16 -8 28.5 -12.5t23 -8t10.5 -26.5q0 -35 -32 -55.5t-71 -20.5 q-61 0 -95 42t-34 105zM528 737l19 -12l-4 4l-11 6z" />
<glyph unicode="k" horiz-adv-x="1972" d="M66 1477q45 -18 43 -19q12 0 38.5 4t34.5 4l47 -26q8 -68 11.5 -141.5t3.5 -151.5q0 -127 -19 -504l-41 -29q-40 10 -66 10q-29 0 -40 -12q4 -45 7 -91t3 -93t-3 -93t-7 -91l16 -23q133 -49 307 -205q82 20 189 21q39 0 94 -4t131 -12.5t131 -11.5t94 -3l33 8q0 14 -2 45 t-2 47q2 10 4 22.5t6 23.5q68 -47 115 -83t76 -63q150 33 295 33q53 0 155 -19q53 -8 91 -12t65 -4l33 8q-28 94 -28 195q0 18 1 37l14 237q-6 25 -59 43q-51 20 -59 45q-10 35 -20.5 90.5t-18.5 128.5q-12 117 -51 170q-55 78 -209 138l-11 32q14 76 125 95l179 18 q-4 35 -6 74q-1 17 0 35q0 24 1 51q2 78 3.5 116.5t1.5 41.5q0 8 -6.5 25.5t-6.5 23.5q-143 104 -186 235q-102 12 -430 12q-70 0 -113 -88t-80 -88q-49 0 -149 86q-109 92 -137 99q-74 -37 -267 -37q-57 0 -129.5 6t-165.5 16l-28 -34q6 -70 6 -134q0 -25 -1 -47 q-3 -84 -13 -157zM211 223q45 41 244 41q207 0 413 -65l29 22q-31 106 -31 242q0 33 3 68.5t8 76.5q-16 16 -48 17h-16t-18 -2h-25q-31 0 -37 30q-2 6 -2 58q0 47 29 57q16 4 69 4q182 0 183 -51q0 -41 -3 -100.5t-7.5 -141.5t-7.5 -142.5t-3 -100.5q0 -27 20.5 -82.5 t20.5 -90.5q-55 -14 -43 -14q-59 0 -182 11q-121 12 -182 14q-41 0 -100.5 -1t-137.5 -3q-49 45 -93 82.5t-83 70.5zM727 1518v38q0 121 14 177q162 -81 162 -140q0 -53 -153 -233l-21 12v92q-2 31 -2 54zM1085 227q84 33 222 33q70 0 172 -12q168 -18 170 -19l34 25 q-10 51 -15 105.5t-5 113.5q0 106 14 166q-14 20 -43 20q-12 0 -35.5 -4t-35.5 -4q-39 0 -54 148q-4 49 -6 98t-6 96q10 16 27 17q102 0 159 -119q45 -90 46 -207v-90t2 -41q2 -16 30 -25q20 -8 41 -22t43 -37v-55q0 -33 -2 -80q-2 -45 -2 -80v-57q0 -37 2 -71t6 -66 q-20 -4 -28.5 -5.5t-3.5 -1.5q-20 0 -49 3t-70 12q-39 8 -69 11t-50 3q-27 0 -63.5 -4t-86 -12.5t-86 -12.5t-59.5 -4q-10 0 -41 31q-10 10 -19.5 20.5t-19.5 20.5q-72 57 -112 82zM1155 1155q8 20 96 154q88 129 105 141q14 12 61 12h17q14 0 34 -2q33 -2 54 0q31 0 49 8 q-4 45 -6 80t-2 58q0 66 12 96q147 -84 147 -168q0 -12 -2 -29.5t-5 -37t-5 -37t-2 -29.5q0 -14 3 -43t3 -43q0 -51 -86 -53q-117 -6 -129 -11q-8 -4 -22.5 -22.5t-34.5 -52.5q-37 -59 -78 -60q-12 0 -107 19q-100 18 -102 20z" />
<glyph unicode="l" horiz-adv-x="1630" d="M29 1479l57 -6l74 6q41 -63 47 -213v-232q0 -188 -12 -379l-43 -34q-27 6 -49 6q-28 0 -50 -9q0 -16 -2 -63t-6 -129q-6 -121 -6 -193q2 -2 30.5 -16t86.5 -43q70 -35 108 -68q2 -2 16.5 -17t43.5 -46q43 -45 59 -45q92 0 283 25q96 14 167.5 20t118.5 6q92 0 645 -37 q-2 33 -24 150q-8 47 -12.5 85t-4.5 66q0 27 6.5 63t16.5 83t16.5 82.5t6.5 60.5q-76 57 -187 211q-49 6 -149 12q-98 6 -148 13q-37 -33 -51 -103q-14 -68 -41 -94q-23 2 -44 6l-42 8q-14 92 -21.5 179.5t-7.5 173.5v112q6 68 33 101l51 4q49 4 86 5t60 3q-2 10 -2 22 q0 14 -2 31q2 -12 2 29v141q0 127 -13 162q-117 88 -151 149q-47 78 -68 78q-92 0 -260 -6q-170 -6 -252 -6q-92 0 -173 5t-154 15l-23 -32q-8 -152 -12 -237t-4 -105zM186 217l21 35q106 14 217 20.5t227 6.5q184 0 354.5 -15.5t329.5 -48.5l35 18q6 59 12.5 119t10.5 119 q20 188 47 211q16 -14 34.5 -26.5t36.5 -26.5q43 -35 43 -66q0 -49 -12 -149q-12 -102 -12 -152q0 -49 3 -95t11 -87l-24 -21q-166 16 -305.5 24.5t-256.5 8.5q-309 0 -550 -55q-16 10 -42 30.5t-63 51.5q-63 53 -108 80zM692 1157q0 150 13 301q25 27 59 27q12 0 31.5 -2 t41 -4t41 -4t31.5 -2l23 8q-8 63 -10 115q-1 17 -1 33q0 32 3 59l24 24q37 -25 61.5 -44t39.5 -34q41 -46 41 -114q0 -225 -19 -252q-25 -8 -158 -8q-33 -33 -39 -103q-2 -10 -2 -41v-76q0 -211 13 -268q10 -57 10 -80q0 -61 -77 -61h-5l-80 2l-28 22q-12 504 -13 502z" />
<glyph unicode="m" horiz-adv-x="2148" d="M74 1858q6 -129 6 -226q0 -94 -4 -159q27 -4 36 -7.5t3 -3.5q135 0 135 -215q0 -16 -1 -39.5t-3 -54.5t-2 -53v-33q0 -324 -19 -387q-8 -31 -65 -39q-68 -8 -84 -20l1 -49q1 -50 3 -148q1 -39 1 -75v-35q-1 -50 -5 -89l16 -16q37 -29 152 -98q100 -61 153 -105 q199 43 361 43q96 0 315 -37l14 39q-7 37 -8 69q0 39 11 73q57 -25 139 -91q49 -41 81.5 -66.5t49.5 -35.5q260 55 350 55q55 0 174 -28q57 -14 98 -20.5t66 -6.5h18q-20 90 -20 201q0 135 31 274q-20 29 -90 57q-68 29 -89 56q-4 45 -6 95t-2 108q0 39 1 96t3 133 q6 150 7 227q90 39 137 45q-11 94 -11 172q0 96 17 166q-39 39 -137 105q-98 68 -146 114q-73 -7 -168 -7q-38 0 -80 1q-117 4 -177 6t-68 2l-19 -6q-6 -6 -90 -166q-66 -121 -115 -127q-25 33 -85 78t-158 105q-201 125 -273 125q-39 0 -102.5 -14.5t-99.5 -14.5 q-43 0 -125 12q-41 8 -73 11.5t-54 3.5zM178 227q31 43 228 43q35 0 86 -4t122.5 -12t117.5 -12t67 -4q23 0 32 6q2 16 3 35v45l-3 297q-18 18 -40 18q-72 0 -84 27q-4 12 -5 96q0 16 1.5 41.5t3.5 60.5l12 10q20 -10 104 -141q80 -123 107 -123q31 0 108 123 q90 139 115 160q14 -55 14 -129q0 -72 -14 -127q-31 -8 -27 -8q-16 0 -46.5 10t-47.5 10q-23 0 -39 -16q4 -66 7.5 -166t3.5 -236q29 -84 34 -122l-16 -52q-227 31 -307 31q-57 0 -318 -31q-72 59 -126 101.5t-93 68.5zM682 1712q139 -25 215 -82q35 -27 59.5 -56.5 t47.5 -60.5q14 -15 14 -38q0 -12 -6 -28.5t-15.5 -31t-21.5 -25t-25 -10.5q-59 0 -268 332zM1147 225q57 51 194 51q35 0 90.5 -5t131.5 -15q150 -18 219 -18h49q-6 129 -6 389q-43 16 -47 16h-13q-10 0 -26.5 -2t-36.5 2q-20 2 -33 19q-10 160 -16 287.5t-6 228.5 q0 164 12 272q41 14 37 14q74 0 94 15q-9 85 -9 143t9 88l-6 14l10 -4l18 -10q57 -33 98.5 -57.5t69.5 -40.5q4 -12 5 -47q0 -119 -7 -232q-14 -4 -67 -10q-41 -4 -58 -23l-2 -239q-1 -48 -1 -93q0 -102 4 -191q4 -128 12 -232l26 -31q7 1 14 1q69 0 119 -56 q-18 -133 -18 -232q0 -84 12 -157q-27 0 -66.5 4t-92.5 12q-109 18 -160 18q-176 0 -334 -63q-31 39 -106 94q-43 33 -71 54.5t-42 35.5z" />
<glyph unicode="n" horiz-adv-x="1957" d="M74 231l14 -28q154 -74 264 -191q154 8 235 11.5t89 3.5q137 0 237 -21l37 23q0 51 -12 155q-4 53 -7 91t-3 65q0 31 3 58.5t7 52.5q29 -25 79 -81.5t122 -146.5q125 -156 204 -207q53 8 104.5 12.5t100.5 4.5q154 0 283 -37l37 10q-12 135 -12 242q0 124 16 211 q-33 18 -63.5 36.5t-63.5 36.5q-40 29 -40 106q0 10 1 21l-12 13l12 16v557q4 0 31 15q29 16 32 16q99 0 115 4q-18 172 -18 326q0 10 -123 126.5t-152 117.5q-63 0 -194 -13q-66 -4 -114 -7t-81 -3q-104 0 -184 20l-41 -22v-48q0 -92 -6 -143l-15 -8q-49 0 -182 94 q-53 39 -95 73t-75 62q-231 -30 -334 -30h-18l-129 6l-29 -35q4 -29 6 -58.5t2 -60.5q0 -109 -26 -207q63 -18 53 -18q70 0 109 -27q18 -139 18 -325q0 -117 -1 -189.5t-3 -105.5q-18 -229 -86 -230q-68 0 -90 -8q2 -14 4 -39.5t6 -64.5q4 -35 6 -61.5t2 -47.5 q0 -74 -20 -123zM203 184q49 43 190 43q49 0 146 -12q98 -12 145 -12t47 41q0 49 -6 151q-6 100 -6 152q0 182 18 229q31 -18 88 -119q57 -96 58 -137q0 -72 6 -215q4 -72 6 -125t2 -88l-29 -41q-92 12 -184 12q-18 0 -96 -4t-219 -12q-27 29 -68 63.5t-98 73.5zM770 1628 l12 6q33 -10 65 -22.5t64 -22.5q80 -37 80 -92q0 -14 -7 -43t-7 -45q0 -29 -23 -29q-143 174 -184 248zM1235 221q39 23 133 23q37 0 111 -13q39 -4 66.5 -7t43.5 -3q8 0 23.5 3t42.5 7q2 18 3 31.5t1 22.5v26q0 20 -2 49q-2 25 -3 44.5t1 33.5q4 45 12 72l10 4 q12 0 33 -14.5t39 -24.5q20 -10 43 -18t23 -39v-189v-166q-10 -16 -35 -16q-16 0 -51 4t-89 12q-102 18 -157 19q-57 0 -115 -6q-117 123 -133 145zM1475 993v88q0 55 2 127t3 127.5t1 89.5l24 29q2 0 23.5 -1t66.5 -3h23q34 0 65 4q0 16 -2 41t-6 57.5t-6 57t-2 41.5 q0 16 1 29.5t3 23.5q106 -39 133 -113q17 -43 17 -178q0 -92 -29 -92q2 0 -9 1t-36 3q-16 2 -29.5 1t-23.5 -3q-27 -6 -33 -25q-12 -35 -12 -118q0 -46 4 -107q12 -256 12 -278q0 -96 -16 -146q-39 -22 -80 -22h-4q-35 0 -78 16q-12 137 -12 350z" />
<glyph unicode="o" horiz-adv-x="1927" d="M72 995q0 -436 217 -702q233 -291 659 -291q420 0 666 260q241 254 241 676q0 412 -239 670q-246 266 -660 266q-434 0 -659 -222t-225 -657zM457 201l18 6l6 2q51 0 166 -25q114 -22 167 -22h5q371 0 578 227q196 216 196 592q0 487 -247 729l26 19l19 -7 q419 -229 419 -804q0 -391 -221 -631q-231 -246 -618 -246q-315 0 -514 160zM571 1075q0 205 35 303q55 160 223 160q62 0 62 -27l-4 -14q-76 -260 -76 -450q0 -55 3 -123t11 -148q8 -68 14.5 -135.5t12.5 -134.5q-29 -16 -57 -17q-158 0 -205 232q-18 92 -19 354zM860 983 q0 463 94 463q80 0 80 -494q0 -426 -90 -426q-84 0 -84 457z" />
<glyph unicode="p" horiz-adv-x="1628" d="M18 1473q8 -4 74 -15q63 -10 92 -24q8 -117 11.5 -213.5t3.5 -178.5q0 -106 -5.5 -204.5t-15.5 -192.5l-37 -27q-28 7 -51 7q-25 0 -43 -9q-2 -14 -2 -59t2 -119q0 -111 -24 -174l12 -37q78 -33 174 -104q39 -33 78 -63.5t80 -61.5q186 43 391 43q178 0 332 -39l18 23 q-27 94 -27 233q0 59 5.5 113.5t15.5 105.5q-12 33 -51 35q-49 4 -58 12q-28 22 -28 98v5q0 -4 22 75q276 14 436 142q185 141 185 407q0 289 -199 455q-186 152 -477 152q-111 0 -332 -19q-111 -8 -192.5 -12t-137.5 -4q-57 0 -105 3t-89 7l-29 -25q-2 -16 -4 -58t-6 -110 q-2 -102 -19 -167zM166 221q33 39 362 39q53 0 144 -12q51 -6 87 -9t56 -6l16 17q-1 23 -1 52v30q1 47 6 106q4 66 6 113t2 76q-31 12 -39 12q-113 0 -127 12q-12 14 -12 148q0 6 12 55q346 14 493 86q238 115 238 408q0 147 -117 381q269 -115 269 -463q0 -285 -181 -408 q-135 -92 -440 -125q-18 -23 -18 -147q0 -70 49 -90q66 -35 80 -60q-8 -82 -8 -172t8 -188l-19 -17q-135 14 -211 20.5t-98 6.5q-137 0 -332 -39q-16 10 -47 30.5t-76 53.5q-98 74 -102 90zM672 1327v66q0 20 14 46.5t33 26.5q176 0 182 -39q2 -12 3 -25.5t1 -29.5 q0 -72 -16 -108q-35 -25 -94 -25q-16 0 -49 4t-46 4q-29 25 -28 80z" />
<glyph unicode="q" horiz-adv-x="1927" d="M270 244q242 -248 680 -248q68 0 197 24q131 25 201 25q20 0 48.5 -3t67.5 -7t67 -7t46 -3q47 0 94 12q70 111 122 189.5t89 131.5l12 35l-4 15q-14 8 -102 18q-68 10 -94 43q96 217 96 498q0 424 -240 657q-238 233 -661 234q-459 0 -664 -242q-192 -222 -192 -683 q0 -445 237 -689zM389 221q59 0 170 -33q113 -30 178 -30h4q203 0 443 88q63 -33 99 -51.5t44 -22.5q86 -37 156 -37l98 160q74 111 125 111q14 0 38.5 -7.5t35.5 -7.5l32 -37q0 -6 -81 -133q-94 -147 -97 -153q-35 -8 -86 -9q-20 0 -52 3.5t-75 7.5q-84 12 -127 12 q-57 0 -164 -27q-105 -24 -161 -24h-4q-162 0 -306 45q-176 53 -270 145zM510 940v96q0 219 43 334q66 164 223 164q72 0 72 -27q0 -25 -19 -51q-23 -35 -24 -49q-45 -160 -45 -508q0 -205 39 -381q-28 -24 -63 -24h-3q-117 0 -174 131q-47 104 -47 231v31q0 23 -2 53z M811 934q0 526 98 526q37 0 60 -139q8 -49 12 -92t4 -82q0 -20 -1 -49t-3 -70t-2 -72v-49v-26q0 -14 2 -37v-68q0 -193 -94 -250q-76 8 -76 408zM1270 1726q248 -43 372 -294q103 -210 103 -484q0 -291 -111 -477q-25 -12 -28 -12q-113 0 -160 71q86 197 86 461 q0 233 -53 398q-59 172 -209 337z" />
<glyph unicode="r" horiz-adv-x="1947" d="M66 209l16 -16q53 -33 96 -56.5t76 -38.5q16 -14 34.5 -27.5t35.5 -27.5q43 -35 75 -43q123 35 291 35q27 0 66 -3t92 -12q106 -12 158 -12q43 0 63 21q-10 39 -18.5 67.5t-14.5 46.5l27 19q119 -76 207 -152q184 43 280 43q133 0 285 -30l20 24q-2 20 -3 39.5t-1 42.5 q0 16 8.5 104t24.5 250q-100 37 -137 82q-10 180 -31 246q-18 49 -69 86q-84 59 -134 115q127 98 152 127q61 70 61 184q0 279 -241 414q-193 108 -489 108h-5q-113 0 -317 -18q-111 -10 -188.5 -15.5t-127.5 -7.5l-4 4q0 10 -41 33q-45 -29 -92 -29q-20 0 -60 4.5t-59 4.5 l-26 -19q1 -68 1 -124t-1 -99q-2 -86 -10 -125q29 -20 45 -20h71q14 0 -20 2q29 0 51 -17q10 -92 15 -188t5 -199q0 -365 -18 -409q-20 -12 -72 -15q-51 0 -71 -18q6 -105 6 -189q0 -118 -12 -192zM186 201q10 25 144 41q47 4 89 7t77 3q49 0 136 -6t214 -21l16 19 q-12 264 -12 262q0 33 1 57.5t3 40.5q-18 18 -43 19q-16 0 -41 -3.5t-31 -3.5q-39 0 -39 82q0 45 13 64q51 18 133 18q139 0 139 -35q0 -23 1 -54.5t3 -74.5q6 -84 6 -127q0 -35 1 -87t3 -123q7 -139 7 -209q0 -10 -13 -19q-201 18 -331 19q-23 0 -55 -3.5t-72.5 -7.5 t-71.5 -7t-51 -3q-27 0 -226 152zM705 1395q0 20 4 32q35 29 120 29h43q14 -2 25 -2h21q2 0 20 -27q18 -43 18 -86t-18 -100q-47 -29 -113 -29q-39 0 -60.5 1t-32.5 5.5t-13 11.5t-2 19t-2 31.5t-4 41t-4 41t-2 32.5zM1087 217q-2 27 89 39q29 4 56.5 7t51.5 3q63 0 172 -12 q63 -8 106.5 -11t65.5 -5l35 20q-10 66 -16.5 111t-6.5 69q0 59 29 203q-16 14 -33 14q-8 0 -22.5 -8t-31.5 -18.5t-37.5 -18.5t-41.5 -8q-41 0 -77.5 43t-36.5 86q0 41 53 76t53 41q0 20 -10 56t-10 54q12 4 16 5q123 0 176 -158q23 -72 39 -258q18 -27 55 -50.5t70 -43.5 q-10 -82 -16.5 -161t-6.5 -155q0 -47 -14 -55q-66 8 -105.5 11t-56.5 3q-82 0 -171 -9t-187 -30q-20 18 -96 78q-29 23 -51.5 44.5t-39.5 37.5zM1309 1122q192 116 192 332q0 149 -80 242q6 6 15 6q84 0 172 -143q82 -132 82 -224q0 -78 -40 -149.5t-110 -102.5 q-94 -41 -115 -41q-20 0 -69 31q-47 31 -47 49z" />
<glyph unicode="s" horiz-adv-x="1615" d="M72 205q57 -104 213 -150q119 -37 262 -37q43 0 61 35q33 -4 164 -37q96 -22 160 -22h6q250 0 420 164q172 162 172 411q0 117 -60 224q-78 137 -92 184q6 0 25.5 4t28.5 4q79 0 110 14q-47 236 -47 304q0 23 4 55.5t12.5 77.5t12.5 75.5t4 49.5q0 23 -98 143 q-96 121 -115 121q-29 0 -71 1t-99 3q-115 6 -168 6q-20 0 -23 -31q-4 -29 -16 -28q-59 0 -178 38.5t-189 38.5q-156 0 -295 -120q-145 -127 -145 -279q0 -188 154 -369q74 -90 282 -262q154 -129 154 -186q0 -14 -27 -59l-26 -5l-45 23q-2 78 -72 137q-51 43 -81 72t-40 45 h-334l-24 -19q18 -152 18 -307q0 -158 -18 -319zM186 195q51 10 56 10q29 0 61.5 -5t44.5 -5q31 0 86 22l12 51q18 -4 61.5 -22.5t110.5 -46.5q98 -41 191 -41q203 0 346 139q141 141 141 346q0 178 -139 342q-31 35 -96.5 94.5t-165.5 141.5q-139 117 -139 178l6 35l51 22 q86 -6 113 -55q14 -25 18 -96q2 -61 27 -86q35 2 79 3h30q31 0 67 -1q143 -6 174 -7q16 27 16 29q0 20 -1 50t-3 71t-3 71.5t-1 51.5q0 100 19 174l26 -10h2l-10 12q55 -23 104 -94q-4 -90 -7 -147.5t-3 -86.5q0 -135 27 -254l-17 -39q-70 -4 -123 -5t-87 -3l-15 -28 q242 -137 242 -424q0 -240 -156 -394q-155 -151 -392 -151h-3q-176 0 -375 98q-14 -2 -20 -30.5t-25 -28.5q-14 0 -35.5 -1t-50.5 -3t-49.5 -3t-34.5 -1q-31 0 -90 47q-57 45 -70 80zM449 727q0 8 16 4q25 0 63 -45q41 -47 41 -70q-2 -14 -18 -14q-12 0 -59 53 q-43 51 -43 72z" />
<glyph unicode="t" horiz-adv-x="1867" d="M6 1327q20 -23 234 -113q225 -96 284 -143q2 -20 3 -52t1 -73q0 -301 -32 -334l-33 -6q-6 0 -15.5 1t-19.5 3q-14 2 -23.5 3t-13.5 1l-45 -24q25 -84 25 -178t-25 -183l6 -12q45 -14 195 -113q76 -47 113 -72l36 -24q29 0 70 4t98.5 12.5t100.5 12.5t71 4q92 0 188.5 -9 t196.5 -30l19 18q-29 143 -29 240q0 20 3 45t7 53q3 36 7 60l6 39q0 36 -66 65q-74 33 -84 62q-2 6 -2 176q0 53 3 171t11 304l17 22q37 -16 82 -65q57 -61 73 -74q20 -2 66.5 -4t120.5 -6q117 -6 186 -18l19 10q-80 276 -80 524q-23 25 -158 129q-139 104 -160 105 q-53 0 -133 -5.5t-188 -15.5q-215 -18 -324 -18q-53 0 -134 6t-191 16q-219 25 -324 25q10 0 -17.5 -3t-93.5 -12q2 -25 2 -49v-47q0 -205 -53 -428zM238 1280l4 20h67q53 0 65.5 80t41.5 86q10 2 27.5 3t43.5 1q58 0 58 -129q0 -14 -5 -59t-16 -123h-35q-2 0 -118 53 q-55 29 -89 45.5t-44 22.5zM502 211q86 35 258 35q178 0 403 -39l29 29v366q-37 16 -45 16q-74 0 -95.5 11.5t-21.5 50.5q0 10 2 45t2 61q0 291 31 658q33 20 57 20q14 0 42 -4t40 -4q35 -23 35 -192q0 2 -1 -52.5t-3 -167.5q-1 -96 -1 -172.5t1 -132.5q4 -166 14 -190 q8 -20 64 -51q57 -27 69 -60q-14 -59 -14 -141q0 -52 18 -242q-31 -6 -32 -6q-59 0 -183 12q-61 8 -107 11.5t-77 3.5q-23 0 -57.5 -3t-81.5 -7.5t-82 -7.5t-57 -3q-20 0 -109 70q-90 70 -98 86zM1386 1286l13 12q154 6 231 7l17 22q-10 45 -22.5 90t-25.5 90 q-22 104 -22 180v7q16 -4 36.5 -14.5t47.5 -24.5q59 -33 70 -56q16 -39 16 -114q0 -63 18 -164q23 -117 25 -162q-10 -8 -72 -8q-158 0 -192 10q-70 18 -140 125z" />
<glyph unicode="u" horiz-adv-x="1900" d="M68 1477q61 -16 53 -17q70 0 102 -16l6 -174q4 -143 8.5 -285.5t8.5 -286.5q31 -326 160 -489q170 -207 526 -207q422 0 596 156q190 166 190 579q0 41 -3 164t-7 328l43 28q23 -4 41 -4q27 0 41 9l-12 165q-3 43 -3 79q0 49 5 87l-207 260q-121 -28 -307 -28h-13 q-111 0 -331 12l-23 -18q0 -2 2 -21.5t6 -54.5q6 -59 6 -92q0 -82 -26 -109q-137 98 -240 299q-66 -6 -135 -6q-37 0 -92 2t-127 6l-126 7t-93 3l-11 -3q-10 -3 -32 -11q0 -301 -6 -362zM528 190l11 5q137 -53 299 -54q311 0 462 127q125 106 166 336q10 66 15.5 183.5 t5.5 291.5q0 72 -3 155t-7 175l34 29h70q18 0 4 -2q31 4 68 20q-2 10 -3 36t-5 71q-6 63 -7 106l23 12q82 -80 102 -110q23 -33 23 -66q0 -8 -2 -36.5t-2 -51.5q0 -47 6 -98q-12 -18 -72 -25q-57 -2 -57 -22q0 -94 6 -273q4 -88 6 -151.5t2 -102.5q0 -350 -125 -499 q-162 -199 -598 -199q-272 0 -422 143zM726 928v522v104t1 74l21 10q104 -92 184 -165q35 -53 35 -549q0 -180 -9 -215q-25 -137 -124 -138q-37 0 -58 13q-47 29 -49 133q-1 29 -1 211z" />
<glyph unicode="v" horiz-adv-x="1957" d="M53 1812q4 -39 7 -129t3 -237q35 -14 39 -14q-6 0 9.5 2t50.5 6t57 -13q119 -221 234 -577q78 -252 127 -399.5t65 -192.5q152 -90 281 -256q72 27 180 27q33 0 93.5 -6.5t152.5 -16.5l24 17q106 756 307 1222q45 10 56 10q23 0 76 -6q51 -6 79 -6l11 14q-8 92 -8 179 q0 99 10 192q-23 31 -123 123q-102 94 -123 104q-188 -34 -326 -34h-8q-47 0 -113.5 8t-154.5 24l-43 -30q-10 -29 -25 -123q-8 -74 -39 -117q-86 25 -174 109q-12 12 -46 52t-89 105q-261 -8 -416 -8q-78 0 -129 2zM731 1661l12 -6q53 -39 93.5 -69t66.5 -50q43 -28 43 -51 q0 -37 -35 -170q-16 -55 -28.5 -98t-22.5 -72q-12 0 -18 14q-10 25 -11 25q-116 422 -116 457q0 19 16 20zM791 221l43 29l61 2q10 0 43 -1t90 -3h32q61 0 101 6q20 436 320 1186l37 4q14 0 33.5 -2t48 -6t50 -6.5t36.5 -2.5l8 23q0 29 -6 88q-2 29 -3.5 51.5t-1.5 38.5 q0 53 13 94q92 -45 127 -98q24 -39 24 -111v-6v-84q0 -53 6 -98l-24 -33q-6 0 -20.5 2t-31 3t-31.5 3.5t-26 2.5q-57 0 -71 -33q-176 -387 -310 -1188l-18 -21q-13 1 -40 1h-29q-50 -1 -128 -5q-30 -1 -58 -1t-52 1q-49 2 -84 11q-39 51 -73 89t-66 64z" />
<glyph unicode="w" horiz-adv-x="2557" d="M55 1458l17 -18q20 0 50 4t71 12l53 -47q182 -569 248 -1194q35 -37 129 -106q47 -35 79.5 -60.5t51.5 -42.5l346 4l24 15q27 131 40.5 201.5t17.5 84.5q49 213 92 254l6 -4q23 -76 47.5 -149.5t46.5 -149.5q70 -190 168 -248q71 6 151 6q140 0 306 -18 q27 137 52.5 274.5t51.5 274.5q57 287 104.5 455t82.5 223q16 0 38.5 -3t55.5 -7.5t56.5 -6.5t39.5 -2l17 19q-12 94 -13 170q1 98 21 168q-14 37 -105 151q-100 121 -123 164q-182 -39 -325 -39q-115 0 -246 29l-23 -10q-25 -74 -41 -130.5t-24 -95.5l-33 -16 q-55 27 -155 152q-89 110 -115 110q-27 0 -76 -3t-121 -7q-62 -4 -112 -5h-32q-31 0 -56 1h-2q-24 0 -39 -82q-23 -102 -41 -121q-92 43 -131 109q-23 41 -44.5 67.5t-39.5 40.5q-143 -35 -297 -35q-141 0 -240 27l-25 -27q1 -11 1 -57v-56q-1 -96 -5 -276zM623 197l10 14 q78 4 137 7t100 3q8 8 131 393q121 381 125 410q49 -53 117 -350q-104 -240 -166 -606l-12 -11l-287 2q-8 8 -28.5 24.5t-53.5 41.5q-51 37 -73 72zM682 1694q133 -72 133 -150q0 -80 -59 -203q-18 18 -45 168q-14 70 -20.5 116t-8.5 69zM1423 1653q27 -14 51.5 -27.5 t51.5 -28.5q61 -41 61 -88t-18 -110q-8 -27 -16.5 -53.5t-16.5 -53.5h-6q-41 100 -68.5 189.5t-38.5 171.5zM1448 211q12 39 160 39q29 0 90 -6t92 -6q2 2 135 553q70 287 112 450.5t58 210.5q43 16 51 16q10 0 27.5 -2t36 -4t36 -4t29.5 -2l17 17q0 8 -3 36.5t-8 75.5 q-4 34 -4 62.5t4 50.5q23 -14 46.5 -32.5t50.5 -41.5q69 -61 69 -90l-4 -256q-29 -4 -40 -6t-3 -2q-14 0 -52 6t-58 6q-45 0 -62 -29q-119 -211 -258 -1183l-18 -11q-129 4 -225.5 7.5t-159.5 3.5q-41 47 -70 82.5t-49 58.5z" />
<glyph unicode="x" horiz-adv-x="1961" d="M45 596q18 -164 18 -227q0 -82 -14 -142l19 -28q61 -23 161 -109q98 -84 131 -92q66 14 154 14t203 -10l16 10q18 88 96 246q90 182 152 188q16 -27 34.5 -53t35.5 -53q35 -63 34 -119q51 -35 117 -98q27 -29 53.5 -55.5t53.5 -55.5q139 33 303 33q23 0 58.5 -4 t82.5 -12.5t82 -12.5t57 -4l25 6q-45 133 -45 287q0 47 4 96.5t12 102.5l-18 20q-98 27 -293 215.5t-221 278.5q10 29 29.5 60.5t46.5 66.5q23 29 45 59.5t45 59.5l59 6q12 0 31.5 -1t40 -3t39 -3t30.5 -1l50 28q-4 35 -7.5 69t-3.5 64v45q2 12 2 21v14q0 82 -104 221 q-12 18 -24.5 37t-24.5 39q-41 55 -64 55q-66 0 -190 -6q-127 -6 -189 -6q-47 0 -93 3t-87 7q-33 -16 -53 -86q-20 -66 -62 -94q-70 12 -157 78q-113 88 -146 102q-73 -10 -193 -13q-40 -1 -86 -1q-92 0 -208 4l-33 -39q16 -86 16 -197q0 -53 -4 -112q20 -10 80 -14 q61 -4 86 -23q27 -20 168.5 -198.5t141.5 -192.5q0 -45 -158 -256q-158 -207 -205 -207q-111 0 -129 -8zM182 201q2 37 82 37q23 0 55.5 -2.5t77.5 -6.5t79 -6t56 -2q55 68 148 219q47 78 83 133.5t62 88.5q20 -10 61.5 -62t41.5 -68q0 -29 -101 -210q-113 -203 -127 -259 q-25 -10 -24 -10q-242 0 -305 -12q-63 53 -109.5 93t-79.5 67zM651 1716q74 -23 187 -104q12 -11 12 -23q0 -8 -8 -27.5t-11 -27.5q-33 -33 -34 -33q-35 12 -88 92q-51 78 -58 123zM1110 1069q6 35 121 205q51 78 87 130t58 79q27 0 86 -13q57 -12 86 -12q8 0 33 25 q-8 84 -11 118.5t-3 22.5q0 53 18 88q104 -51 117 -170q2 -53 2 -108q0 -56 2 -109q-16 -16 -53 -16q-20 0 -57 5t-56 5q-49 0 -131 -119q-29 -43 -55.5 -86t-55.5 -84q6 -39 138 -194q78 -92 118.5 -144.5t49.5 -62.5q-37 -12 -78 -13q-35 0 -66 7q-37 41 -84 99t-106 130 q-158 195 -160 217zM1206 193q2 43 275 43q29 0 70.5 -1.5t99.5 -3.5l12 13q0 10 -2 37.5t-6 74.5q-6 68 -6 111q0 29 3 51.5t7 42.5l18 6q66 -33 104 -51t46 -22q0 -2 2 -8.5t2 -10.5v-199q2 -57 7 -107t15 -91l-22 -12q-59 10 -121.5 15t-128.5 5q-23 0 -55.5 -4 t-77.5 -12q-43 -8 -68.5 -11.5t-36.5 -3.5q-6 0 -22 4q-29 33 -57.5 66t-57.5 68z" />
<glyph unicode="y" horiz-adv-x="1781" d="M31 1802q22 -96 22 -182v-8q0 -70 -12 -133q60 -19 60 -22q0 -1 -3 -1q86 0 105 -8q184 -221 231 -293q111 -173 111 -332v-6l-2 -178q-61 -25 -58 -25q8 0 -5 1t-48 3q-29 2 -53 -8q8 -74 9 -167v-21q0 -84 -7 -184q18 -10 58 -39t104 -74q53 -39 92 -63.5t67 -38.5 q143 43 320 43q217 0 424 -62l16 31q-22 75 -22 162v8q0 29 2 64.5t6 80.5q6 59 9 96t5 48q-16 31 -73 57l-93 43q-26 53 -26 200v11q0 82 112 262q115 182 181 182q27 0 73.5 -7t73.5 -7q10 0 20.5 1t20.5 3q2 16 -2 42t-14 62q-18 76 -19 109q0 27 8 66q4 23 6 37l5 22 q0 10 -109 143q-111 137 -129 138q-18 0 -49 -3.5t-72 -11.5q-84 -12 -123 -12q-98 0 -192 12l-29 -18q-86 -178 -104 -203q-104 0 -217 96q-137 119 -181 137q-106 -16 -190 -22q-63 -5 -112 -5q-16 0 -31 1l-148 6zM524 227q0 47 224 47q162 0 473 -49l12 25 q-20 88 -21 170q0 76 27 127q66 -6 166 -70l6 -24q0 -33 -6 -103q-6 -68 -6 -102q0 -80 6 -160q-14 -14 -43 -14q-45 0 -152 18q-100 20 -159 21q-147 0 -322 -37q-25 6 -102 67q-27 20 -51.5 41t-51.5 43zM670 1663q29 -10 58.5 -22.5t57.5 -22.5q86 -41 86 -72 q0 -43 -49 -104q-27 8 -46 36.5t-36 55.5q-6 8 -11 14t-9 11q-51 94 -51 104zM1038 666q0 246 11 276q35 98 139 258q43 59 86 120.5t84 123.5q10 2 23.5 3t31.5 1q12 0 31.5 -1t41 -3t42 -3t33.5 -1q4 31 7 43t3 4q0 -4 -1 17.5t-3 68.5v20q0 38 6 64q104 -35 104 -162v-53 q-2 -18 -2 -33v-23q0 -42 6 -73l-16 -17q-10 0 -27.5 2t-36 4.5t-36 4.5t-29.5 2q-37 0 -55 -19q-16 -16 -129 -196q-113 -176 -119 -199q-6 -127 -6 -231q-35 -18 -80 -21q-20 -2 -41 -2q-20 0 -41 -2z" />
<glyph unicode="z" horiz-adv-x="1857" d="M63 1309q217 -113 291 -203q66 0 162 -19l16 -20q-47 -143 -241 -416q-190 -270 -225 -409l10 -25q43 -14 89 -37.5t97 -56.5q4 -2 168 -121q487 49 733 49q102 0 303 -24q203 -25 303 -25q-28 45 -28 135v6q0 41 6 103.5t20 144.5q14 84 20.5 134.5t6.5 70.5 q-47 47 -98 121q-10 14 -30.5 47t-53.5 84q-160 8 -244 13t-94 7l-17 -14q0 -4 -12 -109q-6 -68 -35 -102l-67 -12l-27 16q82 190 264 469q111 172 181.5 284.5t101.5 168.5l6 18q0 51 -59 160q-63 119 -113 119q-45 0 -114.5 -5.5t-164 -15.5t-165 -15t-117.5 -5 q-158 0 -339 9t-392 26l-25 -23q-6 -55 -19.5 -121.5t-33.5 -144.5q-27 -106 -43 -171t-21 -91zM229 207q0 25 66 29q315 23 509.5 34t272.5 11q74 0 226 -31q150 -31 219 -31q10 0 22 12.5t12 22.5q0 412 68 453q121 -99 121 -148l-2 -9t-6 -28q-14 -59 -20.5 -171.5 t-6.5 -278.5l-24 -13q-113 16 -232 25.5t-248 9.5q-135 0 -321.5 -12t-425.5 -39q-20 14 -48 33.5t-67 48.5q-37 29 -65.5 49.5t-49.5 32.5zM252 1268q10 29 27 28q6 0 18 -4t16 -4q76 0 117 19q25 8 41 90q12 71 58 71h1q156 0 203 -12q2 -8 3 -18.5t1 -26.5 q0 -10 -65.5 -122.5t-77.5 -125.5q-23 -16 -68 -16q-100 0 -151 24q-35 16 -123 97zM854 659q0 66 301 549q305 485 373 535q33 -16 53 -82q18 -59 18 -102q-100 -143 -194 -294t-186 -311q-6 -12 -25.5 -52t-54.5 -105q-47 -94 -86 -150q-14 -20 -74 -20q-59 0 -117 12 q-8 23 -8 20z" />
<glyph unicode="&#xa1;" horiz-adv-x="835" d="M76 193q4 -2 10 -10.5t8 -12.5q78 -49 141.5 -86t110.5 -59q35 -23 45 -25l6 18q68 18 164 19q31 0 76 -2t104 -6l19 18q-2 20 -8.5 148.5t-18.5 367.5q-20 410 -31 457q-6 29 -110.5 108.5t-142.5 79.5h-261q-2 0 -36 -8q0 -554 -76 -1007zM96 1860q0 -23 3 -57t7.5 -81 t7.5 -81.5t3 -57.5q0 -68 -8 -115q4 -8 116.5 -90t120.5 -82q33 0 111 19q76 18 118 18q12 0 30 -2l36 -4t35.5 -4t28.5 -2q23 0 22 22q0 29 -12 95q-4 33 -7 57.5t-3 40.5q0 14 2 32.5t6 43t7 43t3 28.5q0 27 -16 37q-66 41 -121.5 84t-102.5 84q-152 -12 -225 -12 q2 0 -12.5 1t-42.5 3q-47 4 -72 0q-35 -4 -35 -20zM123 250q0 -4 3 14.5t7 59.5q20 156 33.5 363.5t23.5 469.5q14 14 33 14h254q25 0 66 -47q35 -41 49 -69l-10 -13q-20 -2 -35 -3t-25 -1h-37t-51 2t-51 2h-37l-12 -16q0 -29 1 -103.5t3 -197.5q2 -186 0 -303 q-2 -84 -7 -159t-14 -142l-16 -10q-178 61 -178 139zM139 1831l19 12q262 0 315 6q53 -47 85 -79.5t42 -49.5q-33 -20 -102 -20h-82q-4 0 -13.5 1t-23.5 3q-25 2 -39 0q-20 -2 -33 -18q31 -152 31 -211q0 -94 -31 -95q-14 0 -28 13q-10 8 -17.5 11t-11.5 5t-18.5 10 t-43.5 23q-43 20 -43 47q0 20 4.5 60t4.5 61q0 18 -2 45.5t-7 64.5q-6 74 -6 111z" />
<glyph unicode="&#xa2;" horiz-adv-x="1282" d="M31 965q0 -287 84 -451q61 -115 223 -240q115 -90 192.5 -155.5t120.5 -110.5q66 -2 116 -3t85 -1l8 12q0 154 21 172q278 74 370 402l-8 20q-94 61 -162 168q-29 4 -40 6t-7 2q-27 0 -59.5 -6t-48.5 -6q-23 0 -64 10q-6 45 -9 77t-1 54l4 80l16 13l48 -35q80 35 159 35 q31 0 70 -9q27 -4 44 -7t28 -5l20 17q-39 154 -39 249q0 25 12 74q12 51 13 72q0 12 -90 98t-103 86q-190 0 -266 35q-27 12 -66 68q-29 35 -108 34q-29 0 -80 -12l-22 -27q23 -57 -3 -84q-459 -92 -458 -632zM297 332v10q2 0 115 -27q94 -23 102 -30q18 -29 18 -49h-2 q0 -27 -8 -43q-139 43 -225 139zM416 936q0 78 24 158q2 14 54 149q16 -49 16 -362v-125q-2 -41 -2 -74v-53q-47 0 -74 135q-18 92 -18 172zM563 164q2 2 78 14q57 8 61 33v61q2 33 39 39q164 25 246 109q78 78 111 242l6 4q20 -4 63 -45t43 -66q0 -86 -112 -190 q-96 -90 -191 -127q-12 -4 -24.5 -6.5t-22.5 -6.5q-37 -10 -39 -24q-4 -47 -5 -85t1 -65l-10 -6l-92 -2h-27q-12 0 -22 2q-14 20 -52 55q-39 37 -51 64zM670 1593q0 33 12 33q6 0 49 -37q45 -33 45 -41h-2l-6 -6q-84 14 -92 37q-2 6 -6 14zM680 946v27v55q0 33 2 78t2 78v55 q33 -57 49 -119q6 -16 33 -18t39 -60q8 -33 11 -90t3 -141h-2q0 -27 -37 -27q-66 0 -67 -14q-4 -18 -7.5 -36.5t-7.5 -37.5q-2 4 -2 11q-4 45 -7 79.5t-3 57.5q0 10 -1 26.5t-3 38.5q-2 20 -2 37zM846 1104q0 8 14 8q29 2 57.5 4t57.5 6q88 10 96 31q-37 174 -37 233 q0 88 27 101q20 -14 40.5 -26.5t41.5 -26.5q33 -27 33 -97q0 -12 -6.5 -41.5t-6.5 -44.5q0 -35 13 -98q12 -65 12 -96q0 -6 -23 -17q-18 8 -53 9q-14 0 -32.5 -3.5t-45.5 -7.5q-57 -10 -80 -10q-16 0 -34.5 6t-35 17.5t-27.5 25t-11 27.5z" />
<glyph unicode="&#xa3;" horiz-adv-x="1744" d="M45 872q-4 -59 72 -94q29 -14 59.5 -26.5t61.5 -26.5q23 -57 22 -57q0 -113 -57 -248q-66 -152 -152 -199q68 -70 112 -109.5t64 -54.5q86 -55 230 -55q51 0 124.5 4t174.5 12q199 18 303 19q125 0 321 -25q129 -16 208 -24.5t112 -10.5v31q0 20 2 55v115q0 655 -242 656 q-16 0 -36.5 -2.5t-49.5 -6.5q-55 -6 -82 -6q-39 0 -75 10q-23 6 -160 148q-145 145 -146 174q0 37 37 98q37 63 72 64q37 0 92 -49q76 -68 119 -90q88 -49 207 -50q14 0 50 -2t56 -2q131 0 131 88q0 147 -3 236.5t-7 122.5q-18 135 -106 186q-96 53 -330 53q-66 0 -84 -39 q-53 14 -105.5 26.5t-105.5 27.5q-59 14 -114.5 20t-102.5 6q-244 0 -418 -123q-201 -139 -201 -374q0 -61 33 -148q45 -123 49 -141q-88 -27 -131 -27zM172 203q426 72 700 71q135 0 294 -9t345 -29l17 464q57 -10 97 -62.5t40 -111.5q0 -80 -6 -235q-6 -158 -6 -236 q-104 0 -314 19q-104 10 -182 15t-131 5q-47 0 -119.5 -7t-171 -21.5t-171 -20.5t-122.5 -6q-94 0 -153 41q-43 27 -117 123zM195 825h75l-2 -55zM655 1237q0 109 54 193q61 92 165 92q80 0 162 -52q86 -53 107 -124h-2q-59 20 -99 20q-78 0 -123 -55.5t-45 -134.5 q0 -57 19 -109q-43 -14 -102 -14q-135 0 -136 184zM684 578l43 260q8 0 25.5 -1t37 -2t38 -2.5t30.5 -1.5q150 0 150 109l55 -6q27 -27 50.5 -55.5t23.5 -69.5h-2q0 -70 -82 -70h-15q-10 0 -28 2q-29 4 -47 0q-27 -4 -41 -12q-33 -18 -33 -63q-2 -55 -20.5 -71.5 t-84.5 -16.5h-100zM938 590q4 20 8 38.5t8 39.5q14 31 72 30q12 0 28.5 -3t35 -6t34 -7t25.5 -4q6 -43 6 -45q0 -63 -82 -64q-27 0 -135 21zM1247 1233l279 43l-15 410q129 -47 129 -152h-2q0 -23 -2 -56.5t-6 -80.5q-4 -45 -6 -80t-2 -57v-15q0 -8 2 -20v-35l-281 -23z" />
<glyph unicode="&#xa8;" horiz-adv-x="1927" d="M266 2429q0 -35 15 -98q16 -72 16 -103q0 -33 -12 -90q-4 -29 -7.5 -50.5t-3.5 -35.5q0 -16 244 -211q111 12 189 12q49 0 102 -4t113 -12l12 14q-2 8 -5 37t-9 80q-4 35 -6.5 63.5t-2.5 51.5q0 12 2 31.5t5.5 41t6.5 41t3 31.5q0 49 -25 68q-6 4 -67 26q-23 6 -80 68 q-53 55 -82 55q-25 0 -86 -16q-55 -14 -90 -14q-37 0 -107 18q-72 18 -102 18q-23 0 -23 -22zM393 2021q49 16 111 17q2 0 47 -4t137 -13q8 4 18.5 6.5t10.5 10.5q0 14 -2 36.5t-6 51t-6.5 51.5t-2.5 39q0 68 7 133l12 14q29 -16 55.5 -30.5t52.5 -28.5q57 -39 58 -100 q0 -193 12 -306l-20 -16q-70 4 -104 6t-36 2q-16 0 -41.5 -1t-60.5 -3q-33 -2 -58.5 -3t-41.5 -1q-6 8 -78 64q-51 39 -64 75zM950 2427q0 -35 14.5 -98.5t14.5 -102.5q0 -16 -3 -38.5t-7 -51.5t-7.5 -50.5t-3.5 -35.5q0 -18 242 -211q113 12 191 12q49 0 102 -4t113 -12 l12 14q-2 8 -5 37t-9 80q-4 35 -7.5 63.5t-3.5 51.5q0 12 2 31.5t5.5 41t6.5 41t3 31.5q0 49 -23 68q-6 4 -67 26q-23 6 -78.5 65.5t-83.5 59.5q-25 0 -86.5 -16t-89.5 -16q-37 0 -107 18q-72 18 -102 18q-23 0 -23 -22zM1077 2019q49 16 111 17q2 0 47 -4t137 -13 q8 4 18.5 7.5t10.5 9.5q0 14 -2 36.5t-6 51t-6.5 51.5t-2.5 39q0 35 1 67.5t4 65.5l14 14q27 -16 53.5 -30.5t54.5 -28.5q57 -39 58 -100q0 -193 12 -306l-20 -16l-105 6l-35 2q-16 0 -41.5 -1t-60.5 -3q-33 -2 -58.5 -3t-41.5 -1q-6 8 -78 64q-51 39 -64 75z" />
<glyph unicode="&#xad;" horiz-adv-x="1421" d="M78 797l22 -41q10 -4 55.5 -36t123.5 -89q131 -94 159 -94q78 0 238 18q162 18 242 18q33 0 81 -3t113.5 -11t112.5 -11t78 -3q24 -1 40 28q-23 119 -22 215q0 16 2 40t6 55q4 33 6 55.5t2 38.5q0 23 -82 80q-27 20 -53 38.5t-53 39.5q-16 14 -30.5 28.5t-31.5 30.5 q-47 45 -63 45q-39 0 -98.5 -4t-141.5 -12.5t-142 -12.5t-101 -4q-117 0 -225.5 7.5t-209.5 21.5l-24 -33q10 -70 15 -131t5 -115q0 -68 -24 -159zM242 750q-2 18 13 23t30 9q113 6 229 6q29 0 161 -4t367 -12l29 29q-8 88 -12 137t-4 61q0 61 14 111q35 -20 68.5 -39.5 t68.5 -40.5q74 -55 74 -123q0 -14 -2 -36.5t-6 -53.5q-4 -29 -6 -51.5t-2 -38.5q0 -72 8 -119l-15 -8q-168 8 -415 6l-416 -6q-29 0 -94 64q-23 23 -45.5 43t-44.5 43z" />
<glyph unicode="&#xbf;" horiz-adv-x="1122" d="M63 426q0 -203 158 -324q143 -106 352 -106q104 0 246 37q59 16 118.5 34.5t119.5 34.5q-2 10 -6 46t-13 98q-12 90 -10 143l2 51q-14 20 -121 80q-88 51 -88 86q74 104 74 240q0 375 -440 368l-129 -2l-9 -6q14 -45 15 -98q0 -104 -70 -223q-33 -53 -64.5 -105.5 t-64.5 -105.5q-70 -127 -70 -248zM94 434q0 102 72 230q33 55 65.5 110t65.5 109q72 133 72 252q0 31 16 41h78q80 0 80 -136q0 -100 -72 -225l-135 -215q-72 -133 -72 -258q0 -143 121 -248l-25 -10q-113 20 -190 127q-76 102 -76 223zM229 1829q18 -184 19 -182 q0 -16 -2 -41t-6 -60q-6 -68 -7 -102q16 -23 216 -146q20 0 50.5 2.5t71.5 6.5t72 6t53 2q12 0 29.5 -3t37 -6t37 -5.5t27.5 -2.5q25 0 25 25q0 33 -14 88q-12 61 -13 92q0 20 11 72q12 45 12 67q0 25 -115 117t-139 92q-14 0 -36.5 -3t-55.5 -7t-55.5 -7t-38.5 -3 q-39 0 -81 3t-89 7zM266 1794l17 12q25 -4 53.5 -6t60.5 -2q16 0 42 2t61 6t59.5 6.5t40.5 2.5q23 0 125 -115q0 -16 -23 -29h-65q-125 0 -186 6l-15 -16q25 -117 25 -205q0 -10 -1 -26.5t-3 -38.5q-6 -6 -17 -9q-55 0 -102 45q-55 45 -55 105q0 51 -7 131q-4 51 -6 84 t-4 47zM741 496q8 12 19.5 26.5t21.5 14.5q23 0 62 -27q16 -10 30.5 -19.5t28.5 -19.5q10 -4 23.5 -11t13.5 -24q0 -47 -113 -47q-86 1 -86 107z" />
<glyph unicode="&#xc4;" horiz-adv-x="2101" d="M31 233l6 -14q111 -27 231 -121q113 -88 168 -98q-6 6 12.5 14.5t26.5 8.5q57 14 191 14q238 0 385 -41l12 6l-23 127l17 27q31 0 151 -78q119 -76 172 -76q29 0 97 21q74 23 108 22q37 0 92.5 -6t127 -20.5t124.5 -20.5t88 -6q41 0 43 76q2 23 1 56.5t-5 78.5 q-2 45 -3 76.5t-1 52.5q0 96 19 170q-147 37 -283 317q-121 250 -123 416q43 6 75 11t54 9l14 45q-14 51 -14 168t-14 168q-172 100 -285 215q41 -2 83 -6t89 -10l12 14q-2 8 -5 37t-9 80q-4 35 -7 63.5t-3 51.5q0 12 2 31.5t5 41t6 41t3 31.5q0 49 -22 68q-6 4 -68 26 q-23 6 -78 65.5t-84 59.5q-25 0 -86 -16t-90 -16q-37 0 -106 18q-72 18 -103 18q-23 0 -22 -22q0 -35 14 -98.5t14 -102.5q0 -16 -3 -38.5t-7 -51.5t-7 -50.5t-3 -35.5q0 -18 242 -211q90 10 151 12q-213 -37 -430 -36q-137 0 -348 18q-289 27 -346 31l-15 -394l-6 -6l31 2 l88 15q51 2 51 -60q0 -98 -119 -442q-123 -365 -178 -365q4 0 -13 4.5t-58 12.5l-17 -17q-4 -31 -7 -78t-3 -112q0 -127 -12 -191zM199 221q0 31 225 31q33 0 82 -3t115 -11q131 -12 194 -13q29 0 29 23q0 8 -9.5 34.5t-9.5 28.5l6 291q-43 20 -57 21h-45q-29 4 -29 24 q0 57 242 58q139 -1 182 -52q-29 -43 -61 -43q-25 0 -62 13q-27 -8 -26 -60q0 -31 -1 -77t-3 -107.5t-3 -107.5t-1 -76q0 -57 20 -125q-6 -12 -26 -13q-25 0 -62 3t-88 8q-49 4 -86 7t-63 3q-43 0 -119 -12q-78 -12 -117 -13q-27 0 -121 70t-106 98zM328 2429q0 -35 14 -98 q16 -72 16 -103q0 -33 -12 -90q-4 -29 -7 -50.5t-3 -35.5q0 -16 244 -211q111 12 188 12q49 0 102.5 -4t112.5 -12l12 14q-2 8 -5 37t-9 80q-4 35 -6 63.5t-2 51.5q0 12 2 31.5t5 41t6 41t3 31.5q0 49 -24 68q-6 4 -68 26q-23 6 -80 68q-53 55 -82 55q-25 0 -86 -16 q-55 -14 -90 -14q-37 0 -106 18q-72 18 -103 18q-23 0 -22 -22zM455 2021q49 16 110 17q2 0 47 -4t138 -13q8 4 18 6.5t10 10.5q0 14 -2 36.5t-6 51t-6 51.5t-2 39q0 68 6 133l12 14q29 -16 55.5 -30.5t53.5 -28.5q57 -39 57 -100q0 -193 12 -306l-20 -16q-70 4 -103.5 6 t-35.5 2q-16 0 -42 -1t-61 -3q-33 -2 -58.5 -3t-41.5 -1q-6 8 -78 64q-51 39 -63 75zM825 1024q0 39 13 92q14 70 43 70q23 0 49 -70q24 -61 24 -92q-27 -4 -49 -7t-45 -3q-35 0 -35 10zM1096 242q0 27 65 26q432 0 611 -51q25 -8 40 -8q27 0 27 31q0 20 -4 48.5t-12 69.5 t-12.5 72t-4.5 53q0 27 2 50.5t7 44.5q23 -2 106 -56q82 -51 82 -61v-74q0 -43 -2 -102.5t-2 -104.5v-74q0 -43 -43 -43q-25 0 -61.5 4.5t-86.5 12.5q-96 18 -147 18q-25 0 -60.5 -4t-83 -12t-82 -11t-57.5 -3q-47 0 -161 65q-121 68 -121 109zM1139 2019q49 16 110 17 q2 0 47 -4t138 -13q8 4 18 7.5t10 9.5q0 14 -2 36.5t-6 51t-6 51.5t-2 39q0 35 1 67.5t3 65.5l14 14q27 -16 53.5 -30.5t55.5 -28.5q57 -39 57 -100q0 -193 12 -306l-20 -16q-70 4 -104 6l-35 2q-16 0 -42 -1t-61 -3q-33 -2 -58.5 -3t-41.5 -1q-6 8 -78 64q-51 39 -63 75z M1343 1430q0 27 39 26q12 0 43 -5t43 -5q49 0 50 53q0 35 -13 100q-4 35 -7 59.5t-3 41.5q0 6 13.5 15t19.5 9q78 0 201 -135q6 -203 6 -205q0 -84 -43 -84q-12 0 -36 6.5t-34 6.5q-33 0 -33 -41q0 -39 92 -299q43 -123 74 -203t49 -121q-12 -16 -57 -16q-86 0 -123 69 l-49 142l-36 90t-91 229q-104 260 -105 267z" />
<glyph unicode="&#xd6;" horiz-adv-x="1927" d="M72 995q0 -436 217 -702q233 -291 659 -291q420 0 666 260q242 254 241 676q0 338 -169 582q-170 246 -467 321q49 4 92 7t80 3q49 0 102 -4t113 -12l12 14q-2 8 -5 37t-9 80q-4 35 -7.5 63.5t-3.5 51.5q0 12 2 31.5t5.5 41t6.5 41t3 31.5q0 49 -23 68q-6 4 -67 26 q-23 6 -78.5 65.5t-83.5 59.5q-25 0 -86.5 -16t-89.5 -16q-37 0 -107 18q-72 18 -102 18q-23 0 -23 -22q0 -35 14.5 -98.5t14.5 -102.5q0 -16 -3 -38.5t-7 -51.5t-7.5 -50.5t-3.5 -35.5q0 -10 232 -201q-115 25 -234 25h-24q-10 96 -15.5 147.5t-5.5 61.5q0 12 2 31.5 t5.5 41t6.5 41t3 31.5q0 49 -25 68q-6 4 -67 26q-23 6 -80 68q-53 55 -82 55q-25 0 -86 -16q-55 -14 -90 -14q-37 0 -107 18q-72 18 -102 18q-23 0 -23 -22q0 -35 15 -98q16 -72 16 -103q0 -33 -12 -90q-4 -29 -7.5 -50.5t-3.5 -35.5q0 -16 244 -211q111 12 189 12h6 q-641 -119 -641 -858zM393 2021q49 16 111 17q2 0 47 -4t137 -13q8 4 18.5 6.5t10.5 10.5q0 14 -2 36.5t-6 51t-6.5 51.5t-2.5 39q0 68 7 133l12 14q29 -16 55.5 -30.5t52.5 -28.5q57 -39 58 -100q0 -193 12 -306l-20 -16q-70 4 -104 6t-36 2q-16 0 -41.5 -1t-60.5 -3 q-33 -2 -58.5 -3t-41.5 -1q-6 8 -78 64q-51 39 -64 75zM457 201l18 6l6 2q51 0 166 -25q119 -23 172 -22q371 0 578 227q197 217 196 596q0 483 -247 725l26 19l19 -7q419 -229 419 -804q0 -391 -221 -631q-231 -246 -618 -246q-315 0 -514 160zM571 1075q0 205 35 303 q55 160 223 160q62 0 62 -27l-4 -14q-76 -264 -76 -450q0 -55 3 -123t11 -148q8 -68 14.5 -135.5t12.5 -134.5q-29 -16 -57 -17q-158 0 -205 232q-18 92 -19 354zM860 983q0 463 94 463q80 0 80 -494q0 -426 -90 -426q-84 0 -84 457zM1077 2019q49 16 111 17q2 0 47 -4 t137 -13q8 4 18.5 7.5t10.5 9.5q0 14 -2 36.5t-6 51t-6.5 51.5t-2.5 39q0 35 1 67.5t4 65.5l14 14q27 -16 53.5 -30.5t54.5 -28.5q57 -39 58 -100q0 -193 12 -306l-20 -16l-105 6l-35 2q-16 0 -41.5 -1t-60.5 -3q-33 -2 -58.5 -3t-41.5 -1q-6 8 -78 64q-51 39 -64 75z" />
<glyph unicode="&#xdc;" horiz-adv-x="1900" d="M68 1477q61 -16 53 -17q70 0 102 -16l6 -174q4 -143 8.5 -285.5t8.5 -286.5q31 -326 160 -489q170 -207 526 -207q422 0 596 156q190 166 190 579q0 41 -3 164t-7 328l43 28q59 -10 82 5l-12 165q-6 100 2 166l-207 260q-8 -2 -16.5 -3t-16.5 -3l4 2q-2 8 -5 37t-9 80 q-4 35 -7 63.5t-3 51.5q0 12 2 31.5t5 41t6 41t3 31.5q0 49 -23 68q-6 4 -67 26q-23 6 -78 65.5t-84 59.5q-25 0 -86 -16t-90 -16q-37 0 -107 18q-72 18 -102 18q-23 0 -22 -22q0 -35 14 -98.5t14 -102.5q0 -16 -3 -38.5t-7 -51.5t-7 -50.5t-3 -35.5q0 -18 241 -211 q113 12 191 12q84 0 182 -12q-49 -8 -110.5 -11t-135.5 -3q-111 0 -331 12l-23 -18q0 -2 2 -21.5t6 -54.5q6 -59 6 -92q0 -82 -26 -109q-137 98 -240 299q-66 -6 -135 -6q-37 0 -92 2t-127 6l-126 7t-93 3l-11 -3q-10 -3 -32 -11q0 -301 -6 -362zM236 2429q0 -35 14 -98 q16 -72 16 -103q0 -33 -12 -90q-4 -29 -7 -50.5t-3 -35.5q0 -16 243 -211q111 12 189 12q49 0 102 -4t113 -12l12 14q-2 8 -5 37t-9 80q-4 35 -6 63.5t-2 51.5q0 12 2 31.5t5 41t6 41t3 31.5q0 49 -25 68q-6 4 -67 26q-23 6 -80 68q-53 55 -82 55q-25 0 -86 -16 q-55 -14 -90 -14q-37 0 -107 18q-72 18 -102 18q-23 0 -22 -22zM362 2021q49 16 111 17q2 0 47 -4t137 -13q8 4 18.5 6.5t10.5 10.5q0 14 -2 36.5t-6 51t-6 51.5t-2 39q0 68 6 133l12 14q29 -16 55.5 -30.5t53.5 -28.5q57 -39 57 -100q0 -193 12 -306l-20 -16 q-70 4 -103.5 6t-35.5 2q-16 0 -42 -1t-61 -3q-33 -2 -58.5 -3t-41.5 -1q-6 8 -78 64q-51 39 -64 75zM528 190l11 5q137 -53 299 -54q311 0 462 127q125 106 166 336q10 66 15.5 183.5t5.5 291.5q0 72 -3 155t-7 175l34 29h70q18 0 4 -2q31 4 68 20q-2 10 -3 36t-5 71 q-6 63 -7 106l23 12q82 -80 102 -110q23 -33 23 -66q0 -8 -2 -36.5t-2 -51.5q0 -47 6 -98q-12 -18 -72 -25q-57 -2 -57 -22q0 -94 6 -273q4 -88 6 -151.5t2 -102.5q0 -350 -125 -499q-162 -199 -598 -199q-272 0 -422 143zM725 928v522v104t2 74l21 10q104 -92 184 -165 q35 -53 35 -549q0 -180 -9 -215q-25 -137 -124 -138q-37 0 -58 13q-47 29 -49 133q-2 29 -2 211zM1047 2019q49 16 110 17q2 0 47 -4t137 -13q8 4 18.5 7.5t10.5 9.5q0 14 -2 36.5t-6 51t-6 51.5t-2 39q0 35 1 67.5t3 65.5l14 14q27 -16 53.5 -30.5t55.5 -28.5 q57 -39 57 -100q0 -193 12 -306l-20 -16q-70 4 -104 6l-35 2q-16 0 -42 -1t-61 -3q-33 -2 -58.5 -3t-41.5 -1q-6 8 -78 64q-51 39 -63 75z" />
<glyph unicode="&#xdf;" horiz-adv-x="3231" d="M72 205q57 -104 213 -150q119 -37 262 -37q43 0 61 35q33 -4 164 -37q100 -23 166 -22q250 0 420 164q172 162 172 411q0 117 -60 224q-78 137 -92 184q6 0 25.5 4t28.5 4q79 0 110 14q-47 236 -47 304q0 23 4 55.5t12.5 77.5t12.5 75.5t4 49.5q0 23 -98 143 q-96 121 -115 121q-29 0 -71 1t-99 3q-115 6 -168 6q-20 0 -23 -31q-4 -29 -16 -28q-59 0 -178 38.5t-189 38.5q-156 0 -295 -120q-145 -127 -145 -279q0 -188 154 -369q74 -90 282 -262q154 -129 154 -186q0 -14 -27 -59l-26 -5l-45 23q-2 78 -72 137q-51 43 -81 72t-40 45 h-334l-24 -19q18 -152 18 -307q0 -158 -18 -319zM186 195q51 10 56 10q29 0 61.5 -5t44.5 -5q31 0 86 22l12 51q18 -4 61.5 -22.5t110.5 -46.5q98 -41 191 -41q203 0 346 139q141 141 141 346q0 178 -139 342q-31 35 -96.5 94.5t-165.5 141.5q-139 117 -139 178l6 35l51 22 q86 -6 113 -55q14 -25 18 -96q2 -61 27 -86q35 2 79 3t97 -1q143 -6 174 -7q16 27 16 29q0 20 -1 50t-3 71t-3 71.5t-1 51.5q0 100 19 174l26 -10h2l-10 12q55 -23 104 -94q-4 -90 -7 -147.5t-3 -86.5q0 -135 27 -254l-17 -39q-70 -4 -123 -5t-87 -3l-15 -28 q242 -137 242 -424q0 -240 -156 -394q-156 -152 -395 -151q-176 0 -375 98q-14 -2 -20 -30.5t-25 -28.5q-14 0 -35.5 -1t-50.5 -3t-49.5 -3t-34.5 -1q-31 0 -90 47q-57 45 -70 80zM449 727q0 8 16 4q25 0 63 -45q41 -47 41 -70q-2 -14 -18 -14q-12 0 -59 53q-43 51 -43 72z M1688 205q57 -104 213 -150q119 -37 262 -37q43 0 61 35q33 -4 164 -37q100 -23 166 -22q250 0 420 164q172 162 172 411q0 117 -60 224q-78 137 -92 184q6 0 25.5 4t27.5 4q80 0 111 14q-47 236 -47 304q0 23 4 55.5t12 77.5t12.5 75.5t4.5 49.5q0 23 -99 143 q-96 121 -114 121q-29 0 -71 1t-99 3q-115 6 -168 6q-20 0 -23 -31q-4 -29 -16 -28q-59 0 -178 38.5t-189 38.5q-156 0 -295 -120q-145 -127 -145 -279q0 -188 154 -369q74 -90 282 -262q154 -129 154 -186q0 -14 -27 -59l-26 -5l-46 23q-2 78 -71 137q-51 43 -81 72t-40 45 h-334l-24 -19q18 -152 18 -307q0 -158 -18 -319zM1802 195q51 10 56 10q29 0 61.5 -5t44.5 -5q31 0 86 22l12 51q18 -4 61.5 -22.5t110.5 -46.5q98 -41 191 -41q203 0 346 139q141 141 141 346q0 178 -139 342q-31 35 -96.5 94.5t-165.5 141.5q-139 117 -139 178l6 35l51 22 q86 -6 113 -55q14 -25 18 -96q2 -61 27 -86q35 2 79 3t97 -1q143 -6 174 -7q16 27 16 29q0 20 -1 50t-3 71t-3 71.5t-1 51.5q0 100 18 174l27 -10h2l-10 12q55 -23 104 -94q-4 -90 -7 -147.5t-3 -86.5q0 -135 27 -254l-17 -39q-70 -4 -123 -5t-88 -3l-14 -28 q242 -137 242 -424q0 -240 -156 -394q-156 -152 -395 -151q-176 0 -375 98q-14 -2 -20.5 -30.5t-24.5 -28.5q-14 0 -35.5 -1t-50.5 -3t-49.5 -3t-34.5 -1q-31 0 -90 47q-57 45 -70 80zM2064 727q0 8 17 4q25 0 63 -45q41 -47 41 -70q-2 -14 -18 -14q-12 0 -60 53 q-43 51 -43 72z" />
<glyph unicode="&#xe4;" horiz-adv-x="2101" d="M31 233l6 -14q111 -27 231 -121q113 -88 168 -98q-6 6 12.5 14.5t26.5 8.5q57 14 191 14q238 0 385 -41l12 6l-23 127l17 27q31 0 151 -78q119 -76 172 -76q29 0 97 21q74 23 108 22q37 0 92.5 -6t127 -20.5t124.5 -20.5t88 -6q41 0 43 76q2 23 1 56.5t-5 78.5 q-2 45 -3 76.5t-1 52.5q0 96 19 170q-147 37 -283 317q-121 250 -123 416q43 6 75 11t54 9l14 45q-14 51 -14 168t-14 168q-172 100 -285 215q41 -2 83 -6t89 -10l12 14q-2 8 -5 37t-9 80q-4 35 -7 63.5t-3 51.5q0 12 2 31.5t5 41t6 41t3 31.5q0 49 -22 68q-6 4 -68 26 q-23 6 -78 65.5t-84 59.5q-25 0 -86 -16t-90 -16q-37 0 -106 18q-72 18 -103 18q-23 0 -22 -22q0 -35 14 -98.5t14 -102.5q0 -16 -3 -38.5t-7 -51.5t-7 -50.5t-3 -35.5q0 -18 242 -211q90 10 151 12q-213 -37 -430 -36q-137 0 -348 18q-289 27 -346 31l-15 -394l-6 -6l31 2 l88 15q51 2 51 -60q0 -98 -119 -442q-123 -365 -178 -365q4 0 -13 4.5t-58 12.5l-17 -17q-4 -31 -7 -78t-3 -112q0 -127 -12 -191zM199 221q0 31 225 31q33 0 82 -3t115 -11q131 -12 194 -13q29 0 29 23q0 8 -9.5 34.5t-9.5 28.5l6 291q-43 20 -57 21h-45q-29 4 -29 24 q0 57 242 58q139 -1 182 -52q-29 -43 -61 -43q-25 0 -62 13q-27 -8 -26 -60q0 -31 -1 -77t-3 -107.5t-3 -107.5t-1 -76q0 -57 20 -125q-6 -12 -26 -13q-25 0 -62 3t-88 8q-49 4 -86 7t-63 3q-43 0 -119 -12q-78 -12 -117 -13q-27 0 -121 70t-106 98zM328 2429q0 -35 14 -98 q16 -72 16 -103q0 -33 -12 -90q-4 -29 -7 -50.5t-3 -35.5q0 -16 244 -211q111 12 188 12q49 0 102.5 -4t112.5 -12l12 14q-2 8 -5 37t-9 80q-4 35 -6 63.5t-2 51.5q0 12 2 31.5t5 41t6 41t3 31.5q0 49 -24 68q-6 4 -68 26q-23 6 -80 68q-53 55 -82 55q-25 0 -86 -16 q-55 -14 -90 -14q-37 0 -106 18q-72 18 -103 18q-23 0 -22 -22zM455 2021q49 16 110 17q2 0 47 -4t138 -13q8 4 18 6.5t10 10.5q0 14 -2 36.5t-6 51t-6 51.5t-2 39q0 68 6 133l12 14q29 -16 55.5 -30.5t53.5 -28.5q57 -39 57 -100q0 -193 12 -306l-20 -16q-70 4 -103.5 6 t-35.5 2q-16 0 -42 -1t-61 -3q-33 -2 -58.5 -3t-41.5 -1q-6 8 -78 64q-51 39 -63 75zM825 1024q0 39 13 92q14 70 43 70q23 0 49 -70q24 -61 24 -92q-27 -4 -49 -7t-45 -3q-35 0 -35 10zM1096 242q0 27 65 26q432 0 611 -51q25 -8 40 -8q27 0 27 31q0 20 -4 48.5t-12 69.5 t-12.5 72t-4.5 53q0 27 2 50.5t7 44.5q23 -2 106 -56q82 -51 82 -61v-74q0 -43 -2 -102.5t-2 -104.5v-74q0 -43 -43 -43q-25 0 -61.5 4.5t-86.5 12.5q-96 18 -147 18q-25 0 -60.5 -4t-83 -12t-82 -11t-57.5 -3q-47 0 -161 65q-121 68 -121 109zM1139 2019q49 16 110 17 q2 0 47 -4t138 -13q8 4 18 7.5t10 9.5q0 14 -2 36.5t-6 51t-6 51.5t-2 39q0 35 1 67.5t3 65.5l14 14q27 -16 53.5 -30.5t55.5 -28.5q57 -39 57 -100q0 -193 12 -306l-20 -16q-70 4 -104 6l-35 2q-16 0 -42 -1t-61 -3q-33 -2 -58.5 -3t-41.5 -1q-6 8 -78 64q-51 39 -63 75z M1343 1430q0 27 39 26q12 0 43 -5t43 -5q49 0 50 53q0 35 -13 100q-4 35 -7 59.5t-3 41.5q0 6 13.5 15t19.5 9q78 0 201 -135q6 -203 6 -205q0 -84 -43 -84q-12 0 -36 6.5t-34 6.5q-33 0 -33 -41q0 -39 92 -299q43 -123 74 -203t49 -121q-12 -16 -57 -16q-86 0 -123 69 l-49 142l-36 90t-91 229q-104 260 -105 267z" />
<glyph unicode="&#xf6;" horiz-adv-x="1927" d="M72 995q0 -436 217 -702q233 -291 659 -291q420 0 666 260q242 254 241 676q0 338 -169 582q-170 246 -467 321q49 4 92 7t80 3q49 0 102 -4t113 -12l12 14q-2 8 -5 37t-9 80q-4 35 -7.5 63.5t-3.5 51.5q0 12 2 31.5t5.5 41t6.5 41t3 31.5q0 49 -23 68q-6 4 -67 26 q-23 6 -78.5 65.5t-83.5 59.5q-25 0 -86.5 -16t-89.5 -16q-37 0 -107 18q-72 18 -102 18q-23 0 -23 -22q0 -35 14.5 -98.5t14.5 -102.5q0 -16 -3 -38.5t-7 -51.5t-7.5 -50.5t-3.5 -35.5q0 -10 232 -201q-115 25 -234 25h-24q-10 96 -15.5 147.5t-5.5 61.5q0 12 2 31.5 t5.5 41t6.5 41t3 31.5q0 49 -25 68q-6 4 -67 26q-23 6 -80 68q-53 55 -82 55q-25 0 -86 -16q-55 -14 -90 -14q-37 0 -107 18q-72 18 -102 18q-23 0 -23 -22q0 -35 15 -98q16 -72 16 -103q0 -33 -12 -90q-4 -29 -7.5 -50.5t-3.5 -35.5q0 -16 244 -211q111 12 189 12h6 q-641 -119 -641 -858zM393 2021q49 16 111 17q2 0 47 -4t137 -13q8 4 18.5 6.5t10.5 10.5q0 14 -2 36.5t-6 51t-6.5 51.5t-2.5 39q0 68 7 133l12 14q29 -16 55.5 -30.5t52.5 -28.5q57 -39 58 -100q0 -193 12 -306l-20 -16q-70 4 -104 6t-36 2q-16 0 -41.5 -1t-60.5 -3 q-33 -2 -58.5 -3t-41.5 -1q-6 8 -78 64q-51 39 -64 75zM457 201l18 6l6 2q51 0 166 -25q119 -23 172 -22q371 0 578 227q197 217 196 596q0 483 -247 725l26 19l19 -7q419 -229 419 -804q0 -391 -221 -631q-231 -246 -618 -246q-315 0 -514 160zM571 1075q0 205 35 303 q55 160 223 160q62 0 62 -27l-4 -14q-76 -264 -76 -450q0 -55 3 -123t11 -148q8 -68 14.5 -135.5t12.5 -134.5q-29 -16 -57 -17q-158 0 -205 232q-18 92 -19 354zM860 983q0 463 94 463q80 0 80 -494q0 -426 -90 -426q-84 0 -84 457zM1077 2019q49 16 111 17q2 0 47 -4 t137 -13q8 4 18.5 7.5t10.5 9.5q0 14 -2 36.5t-6 51t-6.5 51.5t-2.5 39q0 35 1 67.5t4 65.5l14 14q27 -16 53.5 -30.5t54.5 -28.5q57 -39 58 -100q0 -193 12 -306l-20 -16l-105 6l-35 2q-16 0 -41.5 -1t-60.5 -3q-33 -2 -58.5 -3t-41.5 -1q-6 8 -78 64q-51 39 -64 75z" />
<glyph unicode="&#xfc;" horiz-adv-x="1900" d="M68 1477q61 -16 53 -17q70 0 102 -16l6 -174q4 -143 8.5 -285.5t8.5 -286.5q31 -326 160 -489q170 -207 526 -207q422 0 596 156q190 166 190 579q0 41 -3 164t-7 328l43 28q59 -10 82 5l-12 165q-6 100 2 166l-207 260q-8 -2 -16.5 -3t-16.5 -3l4 2q-2 8 -5 37t-9 80 q-4 35 -7 63.5t-3 51.5q0 12 2 31.5t5 41t6 41t3 31.5q0 49 -23 68q-6 4 -67 26q-23 6 -78 65.5t-84 59.5q-25 0 -86 -16t-90 -16q-37 0 -107 18q-72 18 -102 18q-23 0 -22 -22q0 -35 14 -98.5t14 -102.5q0 -16 -3 -38.5t-7 -51.5t-7 -50.5t-3 -35.5q0 -18 241 -211 q113 12 191 12q84 0 182 -12q-49 -8 -110.5 -11t-135.5 -3q-111 0 -331 12l-23 -18q0 -2 2 -21.5t6 -54.5q6 -59 6 -92q0 -82 -26 -109q-137 98 -240 299q-66 -6 -135 -6q-37 0 -92 2t-127 6l-126 7t-93 3l-11 -3q-10 -3 -32 -11q0 -301 -6 -362zM236 2429q0 -35 14 -98 q16 -72 16 -103q0 -33 -12 -90q-4 -29 -7 -50.5t-3 -35.5q0 -16 243 -211q111 12 189 12q49 0 102 -4t113 -12l12 14q-2 8 -5 37t-9 80q-4 35 -6 63.5t-2 51.5q0 12 2 31.5t5 41t6 41t3 31.5q0 49 -25 68q-6 4 -67 26q-23 6 -80 68q-53 55 -82 55q-25 0 -86 -16 q-55 -14 -90 -14q-37 0 -107 18q-72 18 -102 18q-23 0 -22 -22zM362 2021q49 16 111 17q2 0 47 -4t137 -13q8 4 18.5 6.5t10.5 10.5q0 14 -2 36.5t-6 51t-6 51.5t-2 39q0 68 6 133l12 14q29 -16 55.5 -30.5t53.5 -28.5q57 -39 57 -100q0 -193 12 -306l-20 -16 q-70 4 -103.5 6t-35.5 2q-16 0 -42 -1t-61 -3q-33 -2 -58.5 -3t-41.5 -1q-6 8 -78 64q-51 39 -64 75zM528 190l11 5q137 -53 299 -54q311 0 462 127q125 106 166 336q10 66 15.5 183.5t5.5 291.5q0 72 -3 155t-7 175l34 29h70q18 0 4 -2q31 4 68 20q-2 10 -3 36t-5 71 q-6 63 -7 106l23 12q82 -80 102 -110q23 -33 23 -66q0 -8 -2 -36.5t-2 -51.5q0 -47 6 -98q-12 -18 -72 -25q-57 -2 -57 -22q0 -94 6 -273q4 -88 6 -151.5t2 -102.5q0 -350 -125 -499q-162 -199 -598 -199q-272 0 -422 143zM725 928v522v104t2 74l21 10q104 -92 184 -165 q35 -53 35 -549q0 -180 -9 -215q-25 -137 -124 -138q-37 0 -58 13q-47 29 -49 133q-2 29 -2 211zM1047 2019q49 16 110 17q2 0 47 -4t137 -13q8 4 18.5 7.5t10.5 9.5q0 14 -2 36.5t-6 51t-6 51.5t-2 39q0 35 1 67.5t3 65.5l14 14q27 -16 53.5 -30.5t55.5 -28.5 q57 -39 57 -100q0 -193 12 -306l-20 -16q-70 4 -104 6l-35 2q-16 0 -42 -1t-61 -3q-33 -2 -58.5 -3t-41.5 -1q-6 8 -78 64q-51 39 -63 75z" />
<glyph unicode="&#x2000;" horiz-adv-x="1225" />
<glyph unicode="&#x2001;" horiz-adv-x="2451" />
<glyph unicode="&#x2002;" horiz-adv-x="1225" />
<glyph unicode="&#x2003;" horiz-adv-x="2451" />
<glyph unicode="&#x2004;" horiz-adv-x="817" />
<glyph unicode="&#x2005;" horiz-adv-x="612" />
<glyph unicode="&#x2006;" horiz-adv-x="408" />
<glyph unicode="&#x2007;" horiz-adv-x="408" />
<glyph unicode="&#x2008;" horiz-adv-x="306" />
<glyph unicode="&#x2009;" horiz-adv-x="490" />
<glyph unicode="&#x200a;" horiz-adv-x="136" />
<glyph unicode="&#x2010;" horiz-adv-x="1421" d="M78 797l22 -41q10 -4 55.5 -36t123.5 -89q131 -94 159 -94q78 0 238 18q162 18 242 18q33 0 81 -3t113.5 -11t112.5 -11t78 -3q24 -1 40 28q-23 119 -22 215q0 16 2 40t6 55q4 33 6 55.5t2 38.5q0 23 -82 80q-27 20 -53 38.5t-53 39.5q-16 14 -30.5 28.5t-31.5 30.5 q-47 45 -63 45q-39 0 -98.5 -4t-141.5 -12.5t-142 -12.5t-101 -4q-117 0 -225.5 7.5t-209.5 21.5l-24 -33q10 -70 15 -131t5 -115q0 -68 -24 -159zM242 750q-2 18 13 23t30 9q113 6 229 6q29 0 161 -4t367 -12l29 29q-8 88 -12 137t-4 61q0 61 14 111q35 -20 68.5 -39.5 t68.5 -40.5q74 -55 74 -123q0 -14 -2 -36.5t-6 -53.5q-4 -29 -6 -51.5t-2 -38.5q0 -72 8 -119l-15 -8q-168 8 -415 6l-416 -6q-29 0 -94 64q-23 23 -45.5 43t-44.5 43z" />
<glyph unicode="&#x2011;" horiz-adv-x="1421" d="M78 797l22 -41q10 -4 55.5 -36t123.5 -89q131 -94 159 -94q78 0 238 18q162 18 242 18q33 0 81 -3t113.5 -11t112.5 -11t78 -3q24 -1 40 28q-23 119 -22 215q0 16 2 40t6 55q4 33 6 55.5t2 38.5q0 23 -82 80q-27 20 -53 38.5t-53 39.5q-16 14 -30.5 28.5t-31.5 30.5 q-47 45 -63 45q-39 0 -98.5 -4t-141.5 -12.5t-142 -12.5t-101 -4q-117 0 -225.5 7.5t-209.5 21.5l-24 -33q10 -70 15 -131t5 -115q0 -68 -24 -159zM242 750q-2 18 13 23t30 9q113 6 229 6q29 0 161 -4t367 -12l29 29q-8 88 -12 137t-4 61q0 61 14 111q35 -20 68.5 -39.5 t68.5 -40.5q74 -55 74 -123q0 -14 -2 -36.5t-6 -53.5q-4 -29 -6 -51.5t-2 -38.5q0 -72 8 -119l-15 -8q-168 8 -415 6l-416 -6q-29 0 -94 64q-23 23 -45.5 43t-44.5 43z" />
<glyph unicode="&#x2012;" horiz-adv-x="1421" d="M78 797l22 -41q10 -4 55.5 -36t123.5 -89q131 -94 159 -94q78 0 238 18q162 18 242 18q33 0 81 -3t113.5 -11t112.5 -11t78 -3q24 -1 40 28q-23 119 -22 215q0 16 2 40t6 55q4 33 6 55.5t2 38.5q0 23 -82 80q-27 20 -53 38.5t-53 39.5q-16 14 -30.5 28.5t-31.5 30.5 q-47 45 -63 45q-39 0 -98.5 -4t-141.5 -12.5t-142 -12.5t-101 -4q-117 0 -225.5 7.5t-209.5 21.5l-24 -33q10 -70 15 -131t5 -115q0 -68 -24 -159zM242 750q-2 18 13 23t30 9q113 6 229 6q29 0 161 -4t367 -12l29 29q-8 88 -12 137t-4 61q0 61 14 111q35 -20 68.5 -39.5 t68.5 -40.5q74 -55 74 -123q0 -14 -2 -36.5t-6 -53.5q-4 -29 -6 -51.5t-2 -38.5q0 -72 8 -119l-15 -8q-168 8 -415 6l-416 -6q-29 0 -94 64q-23 23 -45.5 43t-44.5 43z" />
<glyph unicode="&#x2013;" horiz-adv-x="1180" d="M78 797l18 -41q8 -4 45 -36t100 -89q106 -94 128 -94q64 0 193 18q131 18 196 18q27 0 65.5 -3t91.5 -11t91.5 -11t63.5 -3q19 -1 32 28q-19 119 -18 215q0 16 1.5 40t5.5 55q3 33 4.5 55.5t1.5 38.5q0 23 -66 80q-22 20 -43 38.5t-43 39.5q-13 14 -24.5 28.5t-25.5 30.5 q-38 45 -51 45q-32 0 -80 -4t-114.5 -12.5t-115 -12.5t-81.5 -4q-95 0 -183 7.5t-169 21.5l-20 -33q8 -70 12 -131t4 -115q0 -68 -19 -159zM211 750q-2 18 10 23t25 9q91 6 185 6q23 0 130 -4t297 -12l24 29q-7 88 -10 137t-3 61q0 61 11 111q29 -20 56 -39.5t55 -40.5 q60 -55 60 -123q0 -14 -1.5 -36.5t-4.5 -53.5q-4 -29 -5.5 -51.5t-1.5 -38.5q0 -72 7 -119l-13 -8q-136 8 -336 6l-336 -6q-24 0 -76 64q-19 23 -37 43t-36 43z" />
<glyph unicode="&#x2014;" horiz-adv-x="2086" d="M27 727q129 -94 225 -163.5t162 -117.5q258 39 481 58.5t418 19.5q57 0 151.5 -3t227.5 -11q156 -8 241.5 -16.5t104.5 -16.5l22 12q-14 119 -20 200t-6 126q0 100 12 166q-41 47 -193 154q-162 113 -206 112q-78 0 -197 -8t-278.5 -24.5t-279.5 -24.5t-200 -8 q-123 0 -279.5 6t-351.5 16q-14 -16 -22 -223q-4 -63 -6 -126.5t-6 -127.5zM221 692q100 57 697 58q47 0 250.5 -8.5t572.5 -24.5l37 28q0 49 -15 134q-12 88 -12 131q0 14 2 34.5t6 47.5q129 -53 178 -111q37 -47 37 -121q0 -18 -2 -61t-2 -68q1 -72 19 -133l-29 -51 q-254 20 -441.5 30.5t-316.5 10.5t-377 -31q-125 -14 -218 -21.5t-152 -7.5q-68 0 -131 58q-27 27 -51.5 53.5t-51.5 52.5z" />
<glyph unicode="&#x2018;" horiz-adv-x="747" d="M82 1407q0 14 2 33.5t6 48.5t7 49.5t3 34.5q0 18 -8 53t-8 53q0 4 4 25q23 14 84 68q47 41 90 57q109 -23 176 -23q49 0 101.5 6.5t109.5 16.5l13 -10q-12 -72 -13 -144q0 -45 4 -91t13 -95q-41 -41 -72 -70.5t-53 -50.5q0 -35 34.5 -88t36.5 -82q-78 -74 -110 -98 q-68 -49 -131 -49q-20 0 -61.5 3t-61.5 3q-14 35 -26.5 68.5t-26.5 68.5q-60 145 -113 213zM123 1421q23 -39 44 -76.5t44 -76.5q47 -90 57 -166q20 -16 78 -21q41 -2 62.5 -3t23.5 -1q96 78 100 113q-23 12 -96 14q-59 2 -80 49q-4 6 -20.5 39t-44.5 92q-55 113 -55 115 q0 29 6 82q4 29 6 48.5t2 33.5q0 55 -21 88q-57 -16 -74.5 -39.5t-17.5 -81.5q0 -53 -3 -105.5t-11 -103.5zM479 1477q0 -43 27 -62q31 0 59 35l4 8q0 23 -32 23q-6 0 -20.5 4t-22.5 4q-15 0 -15 -12z" />
<glyph unicode="&#x2019;" horiz-adv-x="747" d="M82 1489q41 -41 72.5 -70.5t52.5 -50.5q0 -35 -35 -88t-37 -82q76 -74 111 -98q68 -49 131 -49q20 0 61 3t62 3q14 35 26.5 68.5t26.5 68.5q60 145 113 213q0 14 -3.5 33.5t-7.5 48.5t-6 49.5t-2 34.5q0 18 8.5 53t8.5 53q0 4 -5 25q-23 14 -84 68q-47 41 -90 57 q-109 -23 -176 -23q-49 0 -101 6.5t-110 16.5l-12 -10q12 -72 12 -144q0 -45 -4 -91t-12 -95zM178 1458q0 23 33 23q8 0 22.5 4t20.5 4q14 0 14 -12q0 -43 -26 -62q-31 0 -60 35zM215 1190q23 12 96 14q57 2 80 49q4 6 20.5 39t45.5 92q55 113 55 115q0 14 -2 34.5t-6 47.5 q-6 55 -6 82q0 55 20 88q57 -16 74.5 -39.5t17.5 -81.5q0 -53 3.5 -105.5t11.5 -103.5q-23 -39 -44.5 -76.5t-43.5 -76.5q-47 -90 -58 -166q-20 -16 -78 -21q-41 -2 -62.5 -3t-23.5 -1q-96 78 -100 113z" />
<glyph unicode="&#x201a;" horiz-adv-x="747" d="M82 442q41 -41 72.5 -70.5t52.5 -49.5q0 -35 -35 -88.5t-37 -81.5q76 -74 111 -99q68 -49 131 -49q20 0 61 3t62 3q14 35 26.5 69t26.5 68q60 145 113 213q0 14 -3.5 34t-7.5 48.5t-6 49t-2 34.5q0 18 8.5 53t8.5 54q0 4 -5 24q-23 14 -84 68q-47 41 -90 57 q-109 -23 -176 -22q-49 0 -101 6t-110 16l-12 -10q12 -72 12 -143q0 -45 -4 -91t-12 -96zM178 412q0 23 33 22q8 0 22.5 4t20.5 4q14 0 14 -12q0 -43 -26 -61q-31 0 -60 34q-4 8 -4 9zM215 143q23 12 96 15q57 2 80 49q4 6 20.5 39t45.5 92q55 113 55 115q0 14 -2 34.5 t-6 47.5q-6 55 -6 81q0 55 20 89q57 -16 74.5 -40t17.5 -81q0 -53 3.5 -105.5t11.5 -103.5q-23 -39 -44.5 -77t-43.5 -77q-47 -90 -58 -166q-20 -16 -78 -20q-41 -2 -62.5 -3t-23.5 -1q-96 78 -100 112z" />
<glyph unicode="&#x201c;" horiz-adv-x="1261" d="M51 1141q53 -45 94 -79t68 -56q63 12 141 12q139 0 291 -41q18 6 21 39q2 29 14 41q33 -20 54.5 -36.5t35.5 -31.5q74 20 164 21q117 0 254 -39l22 28q-23 90 -22 172q0 27 8 68t8 66q0 53 -45 98q-66 70 -76 82q0 37 27 73.5t53 69.5l-6 39q-109 135 -129 148 q-41 25 -192 24q-25 0 -64 -18q-78 -127 -119 -194.5t-45 -78.5q-8 -10 -10 -47q-4 -29 -14 -43l-33 17q0 45 45 92t45 71q0 12 -78 95q-76 82 -96 88q-16 6 -115 6q-106 0 -129 -17q-23 -39 -43 -75.5t-43 -75.5q-72 -127 -71 -135q0 -33 -2.5 -81t-6.5 -112 q-6 -127 -6 -190zM127 1143q0 41 123 41q20 0 48 -2t66.5 -6.5t67.5 -6.5t47 -2q27 18 27 62q0 16 -3 46t-3 44q0 80 28 80q47 0 74 -94q21 -68 21 -134q0 -115 -21 -135q-96 8 -149.5 12.5t-67.5 4.5q-20 0 -62 -4.5t-63 -4.5q-33 0 -74 35zM326 1530q2 23 15 54.5t36 76.5 q47 90 78 90q27 0 65.5 -45t38.5 -72q0 -43 -84 -108q-10 -2 -26 -2h-35h-23q-33 0 -65 6zM686 1161q63 12 131 13q59 0 230 -19q12 20 12 37q0 16 -6 48t-6 50q0 96 16 113q98 -35 98 -125q0 -27 -6 -82q-2 -29 -3 -49.5t-1 -34.5q0 -10 1 -28.5t3 -43.5q-20 -20 -25 -22 q-96 25 -219 24q-63 0 -127 -6q-98 70 -98 125zM870 1544q8 27 20.5 52.5t33.5 52.5l67 92q6 12 10 12q10 0 53.5 -43t43.5 -61q0 -27 -33 -74q-31 -49 -55 -49q-94 0 -140 18z" />
<glyph unicode="&#x201d;" horiz-adv-x="1396" d="M74 1473q0 -45 65 -105q68 -59 68 -72q0 -45 -33 -102q-31 -59 -31 -72q0 -35 93 -110q92 -74 131 -74q147 0 188 23q100 354 195 376q14 -8 25 -17t22 -20q0 -41 -31 -98q-39 -63 -45 -96l8 -14q66 -47 111 -87t73 -69q29 2 60 2h61q76 2 111 29q12 63 96 245 q80 169 80 179q0 29 -12 82q-10 57 -11 79q0 18 6.5 53t6.5 54q0 29 -94 96q-90 70 -132 70q-35 0 -108.5 -12.5t-110.5 -12.5q-96 0 -194 19q-6 -4 -10.5 -13.5t-7.5 -18.5t-6 -17.5t-7 -8.5q-20 0 -59 29t-62 29q-16 0 -43.5 -3.5t-64.5 -7.5q-35 -4 -62.5 -7t-46.5 -3 q-102 0 -203 19l-24 -17q4 -27 7 -52.5t3 -53.5q0 -37 -6 -111q-6 -72 -6 -110zM182 1407q0 12 31 23q2 0 4 2h2q55 -1 55 -19q0 -35 -24 -55q-41 0 -62 39zM225 1092q23 12 94 18q66 10 84 31q14 16 86 155q74 141 74 148q0 33 -12 98q-12 63 -12 98q0 43 18 84 q121 -41 121 -145q0 -10 -3 -26.5t-6 -35t-5 -35t-2 -28.5q-1 -37 28 -72l-98 -184q-57 -111 -74 -194q-20 -23 -84 -27q-25 -2 -49 -2h-49q-78 51 -111 117zM772 1421q16 8 49 9q49 -1 49 -21q0 -6 -4 -10q-16 -35 -47 -35q0 2 -28 27q-18 18 -19 30zM815 1085q20 18 90 25 q70 10 84 27q20 25 84 159q31 66 50.5 110t27.5 69q-25 82 -25 155q0 57 15 101q27 -2 67 -29q43 -25 43 -45q1 -193 19 -287q-139 -227 -172 -371q-78 -25 -123 -24q-20 0 -44 9t-46.5 24.5t-41 36t-28.5 40.5z" />
<glyph unicode="&#x201e;" horiz-adv-x="1396" d="M74 426q0 -45 65 -104q68 -59 68 -72q0 -45 -33 -103q-31 -59 -31 -71q0 -35 92.5 -108.5t131.5 -73.5q147 0 188 22q100 352 195 375q14 -8 25 -17.5t22 -19.5q0 -41 -31 -98q-39 -63 -45 -97l8 -14q129 -96 184 -154q29 2 60 3h61q76 2 111 28q12 66 96 244 q80 168 80 178q0 29 -12 82q-10 57 -11 80q0 18 6.5 53t6.5 53q0 29 -94 97q-90 70 -132 69q-35 0 -108.5 -12t-110.5 -12q-96 0 -194 18q-6 -4 -10.5 -13t-7.5 -18.5t-6 -17.5t-7 -8q-20 0 -59 28.5t-62 28.5q-16 0 -43.5 -3t-64.5 -7q-35 -4 -62.5 -7t-46.5 -3 q-102 0 -203 18l-24 -16q4 -27 7 -52.5t3 -54.5q0 -37 -6 -110q-6 -72 -6 -111zM182 360q0 12 31 23q2 0 4 2h2q55 0 55 -18q0 -35 -24 -56q-41 0 -62 39zM225 45q23 12 94 18q66 10 84 31q14 16 86 156q74 141 74 147q0 33 -12 99q-12 63 -12 98q0 43 18 84 q121 -41 121 -146q0 -10 -3 -26.5t-6 -34.5t-5 -34.5t-2 -28.5q-1 -37 28 -72l-98 -184q-59 -111 -74 -193q-20 -23 -84 -27q-25 -2 -49 -2h-49q-76 51 -111 115zM772 375q16 8 49 8q49 -1 49 -21q0 -6 -4 -10q-16 -35 -47 -35q0 2 -28 27q-18 18 -19 31zM815 39 q20 18 90 24q70 10 84 27q20 25 84 160q31 66 50.5 109.5t27.5 68.5q-25 82 -25 156q0 57 15 100q27 -2 67 -29q43 -25 43 -45q1 -192 19 -286q-139 -227 -172 -369q-78 -25 -123 -25q-20 0 -44 10.5t-46.5 26t-41 34.5t-28.5 38z" />
<glyph unicode="&#x2022;" horiz-adv-x="1007" d="M27 815q0 -193 227 -311q193 -104 399 -105q70 0 130.5 22.5t104.5 62.5t68.5 97.5t24.5 129.5q0 197 -227 331q-195 119 -408 119q-121 0 -221 -112q-98 -111 -98 -234zM446 487q119 63 179 129q74 82 73 197q0 80 -36 201q250 -127 249 -303h-2q0 -256 -266 -256 q-98 0 -197 32z" />
<glyph unicode="&#x2026;" horiz-adv-x="2992" d="M82 743q0 -39 18 -120q18 -84 19 -129q0 -43 -15 -113q-12 -74 -12 -109q0 -4 139 -125q63 -53 103.5 -86.5t60.5 -50.5q70 8 129.5 11.5t108.5 3.5q59 0 126.5 -5.5t141.5 -15.5l14 19q-2 10 -5 45.5t-11 99.5q-12 88 -12 143q0 16 3 39t7 51q4 31 7 53.5t3 39.5 q0 59 -30 84q-8 6 -84 32q-29 8 -99 86q-68 70 -102 70q-39 0 -109 -21q-72 -18 -112 -18q-23 0 -55.5 6t-77.5 17q-90 23 -127 22q-8 0 -18.5 -10t-10.5 -19zM240 236q57 18 139 18q2 0 229 -18q12 4 24.5 7t12.5 13q0 16 -3 44t-7 65q-4 39 -7 66.5t-3 45.5q0 84 6 168 l16 17q35 -18 69 -37t68 -37q70 -49 70 -125q0 -121 4 -215t12 -166l-26 -23q-172 12 -174 13q-43 0 -125 -6q-84 -6 -127 -7q-16 14 -99 80q-63 49 -79 97zM1079 743q0 -39 19 -120q18 -84 18 -129q0 -43 -14 -113q-12 -74 -12 -109q0 -4 139 -125q63 -53 103 -86.5 t61 -50.5q70 8 129 11.5t108 3.5q59 0 127 -5.5t141 -15.5l15 19q-2 10 -5 45.5t-12 99.5q-12 88 -12 143q0 16 3 39t7 51q4 31 7.5 53.5t3.5 39.5q0 59 -31 84q-8 6 -84 32q-29 8 -98 86q-68 70 -103 70q-39 0 -108 -21q-72 -18 -113 -18q-23 0 -55.5 6t-77.5 17 q-90 23 -127 22q-8 0 -18.5 -10t-10.5 -19zM1237 236q57 18 139 18q2 0 230 -18q12 4 24 7t12 13q0 16 -3 44t-7 65q-4 39 -7 66.5t-3 45.5q0 84 6 168l17 17q35 -18 68.5 -37t68.5 -37q70 -49 69 -125q0 -121 4.5 -215t12.5 -166l-27 -23q-172 12 -174 13q-43 0 -125 -6 q-84 -6 -127 -7q-16 14 -98 80q-63 49 -80 97zM2077 743q0 -39 18 -120q18 -84 19 -129q0 -43 -15 -113q-12 -74 -12 -109q0 -4 139 -125q63 -53 103.5 -86.5t60.5 -50.5q70 8 129 11.5t109 3.5q59 0 126.5 -5.5t141.5 -15.5l14 19q-2 10 -5 45.5t-11 99.5q-12 88 -12 143 q0 16 3 39t7 51q4 31 7 53.5t3 39.5q0 59 -31 84q-8 6 -84 32q-29 8 -98 86q-68 70 -102 70q-39 0 -109 -21q-72 -18 -113 -18q-23 0 -55.5 6t-77.5 17q-90 23 -127 22q-8 0 -18 -10t-10 -19zM2234 236q57 18 140 18q2 0 229 -18q12 4 24.5 7t12.5 13q0 16 -3 44t-7 65 q-4 39 -7.5 66.5t-3.5 45.5q0 84 7 168l16 17q35 -18 68.5 -37t68.5 -37q70 -49 70 -125q0 -121 4 -215t12 -166l-26 -23q-172 12 -175 13q-43 0 -124 -6q-84 -6 -127 -7q-16 14 -99 80q-63 49 -80 97z" />
<glyph unicode="&#x202f;" horiz-adv-x="490" />
<glyph unicode="&#x205f;" horiz-adv-x="612" />
<glyph unicode="&#x25fc;" horiz-adv-x="1853" d="M0 0v1853h1853v-1853h-1853z" />
</font>
</defs>
</svg>
